font.ufo
<glyph name="dollar" format="2">
	<unicode hex="0024"/>
	<advance width="505"/>
	<outline>
		<contour>
			<point x="245" y="-12" type="curve" smooth="yes"/>
			<point x="369" y="-12"/>
			<point x="445" y="64"/>
			<point x="445" y="175" type="curve" smooth="yes"/>
			<point x="445" y="364"/>
			<point x="170" y="360"/>
			<point x="170" y="480" type="curve" smooth="yes"/>
			<point x="170" y="533"/>
			<point x="205" y="568"/>
			<point x="261" y="568" type="curve" smooth="yes"/>
			<point x="313" y="568"/>
			<point x="350" y="549"/>
			<point x="382" y="514" type="curve"/>
			<point x="434" y="568" type="line"/>
			<point x="393" y="616"/>
			<point x="339" y="649"/>
			<point x="260" y="649" type="curve" smooth="yes"/>
			<point x="149" y="649"/>
			<point x="73" y="579"/>
			<point x="73" y="475" type="curve" smooth="yes"/>
			<point x="73" y="297"/>
			<point x="349" y="297"/>
			<point x="349" y="168" type="curve" smooth="yes"/>
			<point x="349" y="108"/>
			<point x="315" y="69"/>
			<point x="245" y="69" type="curve" smooth="yes"/>
			<point x="188" y="69"/>
			<point x="138" y="91"/>
			<point x="95" y="131" type="curve"/>
			<point x="48" y="70" type="line"/>
			<point x="96" y="17"/>
			<point x="169" y="-12"/>
		</contour>
		<contour>
			<point x="220" y="-110" type="line"/>
			<point x="290" y="-110" type="line"/>
			<point x="290" y="25" type="line"/>
			<point x="220" y="25" type="line"/>
		</contour>
		<contour>
			<point x="220" y="615" type="line"/>
			<point x="290" y="615" type="line"/>
			<point x="290" y="747" type="line"/>
			<point x="220" y="747" type="line"/>
		</contour>
	</outline>
</glyph>
<glyph name="period" format="2">
	<unicode hex="002E"/>
	<advance width="262"/>
	<outline>
		<contour>
			<point x="131" y="-12" type="curve" smooth="yes"/>
			<point x="169" y="-12"/>
			<point x="198" y="18"/>
			<point x="198" y="58" type="curve" smooth="yes"/>
			<point x="198" y="100"/>
			<point x="169" y="129"/>
			<point x="131" y="129" type="curve" smooth="yes"/>
			<point x="94" y="129"/>
			<point x="64" y="100"/>
			<point x="64" y="58" type="curve" smooth="yes"/>
			<point x="64" y="18"/>
			<point x="94" y="-12"/>
		</contour>
	</outline>
</glyph>
<glyph name="six" format="2">
	<unicode hex="0036"/>
	<advance width="505"/>
	<outline>
		<contour>
			<point x="272" y="-12" type="curve" smooth="yes"/>
			<point x="377" y="-12"/>
			<point x="466" y="70"/>
			<point x="466" y="195" type="curve" smooth="yes"/>
			<point x="466" y="327"/>
			<point x="392" y="392"/>
			<point x="282" y="392" type="curve" smooth="yes"/>
			<point x="231" y="392"/>
			<point x="172" y="360"/>
			<point x="134" y="307" type="curve"/>
			<point x="137" y="234" type="line"/>
			<point x="177" y="296"/>
			<point x="225" y="319"/>
			<point x="265" y="319" type="curve" smooth="yes"/>
			<point x="336" y="319"/>
			<point x="374" y="274"/>
			<point x="374" y="195" type="curve" smooth="yes"/>
			<point x="374" y="114"/>
			<point x="328" y="65"/>
			<point x="271" y="65" type="curve" smooth="yes"/>
			<point x="189" y="65"/>
			<point x="138" y="140"/>
			<point x="138" y="297" type="curve" smooth="yes"/>
			<point x="138" y="499"/>
			<point x="211" y="568"/>
			<point x="298" y="568" type="curve" smooth="yes"/>
			<point x="337" y="568"/>
			<point x="376" y="548"/>
			<point x="401" y="518" type="curve"/>
			<point x="455" y="579" type="line"/>
			<point x="418" y="618"/>
			<point x="365" y="649"/>
			<point x="293" y="649" type="curve" smooth="yes"/>
			<point x="164" y="649"/>
			<point x="46" y="548"/>
			<point x="46" y="297" type="curve" smooth="yes"/>
			<point x="46" y="87"/>
			<point x="147" y="-12"/>
		</contour>
	</outline>
</glyph>
<glyph name="nine" format="2">
	<unicode hex="0039"/>
	<advance width="505"/>
	<outline>
		<contour>
			<point x="211" y="-12" type="curve" smooth="yes"/>
			<point x="340" y="-12"/>
			<point x="458" y="89"/>
			<point x="458" y="340" type="curve" smooth="yes"/>
			<point x="458" y="550"/>
			<point x="358" y="649"/>
			<point x="232" y="649" type="curve" smooth="yes"/>
			<point x="127" y="649"/>
			<point x="38" y="567"/>
			<point x="38" y="442" type="curve" smooth="yes"/>
			<point x="38" y="310"/>
			<point x="112" y="245"/>
			<point x="222" y="245" type="curve" smooth="yes"/>
			<point x="273" y="245"/>
			<point x="332" y="277"/>
			<point x="371" y="330" type="curve"/>
			<point x="367" y="403" type="line"/>
			<point x="327" y="341"/>
			<point x="279" y="318"/>
			<point x="239" y="318" type="curve" smooth="yes"/>
			<point x="169" y="318"/>
			<point x="130" y="363"/>
			<point x="130" y="442" type="curve" smooth="yes"/>
			<point x="130" y="523"/>
			<point x="176" y="572"/>
			<point x="233" y="572" type="curve" smooth="yes"/>
			<point x="315" y="572"/>
			<point x="366" y="497"/>
			<point x="366" y="340" type="curve" smooth="yes"/>
			<point x="366" y="138"/>
			<point x="294" y="69"/>
			<point x="206" y="69" type="curve" smooth="yes"/>
			<point x="167" y="69"/>
			<point x="128" y="89"/>
			<point x="103" y="119" type="curve"/>
			<point x="49" y="58" type="line"/>
			<point x="86" y="19"/>
			<point x="139" y="-12"/>
		</contour>
	</outline>
</glyph>
<glyph name="G" format="2">
	<unicode hex="0047"/>
	<advance width="622"/>
	<outline>
		<contour>
			<point x="352" y="-12" type="curve" smooth="yes"/>
			<point x="441" y="-12"/>
			<point x="515" y="21"/>
			<point x="558" y="65" type="curve"/>
			<point x="558" y="347" type="line"/>
			<point x="337" y="347" type="line"/>
			<point x="337" y="265" type="line"/>
			<point x="468" y="265" type="line"/>
			<point x="468" y="109" type="line"/>
			<point x="444" y="88"/>
			<point x="404" y="75"/>
			<point x="362" y="75" type="curve" smooth="yes"/>
			<point x="227" y="75"/>
			<point x="153" y="172"/>
			<point x="153" y="329" type="curve" smooth="yes"/>
			<point x="153" y="484"/>
			<point x="235" y="580"/>
			<point x="359" y="580" type="curve" smooth="yes"/>
			<point x="422" y="580"/>
			<point x="462" y="557"/>
			<point x="495" y="523" type="curve"/>
			<point x="549" y="585" type="line"/>
			<point x="509" y="627"/>
			<point x="448" y="667"/>
			<point x="356" y="667" type="curve" smooth="yes"/>
			<point x="182" y="667"/>
			<point x="50" y="539"/>
			<point x="50" y="326" type="curve" smooth="yes"/>
			<point x="50" y="111"/>
			<point x="178" y="-12"/>
		</contour>
	</outline>
	<anchor name="aboveUC" x="355" y="677"/>
	<anchor name="belowLC" x="355" y="-22"/>
</glyph>
<glyph name="O" format="2">
	<unicode hex="004F"/>
	<advance width="669"/>
	<outline>
		<contour>
			<point x="335" y="-12" type="curve" smooth="yes"/>
			<point x="502" y="-12"/>
			<point x="619" y="119"/>
			<point x="619" y="330" type="curve" smooth="yes"/>
			<point x="619" y="540"/>
			<point x="502" y="667"/>
			<point x="335" y="667" type="curve" smooth="yes"/>
			<point x="167" y="667"/>
			<point x="50" y="541"/>
			<point x="50" y="330" type="curve" smooth="yes"/>
			<point x="50" y="119"/>
			<point x="167" y="-12"/>
		</contour>
		<contour>
			<point x="335" y="75" type="curve" smooth="yes"/>
			<point x="225" y="75"/>
			<point x="153" y="175"/>
			<point x="153" y="330" type="curve" smooth="yes"/>
			<point x="153" y="485"/>
			<point x="225" y="580"/>
			<point x="335" y="580" type="curve" smooth="yes"/>
			<point x="445" y="580"/>
			<point x="516" y="485"/>
			<point x="516" y="330" type="curve" smooth="yes"/>
			<point x="516" y="175"/>
			<point x="445" y="75"/>
		</contour>
	</outline>
	<anchor name="aboverightUC" x="559" y="677"/>
	<anchor name="aboveUC" x="335" y="677"/>
	<anchor name="belowLC" x="335" y="-22"/>
	<anchor name="hornLC" x="473" y="646"/>
	<anchor name="ogonekUC" x="335" y="0"/>
</glyph>
<glyph name="P" format="2">
	<unicode hex="0050"/>
	<advance width="574"/>
	<outline>
		<contour>
			<point x="86" y="0" type="line"/>
			<point x="186" y="0" type="line"/>
			<point x="186" y="250" type="line"/>
			<point x="287" y="250" type="line" smooth="yes"/>
			<point x="429" y="250"/>
			<point x="533" y="316"/>
			<point x="533" y="458" type="curve" smooth="yes"/>
			<point x="533" y="605"/>
			<point x="429" y="655"/>
			<point x="283" y="655" type="curve" smooth="yes"/>
			<point x="86" y="655" type="line"/>
		</contour>
		<contour>
			<point x="186" y="331" type="line"/>
			<point x="186" y="575" type="line"/>
			<point x="273" y="575" type="line" smooth="yes"/>
			<point x="379" y="575"/>
			<point x="434" y="545"/>
			<point x="434" y="458" type="curve" smooth="yes"/>
			<point x="434" y="371"/>
			<point x="383" y="331"/>
			<point x="277" y="331" type="curve" smooth="yes"/>
		</contour>
	</outline>
	<anchor name="aboverightUC" x="479" y="677"/>
	<anchor name="aboveUC" x="305" y="677"/>
	<anchor name="belowLC" x="143" y="-22"/>
</glyph>
<glyph name="T" format="2">
	<unicode hex="0054"/>
	<advance width="541"/>
	<outline>
		<contour>
			<point x="221" y="0" type="line"/>
			<point x="321" y="0" type="line"/>
			<point x="321" y="571" type="line"/>
			<point x="514" y="571" type="line"/>
			<point x="514" y="655" type="line"/>
			<point x="27" y="655" type="line"/>
			<point x="27" y="571" type="line"/>
			<point x="221" y="571" type="line"/>
		</contour>
	</outline>
	<anchor name="aboverightUC" x="460" y="677"/>
	<anchor name="aboveUC" x="270" y="677"/>
	<anchor name="baseLC" x="270" y="0"/>
	<anchor name="belowLC" x="270" y="-22"/>
</glyph>
<glyph name="U" format="2">
	<unicode hex="0055"/>
	<advance width="650"/>
	<outline>
		<contour>
			<point x="326" y="-12" type="curve" smooth="yes"/>
			<point x="469" y="-12"/>
			<point x="567" y="65"/>
			<point x="567" y="274" type="curve" smooth="yes"/>
			<point x="567" y="655" type="line"/>
			<point x="471" y="655" type="line"/>
			<point x="471" y="269" type="line" smooth="yes"/>
			<point x="471" y="122"/>
			<point x="409" y="75"/>
			<point x="326" y="75" type="curve" smooth="yes"/>
			<point x="243" y="75"/>
			<point x="183" y="122"/>
			<point x="183" y="269" type="curve" smooth="yes"/>
			<point x="183" y="655" type="line"/>
			<point x="83" y="655" type="line"/>
			<point x="83" y="274" type="line" smooth="yes"/>
			<point x="83" y="65"/>
			<point x="183" y="-12"/>
		</contour>
	</outline>
	<anchor name="aboveUC" x="325" y="677"/>
	<anchor name="belowLC" x="325" y="-22"/>
	<anchor name="hornLC" x="530" y="666"/>
	<anchor name="ogonekUC" x="325" y="0"/>
</glyph>
<glyph name="V" format="2">
	<unicode hex="0056"/>
	<advance width="526"/>
	<outline>
		<contour>
			<point x="201" y="0" type="line"/>
			<point x="318" y="0" type="line"/>
			<point x="528" y="655" type="line"/>
			<point x="426" y="655" type="line"/>
			<point x="324" y="314" type="line" smooth="yes"/>
			<point x="301" y="237"/>
			<point x="285" y="176"/>
			<point x="263" y="99" type="curve"/>
			<point x="259" y="99" type="line"/>
			<point x="237" y="176"/>
			<point x="220" y="237"/>
			<point x="199" y="314" type="curve" smooth="yes"/>
			<point x="104" y="655" type="line"/>
			<point x="-2" y="655" type="line"/>
		</contour>
	</outline>
	<anchor name="aboveUC" x="262" y="677"/>
	<anchor name="belowLC" x="262" y="-22"/>
</glyph>
<glyph name="bracketleft" format="2">
	<unicode hex="005B"/>
	<advance width="314"/>
	<outline>
		<contour>
			<point x="92" y="-152" type="line"/>
			<point x="279" y="-152" type="line"/>
			<point x="279" y="-97" type="line"/>
			<point x="167" y="-97" type="line"/>
			<point x="167" y="653" type="line"/>
			<point x="279" y="653" type="line"/>
			<point x="279" y="708" type="line"/>
			<point x="92" y="708" type="line"/>
		</contour>
	</outline>
</glyph>
<glyph name="asciicircum" format="2">
	<unicode hex="005E"/>
	<advance width="505"/>
	<outline>
		<contour>
			<point x="57" y="281" type="line"/>
			<point x="142" y="281" type="line"/>
			<point x="202" y="445" type="line"/>
			<point x="251" y="579" type="line"/>
			<point x="255" y="579" type="line"/>
			<point x="303" y="445" type="line"/>
			<point x="363" y="281" type="line"/>
			<point x="448" y="281" type="line"/>
			<point x="295" y="670" type="line"/>
			<point x="210" y="670" type="line"/>
		</contour>
	</outline>
</glyph>
<glyph name="a" format="2">
	<unicode hex="0061"/>
	<advance width="510"/>
	<outline>
		<contour>
			<point x="193" y="-12" type="curve" smooth="yes"/>
			<point x="252" y="-12"/>
			<point x="303" y="18"/>
			<point x="349" y="56" type="curve"/>
			<point x="353" y="56" type="line"/>
			<point x="360" y="0" type="line"/>
			<point x="442" y="0" type="line"/>
			<point x="442" y="294" type="line" smooth="yes"/>
			<point x="442" y="424"/>
			<point x="386" y="501"/>
			<point x="266" y="501" type="curve" smooth="yes"/>
			<point x="188" y="501"/>
			<point x="119" y="470"/>
			<point x="69" y="438" type="curve"/>
			<point x="106" y="370" type="line"/>
			<point x="148" y="396"/>
			<point x="196" y="418"/>
			<point x="248" y="418" type="curve" smooth="yes"/>
			<point x="320" y="418"/>
			<point x="342" y="368"/>
			<point x="343" y="313" type="curve"/>
			<point x="139" y="290"/>
			<point x="49" y="239"/>
			<point x="49" y="129" type="curve" smooth="yes"/>
			<point x="49" y="42"/>
			<point x="109" y="-12"/>
		</contour>
		<contour>
			<point x="223" y="69" type="curve" smooth="yes"/>
			<point x="179" y="69"/>
			<point x="145" y="88"/>
			<point x="145" y="136" type="curve" smooth="yes"/>
			<point x="145" y="192"/>
			<point x="195" y="225"/>
			<point x="343" y="243" type="curve"/>
			<point x="343" y="126" type="line"/>
			<point x="302" y="88"/>
			<point x="266" y="69"/>
		</contour>
	</outline>
	<anchor name="aboveLC" x="270" y="512"/>
	<anchor name="belowLC" x="250" y="-22"/>
	<anchor name="ogonekLC" x="367" y="0"/>
</glyph>
<glyph name="g" format="2">
	<unicode hex="0067"/>
	<advance width="512"/>
	<outline>
		<contour>
			<point x="245" y="-220" type="curve" smooth="yes"/>
			<point x="401" y="-220"/>
			<point x="499" y="-143"/>
			<point x="499" y="-50" type="curve" smooth="yes"/>
			<point x="499" y="33"/>
			<point x="439" y="69"/>
			<point x="324" y="69" type="curve" smooth="yes"/>
			<point x="233" y="69" type="line" smooth="yes"/>
			<point x="171" y="69"/>
			<point x="151" y="88"/>
			<point x="151" y="117" type="curve" smooth="yes"/>
			<point x="151" y="142"/>
			<point x="162" y="156"/>
			<point x="178" y="170" type="curve"/>
			<point x="200" y="160"/>
			<point x="226" y="155"/>
			<point x="248" y="155" type="curve" smooth="yes"/>
			<point x="349" y="155"/>
			<point x="430" y="216"/>
			<point x="430" y="322" type="curve" smooth="yes"/>
			<point x="430" y="361"/>
			<point x="415" y="390"/>
			<point x="395" y="410" type="curve"/>
			<point x="395" y="414" type="line"/>
			<point x="491" y="414" type="line"/>
			<point x="491" y="489" type="line"/>
			<point x="319" y="489" type="line"/>
			<point x="300" y="496"/>
			<point x="275" y="501"/>
			<point x="248" y="501" type="curve" smooth="yes"/>
			<point x="147" y="501"/>
			<point x="59" y="435"/>
			<point x="59" y="326" type="curve" smooth="yes"/>
			<point x="59" y="268"/>
			<point x="90" y="221"/>
			<point x="123" y="196" type="curve"/>
			<point x="123" y="192" type="line"/>
			<point x="97" y="173"/>
			<point x="69" y="140"/>
			<point x="69" y="101" type="curve" smooth="yes"/>
			<point x="69" y="62"/>
			<point x="88" y="36"/>
			<point x="113" y="20" type="curve"/>
			<point x="113" y="16" type="line"/>
			<point x="68" y="-12"/>
			<point x="42" y="-50"/>
			<point x="42" y="-91" type="curve" smooth="yes"/>
			<point x="42" y="-176"/>
			<point x="127" y="-220"/>
		</contour>
		<contour>
			<point x="248" y="219" type="curve" smooth="yes"/>
			<point x="196" y="219"/>
			<point x="154" y="259"/>
			<point x="154" y="326" type="curve" smooth="yes"/>
			<point x="154" y="392"/>
			<point x="195" y="431"/>
			<point x="248" y="431" type="curve" smooth="yes"/>
			<point x="300" y="431"/>
			<point x="342" y="392"/>
			<point x="342" y="326" type="curve" smooth="yes"/>
			<point x="342" y="259"/>
			<point x="299" y="219"/>
		</contour>
		<contour>
			<point x="260" y="-154" type="curve" smooth="yes"/>
			<point x="177" y="-154"/>
			<point x="127" y="-125"/>
			<point x="127" y="-77" type="curve" smooth="yes"/>
			<point x="127" y="-51"/>
			<point x="140" y="-26"/>
			<point x="171" y="-4" type="curve"/>
			<point x="191" y="-9"/>
			<point x="213" y="-11"/>
			<point x="235" y="-11" type="curve" smooth="yes"/>
			<point x="311" y="-11" type="line" smooth="yes"/>
			<point x="371" y="-11"/>
			<point x="403" y="-24"/>
			<point x="403" y="-65" type="curve" smooth="yes"/>
			<point x="403" y="-112"/>
			<point x="346" y="-154"/>
		</contour>
	</outline>
	<anchor name="aboveLC" x="263" y="512"/>
	<anchor name="belowLC" x="250" y="-208"/>
</glyph>
<glyph name="m" format="2">
	<unicode hex="006D"/>
	<advance width="836"/>
	<outline>
		<contour>
			<point x="78" y="0" type="line"/>
			<point x="177" y="0" type="line"/>
			<point x="177" y="348" type="line"/>
			<point x="218" y="393"/>
			<point x="255" y="415"/>
			<point x="289" y="415" type="curve" smooth="yes"/>
			<point x="345" y="415"/>
			<point x="372" y="381"/>
			<point x="372" y="295" type="curve" smooth="yes"/>
			<point x="372" y="0" type="line"/>
			<point x="471" y="0" type="line"/>
			<point x="471" y="348" type="line"/>
			<point x="512" y="393"/>
			<point x="548" y="415"/>
			<point x="583" y="415" type="curve" smooth="yes"/>
			<point x="639" y="415"/>
			<point x="666" y="381"/>
			<point x="666" y="295" type="curve" smooth="yes"/>
			<point x="666" y="0" type="line"/>
			<point x="765" y="0" type="line"/>
			<point x="765" y="308" type="line" smooth="yes"/>
			<point x="765" y="432"/>
			<point x="717" y="501"/>
			<point x="615" y="501" type="curve" smooth="yes"/>
			<point x="554" y="501"/>
			<point x="504" y="463"/>
			<point x="456" y="410" type="curve"/>
			<point x="434" y="467"/>
			<point x="394" y="501"/>
			<point x="321" y="501" type="curve" smooth="yes"/>
			<point x="261" y="501"/>
			<point x="212" y="465"/>
			<point x="170" y="420" type="curve"/>
			<point x="167" y="420" type="line"/>
			<point x="159" y="489" type="line"/>
			<point x="78" y="489" type="line"/>
		</contour>
	</outline>
	<anchor name="aboveLC" x="429" y="512"/>
	<anchor name="belowLC" x="425" y="-22"/>
</glyph>
<glyph name="y" format="2">
	<unicode hex="0079"/>
	<advance width="481"/>
	<outline>
		<contour>
			<point x="98" y="-205" type="curve" smooth="yes"/>
			<point x="200" y="-205"/>
			<point x="251" y="-135"/>
			<point x="289" y="-31" type="curve"/>
			<point x="469" y="489" type="line"/>
			<point x="373" y="489" type="line"/>
			<point x="293" y="234" type="line" smooth="yes"/>
			<point x="280" y="190"/>
			<point x="267" y="141"/>
			<point x="254" y="96" type="curve"/>
			<point x="250" y="96" type="line"/>
			<point x="235" y="142"/>
			<point x="220" y="191"/>
			<point x="205" y="234" type="curve" smooth="yes"/>
			<point x="113" y="489" type="line"/>
			<point x="12" y="489" type="line"/>
			<point x="206" y="3" type="line"/>
			<point x="196" y="-31" type="line" smooth="yes"/>
			<point x="178" y="-85"/>
			<point x="145" y="-125"/>
			<point x="92" y="-125" type="curve" smooth="yes"/>
			<point x="81" y="-125"/>
			<point x="70" y="-123"/>
			<point x="57" y="-119" type="curve"/>
			<point x="37" y="-195" type="line"/>
			<point x="54" y="-201"/>
			<point x="73" y="-205"/>
		</contour>
	</outline>
	<anchor name="aboveLC" x="247" y="512"/>
	<anchor name="aboverightLC" x="429" y="512"/>
	<anchor name="belowLC" x="208" y="-213"/>
</glyph>
<glyph name="bar" format="2">
	<unicode hex="007C"/>
	<advance width="248"/>
	<outline>
		<contour>
			<point x="90" y="-250" type="line"/>
			<point x="158" y="-250" type="line"/>
			<point x="158" y="750" type="line"/>
			<point x="90" y="750" type="line"/>
		</contour>
	</outline>
</glyph>
<glyph name="yen" format="2">
	<unicode hex="00A5"/>
	<advance width="505"/>
	<outline>
		<contour>
			<point x="202" y="0" type="line"/>
			<point x="302" y="0" type="line"/>
			<point x="302" y="147" type="line"/>
			<point x="462" y="147" type="line"/>
			<point x="462" y="208" type="line"/>
			<point x="302" y="208" type="line"/>
			<point x="302" y="270" type="line"/>
			<point x="462" y="270" type="line"/>
			<point x="462" y="330" type="line"/>
			<point x="325" y="330" type="line"/>
			<point x="485" y="637" type="line"/>
			<point x="385" y="637" type="line"/>
			<point x="314" y="476" type="line" smooth="yes"/>
			<point x="295" y="432"/>
			<point x="276" y="388"/>
			<point x="256" y="342" type="curve"/>
			<point x="252" y="342" type="line"/>
			<point x="231" y="388"/>
			<point x="213" y="432"/>
			<point x="194" y="476" type="curve" smooth="yes"/>
			<point x="124" y="637" type="line"/>
			<point x="21" y="637" type="line"/>
			<point x="179" y="330" type="line"/>
			<point x="42" y="330" type="line"/>
			<point x="42" y="270" type="line"/>
			<point x="202" y="270" type="line"/>
			<point x="202" y="208" type="line"/>
			<point x="42" y="208" type="line"/>
			<point x="42" y="147" type="line"/>
			<point x="202" y="147" type="line"/>
		</contour>
	</outline>
</glyph>
<glyph name="plusminus" format="2">
	<unicode hex="00B1"/>
	<advance width="505"/>
	<outline>
		<contour>
			<point x="214" y="140" type="line"/>
			<point x="291" y="140" type="line"/>
			<point x="291" y="303" type="line"/>
			<point x="471" y="303" type="line"/>
			<point x="471" y="376" type="line"/>
			<point x="291" y="376" type="line"/>
			<point x="291" y="559" type="line"/>
			<point x="214" y="559" type="line"/>
			<point x="214" y="376" type="line"/>
			<point x="34" y="376" type="line"/>
			<point x="34" y="303" type="line"/>
			<point x="214" y="303" type="line"/>
		</contour>
		<contour>
			<point x="34" y="0" type="line"/>
			<point x="471" y="0" type="line"/>
			<point x="471" y="73" type="line"/>
			<point x="34" y="73" type="line"/>
		</contour>
	</outline>
</glyph>
<glyph name="mu" format="2">
	<unicode hex="00B5"/>
	<unicode hex="03BC"/>
	<advance width="570"/>
	<outline>
		<contour>
			<point x="78" y="-178" type="line"/>
			<point x="178" y="-178" type="line"/>
			<point x="172" y="-104"/>
			<point x="171" y="-59"/>
			<point x="170" y="32" type="curve"/>
			<point x="191" y="-2"/>
			<point x="220" y="-9"/>
			<point x="256" y="-9" type="curve" smooth="yes"/>
			<point x="306" y="-9"/>
			<point x="350" y="20"/>
			<point x="383" y="79" type="curve"/>
			<point x="385" y="79" type="line"/>
			<point x="394" y="18"/>
			<point x="425" y="-10"/>
			<point x="483" y="-10" type="curve" smooth="yes"/>
			<point x="514" y="-10"/>
			<point x="533" y="-4"/>
			<point x="549" y="3" type="curve"/>
			<point x="537" y="78" type="line"/>
			<point x="526" y="74"/>
			<point x="516" y="72"/>
			<point x="507" y="72" type="curve" smooth="yes"/>
			<point x="484" y="72"/>
			<point x="469" y="83"/>
			<point x="469" y="111" type="curve" smooth="yes"/>
			<point x="469" y="218"/>
			<point x="473" y="361"/>
			<point x="476" y="489" type="curve"/>
			<point x="376" y="489" type="line"/>
			<point x="376" y="160" type="line"/>
			<point x="336" y="89"/>
			<point x="300" y="73"/>
			<point x="258" y="73" type="curve" smooth="yes"/>
			<point x="201" y="73"/>
			<point x="177" y="112"/>
			<point x="177" y="193" type="curve" smooth="yes"/>
			<point x="177" y="489" type="line"/>
			<point x="78" y="489" type="line"/>
		</contour>
	</outline>
	<anchor name="aboveLC" x="275" y="512"/>
	<anchor name="belowLC" x="299" y="-182"/>
</glyph>
<glyph name="AE" format="2">
	<unicode hex="00C6"/>
	<advance width="828"/>
	<outline>
		<contour>
			<point x="3" y="0" type="line"/>
			<point x="108" y="0" type="line"/>
			<point x="294" y="371" type="line"/>
			<point x="327" y="438"/>
			<point x="360" y="508"/>
			<point x="393" y="578" type="curve"/>
			<point x="397" y="578" type="line"/>
			<point x="397" y="0" type="line"/>
			<point x="778" y="0" type="line"/>
			<point x="778" y="84" type="line"/>
			<point x="498" y="84" type="line"/>
			<point x="498" y="300" type="line"/>
			<point x="724" y="300" type="line"/>
			<point x="724" y="384" type="line"/>
			<point x="498" y="384" type="line"/>
			<point x="498" y="571" type="line"/>
			<point x="768" y="571" type="line"/>
			<point x="768" y="655" type="line"/>
			<point x="338" y="655" type="line"/>
		</contour>
		<contour>
			<point x="153" y="180" type="line"/>
			<point x="455" y="180" type="line"/>
			<point x="455" y="259" type="line"/>
			<point x="153" y="259" type="line"/>
		</contour>
	</outline>
	<anchor name="aboveUC" x="556" y="677"/>
</glyph>
<glyph name="Eth" format="2">
	<unicode hex="00D0"/>
	<advance width="645"/>
	<outline>
		<contour>
			<point x="28" y="306" type="line"/>
			<point x="354" y="306" type="line"/>
			<point x="354" y="382" type="line"/>
			<point x="112" y="382" type="line"/>
			<point x="28" y="377" type="line"/>
		</contour>
		<component base="D" xOffset="25"/>
	</outline>
</glyph>
<glyph name="multiply" format="2">
	<unicode hex="00D7"/>
	<advance width="505"/>
	<outline>
		<contour>
			<point x="101" y="122" type="line"/>
			<point x="253" y="278" type="line"/>
			<point x="404" y="122" type="line"/>
			<point x="455" y="175" type="line"/>
			<point x="304" y="330" type="line"/>
			<point x="455" y="484" type="line"/>
			<point x="404" y="537" type="line"/>
			<point x="253" y="381" type="line"/>
			<point x="101" y="537" type="line"/>
			<point x="50" y="484" type="line"/>
			<point x="201" y="330" type="line"/>
			<point x="50" y="175" type="line"/>
		</contour>
	</outline>
</glyph>
<glyph name="Eogonek" format="2">
	<unicode hex="0118"/>
	<advance width="532"/>
	<outline>
		<contour>
			<point x="411" y="-221" type="curve" smooth="yes"/>
			<point x="446" y="-221"/>
			<point x="484" y="-206"/>
			<point x="506" y="-188" type="curve"/>
			<point x="481" y="-131" type="line"/>
			<point x="467" y="-141"/>
			<point x="451" y="-148"/>
			<point x="432" y="-148" type="curve" smooth="yes"/>
			<point x="404" y="-148"/>
			<point x="380" y="-134"/>
			<point x="380" y="-101" type="curve" smooth="yes"/>
			<point x="380" y="-53"/>
			<point x="434" y="0"/>
			<point x="475" y="0" type="curve" smooth="yes"/>
			<point x="482" y="0" type="line"/>
			<point x="482" y="84" type="line"/>
			<point x="186" y="84" type="line"/>
			<point x="186" y="300" type="line"/>
			<point x="428" y="300" type="line"/>
			<point x="428" y="384" type="line"/>
			<point x="186" y="384" type="line"/>
			<point x="186" y="571" type="line"/>
			<point x="472" y="571" type="line"/>
			<point x="472" y="655" type="line"/>
			<point x="86" y="655" type="line"/>
			<point x="86" y="0" type="line"/>
			<point x="380" y="0" type="line"/>
			<point x="340" y="-24"/>
			<point x="300" y="-70"/>
			<point x="300" y="-127" type="curve" smooth="yes"/>
			<point x="300" y="-189"/>
			<point x="350" y="-221"/>
		</contour>
	</outline>
	<anchor name="aboveUC" x="290" y="677"/>
	<anchor name="belowLC" x="300" y="-222"/>
</glyph>
<glyph name="Hbar" format="2">
	<unicode hex="0126"/>
	<advance width="697"/>
	<outline>
		<contour>
			<point x="22" y="480" type="line"/>
			<point x="673" y="480" type="line"/>
			<point x="673" y="556" type="line"/>
			<point x="111" y="556" type="line"/>
			<point x="22" y="551" type="line"/>
		</contour>
		<component base="H" xOffset="20"/>
	</outline>
</glyph>
<glyph name="hbar" format="2">
	<unicode hex="0127"/>
	<advance width="561"/>
	<outline>
		<contour>
			<point x="88" y="0" type="line"/>
			<point x="186" y="0" type="line"/>
			<point x="186" y="306" type="line"/>
			<point x="231" y="351"/>
			<point x="263" y="375"/>
			<point x="309" y="375" type="curve" smooth="yes"/>
			<point x="368" y="375"/>
			<point x="393" y="339"/>
			<point x="393" y="254" type="curve" smooth="yes"/>
			<point x="393" y="0" type="line"/>
			<point x="492" y="0" type="line"/>
			<point x="492" y="268" type="line" smooth="yes"/>
			<point x="492" y="392"/>
			<point x="446" y="460"/>
			<point x="342" y="460" type="curve" smooth="yes"/>
			<point x="276" y="460"/>
			<point x="227" y="425"/>
			<point x="183" y="383" type="curve"/>
			<point x="186" y="481" type="line"/>
			<point x="186" y="709" type="line"/>
			<point x="88" y="709" type="line"/>
		</contour>
		<contour>
			<point x="7" y="548" type="line"/>
			<point x="366" y="548" type="line"/>
			<point x="366" y="625" type="line"/>
			<point x="92" y="625" type="line"/>
			<point x="7" y="619" type="line"/>
		</contour>
	</outline>
</glyph>
<glyph name="oe" format="2">
	<unicode hex="0153"/>
	<advance width="834"/>
	<outline>
		<contour>
			<point x="264" y="-12" type="curve" smooth="yes"/>
			<point x="343" y="-12"/>
			<point x="403" y="27"/>
			<point x="441" y="100" type="curve"/>
			<point x="478" y="28"/>
			<point x="543" y="-12"/>
			<point x="622" y="-12" type="curve" smooth="yes"/>
			<point x="676" y="-12"/>
			<point x="735" y="8"/>
			<point x="778" y="39" type="curve"/>
			<point x="743" y="103" type="line"/>
			<point x="710" y="82"/>
			<point x="670" y="68"/>
			<point x="625" y="68" type="curve" smooth="yes"/>
			<point x="551" y="68"/>
			<point x="492" y="126"/>
			<point x="486" y="215" type="curve"/>
			<point x="794" y="215" type="line"/>
			<point x="796" y="229"/>
			<point x="798" y="247"/>
			<point x="798" y="268" type="curve" smooth="yes"/>
			<point x="798" y="406"/>
			<point x="729" y="501"/>
			<point x="605" y="501" type="curve"/>
			<point x="535" y="501"/>
			<point x="473" y="460"/>
			<point x="439" y="389" type="curve"/>
			<point x="407" y="459"/>
			<point x="342" y="501"/>
			<point x="264" y="501" type="curve" smooth="yes"/>
			<point x="147" y="501"/>
			<point x="43" y="406"/>
			<point x="43" y="244" type="curve" smooth="yes"/>
			<point x="43" y="82"/>
			<point x="145" y="-12"/>
		</contour>
		<contour>
			<point x="267" y="71" type="curve" smooth="yes"/>
			<point x="193" y="71"/>
			<point x="144" y="140"/>
			<point x="144" y="244" type="curve" smooth="yes"/>
			<point x="144" y="349"/>
			<point x="193" y="418"/>
			<point x="267" y="418" type="curve" smooth="yes"/>
			<point x="341" y="418"/>
			<point x="389" y="349"/>
			<point x="389" y="244" type="curve" smooth="yes"/>
			<point x="389" y="140"/>
			<point x="341" y="71"/>
		</contour>
		<contour>
			<point x="486" y="292" type="line"/>
			<point x="494" y="369"/>
			<point x="544" y="422"/>
			<point x="602" y="422" type="curve" smooth="yes"/>
			<point x="671" y="422"/>
			<point x="709" y="373"/>
			<point x="709" y="292" type="curve"/>
		</contour>
	</outline>
	<anchor name="aboveLC" x="440" y="512"/>
	<anchor name="belowLC" x="440" y="-22"/>
</glyph>
<glyph name="Bhook" format="2">
	<unicode hex="0181"/>
	<advance width="756"/>
	<outline>
		<contour>
			<point x="273" y="0" type="line"/>
			<point x="470" y="0" type="line" smooth="yes"/>
			<point x="616" y="0"/>
			<point x="718" y="63"/>
			<point x="718" y="196" type="curve" smooth="yes"/>
			<point x="718" y="283"/>
			<point x="668" y="332"/>
			<point x="589" y="348" type="curve"/>
			<point x="589" y="352" type="line"/>
			<point x="649" y="372"/>
			<point x="682" y="429"/>
			<point x="682" y="497" type="curve" smooth="yes"/>
			<point x="682" y="616"/>
			<point x="591" y="667"/>
			<point x="398" y="667" type="curve" smooth="yes"/>
			<point x="146" y="667"/>
			<point x="41" y="565"/>
			<point x="41" y="424" type="curve" smooth="yes"/>
			<point x="41" y="330"/>
			<point x="87" y="275"/>
			<point x="160" y="241" type="curve"/>
			<point x="202" y="309" type="line"/>
			<point x="154" y="335"/>
			<point x="130" y="368"/>
			<point x="130" y="427" type="curve" smooth="yes"/>
			<point x="130" y="514"/>
			<point x="197" y="583"/>
			<point x="353" y="583" type="curve" smooth="yes"/>
			<point x="431" y="583" type="line" smooth="yes"/>
			<point x="533" y="583"/>
			<point x="586" y="554"/>
			<point x="586" y="484" type="curve" smooth="yes"/>
			<point x="586" y="420"/>
			<point x="543" y="381"/>
			<point x="442" y="381" type="curve" smooth="yes"/>
			<point x="373" y="381" type="line"/>
			<point x="373" y="616" type="line"/>
			<point x="273" y="616" type="line"/>
		</contour>
		<contour>
			<point x="373" y="79" type="line"/>
			<point x="373" y="305" type="line"/>
			<point x="458" y="305" type="line" smooth="yes"/>
			<point x="564" y="305"/>
			<point x="622" y="272"/>
			<point x="622" y="197" type="curve" smooth="yes"/>
			<point x="622" y="116"/>
			<point x="562" y="79"/>
			<point x="458" y="79" type="curve" smooth="yes"/>
		</contour>
	</outline>
	<anchor name="aboveUC" x="459" y="677"/>
	<anchor name="belowLC" x="474" y="-22"/>
</glyph>
<glyph name="Dhook" format="2">
	<unicode hex="018A"/>
	<advance width="792"/>
	<outline>
		<contour>
			<point x="273" y="0" type="line"/>
			<point x="425" y="0" type="line" smooth="yes"/>
			<point x="621" y="0"/>
			<point x="736" y="119"/>
			<point x="736" y="337" type="curve" smooth="yes"/>
			<point x="736" y="552"/>
			<point x="624" y="667"/>
			<point x="393" y="667" type="curve" smooth="yes"/>
			<point x="142" y="667"/>
			<point x="41" y="565"/>
			<point x="41" y="424" type="curve" smooth="yes"/>
			<point x="41" y="330"/>
			<point x="87" y="275"/>
			<point x="160" y="241" type="curve"/>
			<point x="202" y="309" type="line"/>
			<point x="154" y="335"/>
			<point x="130" y="368"/>
			<point x="130" y="427" type="curve" smooth="yes"/>
			<point x="130" y="512"/>
			<point x="196" y="580"/>
			<point x="353" y="580" type="curve" smooth="yes"/>
			<point x="394" y="580" type="line" smooth="yes"/>
			<point x="559" y="580"/>
			<point x="633" y="498"/>
			<point x="633" y="337" type="curve" smooth="yes"/>
			<point x="633" y="168"/>
			<point x="556" y="81"/>
			<point x="425" y="81" type="curve" smooth="yes"/>
			<point x="373" y="81" type="line"/>
			<point x="373" y="616" type="line"/>
			<point x="273" y="616" type="line"/>
		</contour>
	</outline>
	<anchor name="aboveUC" x="459" y="677"/>
	<anchor name="belowLC" x="474" y="-22"/>
</glyph>
<glyph name="Eturned" format="2">
	<unicode hex="018E"/>
	<advance width="532"/>
	<outline>
		<contour>
			<point x="50" y="0" type="line"/>
			<point x="446" y="0" type="line"/>
			<point x="446" y="655" type="line"/>
			<point x="60" y="655" type="line"/>
			<point x="60" y="571" type="line"/>
			<point x="346" y="571" type="line"/>
			<point x="346" y="384" type="line"/>
			<point x="104" y="384" type="line"/>
			<point x="104" y="300" type="line"/>
			<point x="346" y="300" type="line"/>
			<point x="346" y="84" type="line"/>
			<point x="50" y="84" type="line"/>
		</contour>
	</outline>
	<anchor name="aboveUC" x="259" y="677"/>
	<anchor name="belowLC" x="249" y="-22"/>
	<anchor name="ogonekUC" x="249" y="0"/>
</glyph>
<glyph name="Schwa" format="2">
	<unicode hex="018F"/>
	<advance width="652"/>
	<outline>
		<contour>
			<point x="329" y="-12" type="curve" smooth="yes"/>
			<point x="494" y="-12"/>
			<point x="602" y="104"/>
			<point x="602" y="329" type="curve" smooth="yes"/>
			<point x="602" y="548"/>
			<point x="496" y="667"/>
			<point x="326" y="667" type="curve" smooth="yes"/>
			<point x="224" y="667"/>
			<point x="148" y="629"/>
			<point x="92" y="575" type="curve"/>
			<point x="143" y="515" type="line"/>
			<point x="189" y="557"/>
			<point x="247" y="585"/>
			<point x="321" y="585" type="curve" smooth="yes"/>
			<point x="437" y="585"/>
			<point x="503" y="497"/>
			<point x="503" y="329" type="curve" smooth="yes"/>
			<point x="503" y="154"/>
			<point x="437" y="70"/>
			<point x="330" y="70" type="curve" smooth="yes"/>
			<point x="229" y="70"/>
			<point x="158" y="141"/>
			<point x="156" y="282" type="curve"/>
			<point x="527" y="282" type="line"/>
			<point x="527" y="356" type="line"/>
			<point x="59" y="356" type="line"/>
			<point x="57" y="344"/>
			<point x="56" y="330"/>
			<point x="56" y="319" type="curve" smooth="yes"/>
			<point x="56" y="102"/>
			<point x="162" y="-12"/>
		</contour>
	</outline>
	<anchor name="aboveUC" x="335" y="677"/>
	<anchor name="belowLC" x="330" y="-22"/>
</glyph>
<glyph name="Iotalatin" format="2">
	<unicode hex="0196"/>
	<advance width="273"/>
	<outline>
		<contour>
			<point x="191" y="-10" type="curve" smooth="yes"/>
			<point x="216" y="-10"/>
			<point x="236" y="-5"/>
			<point x="249" y="1" type="curve"/>
			<point x="236" y="79" type="line"/>
			<point x="228" y="77"/>
			<point x="221" y="76"/>
			<point x="215" y="76" type="curve" smooth="yes"/>
			<point x="200" y="76"/>
			<point x="186" y="85"/>
			<point x="186" y="116" type="curve" smooth="yes"/>
			<point x="186" y="655" type="line"/>
			<point x="86" y="655" type="line"/>
			<point x="86" y="117" type="line" smooth="yes"/>
			<point x="86" y="36"/>
			<point x="116" y="-10"/>
		</contour>
	</outline>
	<anchor name="aboveUC" x="137" y="677"/>
	<anchor name="belowLC" x="164" y="-22"/>
</glyph>
<glyph name="lbar" format="2">
	<unicode hex="019A"/>
	<advance width="303"/>
	<outline>
		<contour>
			<point x="22" y="347" type="line"/>
			<point x="278" y="347" type="line"/>
			<point x="278" y="424" type="line"/>
			<point x="103" y="424" type="line"/>
			<point x="22" y="418" type="line"/>
		</contour>
		<component base="l" xOffset="25"/>
	</outline>
	<anchor name="aboveUC" x="154" y="727"/>
	<anchor name="belowLC" x="174" y="-22"/>
</glyph>
<glyph name="oogonek" format="2">
	<unicode hex="01EB"/>
	<advance width="546"/>
	<outline>
		<contour>
			<point x="286" y="-216" type="curve" smooth="yes"/>
			<point x="320" y="-216"/>
			<point x="355" y="-202"/>
			<point x="378" y="-184" type="curve"/>
			<point x="354" y="-131" type="line"/>
			<point x="339" y="-141"/>
			<point x="324" y="-147"/>
			<point x="304" y="-147" type="curve" smooth="yes"/>
			<point x="280" y="-147"/>
			<point x="256" y="-133"/>
			<point x="256" y="-101" type="curve" smooth="yes"/>
			<point x="256" y="-64"/>
			<point x="278" y="-27"/>
			<point x="342" y="-3" type="curve" smooth="yes"/>
			<point x="429" y="31"/>
			<point x="502" y="111"/>
			<point x="502" y="244" type="curve" smooth="yes"/>
			<point x="502" y="407"/>
			<point x="394" y="501"/>
			<point x="273" y="501" type="curve" smooth="yes"/>
			<point x="152" y="501"/>
			<point x="43" y="407"/>
			<point x="43" y="244" type="curve" smooth="yes"/>
			<point x="43" y="82"/>
			<point x="152" y="-12"/>
			<point x="273" y="-12" type="curve"/>
			<point x="262" y="3" type="line"/>
			<point x="211" y="-25"/>
			<point x="180" y="-74"/>
			<point x="180" y="-121" type="curve" smooth="yes"/>
			<point x="180" y="-186"/>
			<point x="227" y="-216"/>
		</contour>
		<contour>
			<point x="273" y="68" type="curve" smooth="yes"/>
			<point x="195" y="68"/>
			<point x="145" y="138"/>
			<point x="145" y="244" type="curve" smooth="yes"/>
			<point x="145" y="349"/>
			<point x="195" y="419"/>
			<point x="273" y="419" type="curve" smooth="yes"/>
			<point x="351" y="419"/>
			<point x="400" y="349"/>
			<point x="400" y="244" type="curve" smooth="yes"/>
			<point x="400" y="138"/>
			<point x="351" y="68"/>
		</contour>
	</outline>
	<anchor name="aboveLC" x="273" y="512"/>
	<anchor name="belowLC" x="275" y="-222"/>
</glyph>
<glyph name="Astroke" format="2">
	<unicode hex="023A"/>
	<advance width="551"/>
	<outline>
		<contour>
			<point x="191" y="-53" type="line"/>
			<point x="402" y="697" type="line"/>
			<point x="359" y="708" type="line"/>
			<point x="148" y="-42" type="line"/>
		</contour>
		<component base="A"/>
	</outline>
	<anchor name="aboveUC" x="275" y="677"/>
	<anchor name="belowLC" x="275" y="-22"/>
</glyph>
<glyph name="aturned" format="2">
	<unicode hex="0250"/>
	<advance width="510"/>
	<outline>
		<contour>
			<point x="271" y="-12" type="curve" smooth="yes"/>
			<point x="339" y="-12"/>
			<point x="407" y="20"/>
			<point x="456" y="52" type="curve"/>
			<point x="419" y="117" type="line"/>
			<point x="379" y="92"/>
			<point x="331" y="69"/>
			<point x="283" y="69" type="curve" smooth="yes"/>
			<point x="196" y="69"/>
			<point x="170" y="123"/>
			<point x="168" y="177" type="curve"/>
			<point x="373" y="201"/>
			<point x="462" y="261"/>
			<point x="462" y="372" type="curve" smooth="yes"/>
			<point x="462" y="453"/>
			<point x="408" y="501"/>
			<point x="329" y="501" type="curve" smooth="yes"/>
			<point x="263" y="501"/>
			<point x="207" y="471"/>
			<point x="161" y="423" type="curve"/>
			<point x="158" y="423" type="line"/>
			<point x="150" y="489" type="line"/>
			<point x="68" y="489" type="line"/>
			<point x="68" y="201" type="line" smooth="yes"/>
			<point x="68" y="70"/>
			<point x="132" y="-12"/>
		</contour>
		<contour>
			<point x="168" y="246" type="curve"/>
			<point x="168" y="350" type="line"/>
			<point x="212" y="399"/>
			<point x="253" y="422"/>
			<point x="295" y="422" type="curve" smooth="yes"/>
			<point x="334" y="422"/>
			<point x="365" y="402"/>
			<point x="365" y="357" type="curve" smooth="yes"/>
			<point x="365" y="302"/>
			<point x="316" y="266"/>
		</contour>
	</outline>
	<anchor name="aboveLC" x="280" y="512"/>
	<anchor name="belowLC" x="270" y="-22"/>
	<anchor name="ogonekLC" x="270" y="0"/>
</glyph>
<glyph name="alphalatinturned" format="2">
	<unicode hex="0252"/>
	<advance width="568"/>
	<outline>
		<contour>
			<point x="313" y="-12" type="curve" smooth="yes"/>
			<point x="423" y="-12"/>
			<point x="523" y="85"/>
			<point x="523" y="252" type="curve" smooth="yes"/>
			<point x="523" y="403"/>
			<point x="454" y="501"/>
			<point x="330" y="501" type="curve" smooth="yes"/>
			<point x="273" y="501"/>
			<point x="218" y="469"/>
			<point x="176" y="431" type="curve"/>
			<point x="173" y="431" type="line"/>
			<point x="162" y="478"/>
			<point x="133" y="499"/>
			<point x="86" y="499" type="curve" smooth="yes"/>
			<point x="65" y="499"/>
			<point x="47" y="493"/>
			<point x="37" y="489" type="curve"/>
			<point x="49" y="415" type="line"/>
			<point x="57" y="417"/>
			<point x="60" y="417"/>
			<point x="64" y="417" type="curve" smooth="yes"/>
			<point x="77" y="417"/>
			<point x="87" y="407"/>
			<point x="87" y="380" type="curve" smooth="yes"/>
			<point x="87" y="0" type="line"/>
			<point x="166" y="0" type="line"/>
			<point x="174" y="48" type="line"/>
			<point x="177" y="48" type="line"/>
			<point x="221" y="8"/>
			<point x="269" y="-12"/>
		</contour>
		<contour>
			<point x="294" y="70" type="curve" smooth="yes"/>
			<point x="263" y="70"/>
			<point x="225" y="83"/>
			<point x="186" y="116" type="curve"/>
			<point x="186" y="358" type="line"/>
			<point x="228" y="398"/>
			<point x="266" y="418"/>
			<point x="304" y="418" type="curve" smooth="yes"/>
			<point x="387" y="418"/>
			<point x="421" y="353"/>
			<point x="421" y="251" type="curve" smooth="yes"/>
			<point x="421" y="135"/>
			<point x="367" y="70"/>
		</contour>
	</outline>
	<anchor name="aboveLC" x="310" y="512"/>
	<anchor name="belowLC" x="290" y="-22"/>
</glyph>
<glyph name="dhook" format="2">
	<unicode hex="0257"/>
	<advance width="559"/>
	<outline>
		<contour>
			<point x="246" y="-12" type="curve" smooth="yes"/>
			<point x="301" y="-12"/>
			<point x="353" y="18"/>
			<point x="390" y="55" type="curve"/>
			<point x="393" y="55" type="line"/>
			<point x="401" y="0" type="line"/>
			<point x="482" y="0" type="line"/>
			<point x="482" y="556" type="line" smooth="yes"/>
			<point x="482" y="611"/>
			<point x="497" y="643"/>
			<point x="539" y="643" type="curve" smooth="yes"/>
			<point x="550" y="643"/>
			<point x="559" y="641"/>
			<point x="567" y="638" type="curve"/>
			<point x="586" y="712" type="line"/>
			<point x="571" y="718"/>
			<point x="552" y="722"/>
			<point x="527" y="722" type="curve" smooth="yes"/>
			<point x="429" y="722"/>
			<point x="385" y="660"/>
			<point x="386" y="565" type="curve" smooth="yes"/>
			<point x="387" y="446" type="line"/>
			<point x="347" y="480"/>
			<point x="310" y="501"/>
			<point x="254" y="501" type="curve" smooth="yes"/>
			<point x="145" y="501"/>
			<point x="45" y="403"/>
			<point x="45" y="244" type="curve" smooth="yes"/>
			<point x="45" y="82"/>
			<point x="124" y="-12"/>
		</contour>
		<contour>
			<point x="270" y="70" type="curve" smooth="yes"/>
			<point x="192" y="70"/>
			<point x="147" y="133"/>
			<point x="147" y="245" type="curve" smooth="yes"/>
			<point x="147" y="351"/>
			<point x="204" y="418"/>
			<point x="274" y="418" type="curve" smooth="yes"/>
			<point x="310" y="418"/>
			<point x="345" y="406"/>
			<point x="383" y="373" type="curve"/>
			<point x="383" y="131" type="line"/>
			<point x="346" y="90"/>
			<point x="311" y="70"/>
		</contour>
	</outline>
	<anchor name="aboveUC" x="270" y="727"/>
	<anchor name="belowLC" x="280" y="-22"/>
</glyph>
<glyph name="eopen" format="2">
	<unicode hex="025B"/>
	<advance width="436"/>
	<outline>
		<contour>
			<point x="243" y="-12" type="curve" smooth="yes"/>
			<point x="313" y="-12"/>
			<point x="367" y="4"/>
			<point x="416" y="45" type="curve"/>
			<point x="381" y="105" type="line"/>
			<point x="339" y="77"/>
			<point x="300" y="66"/>
			<point x="259" y="66" type="curve" smooth="yes"/>
			<point x="188" y="66"/>
			<point x="143" y="96"/>
			<point x="143" y="143" type="curve" smooth="yes"/>
			<point x="143" y="188"/>
			<point x="181" y="215"/>
			<point x="254" y="215" type="curve" smooth="yes"/>
			<point x="321" y="215" type="line"/>
			<point x="321" y="290" type="line"/>
			<point x="268" y="290" type="line" smooth="yes"/>
			<point x="200" y="290"/>
			<point x="167" y="316"/>
			<point x="167" y="358" type="curve" smooth="yes"/>
			<point x="167" y="400"/>
			<point x="205" y="423"/>
			<point x="256" y="423" type="curve" smooth="yes"/>
			<point x="298" y="423"/>
			<point x="330" y="414"/>
			<point x="365" y="390" type="curve"/>
			<point x="402" y="453" type="line"/>
			<point x="360" y="483"/>
			<point x="310" y="501"/>
			<point x="249" y="501" type="curve" smooth="yes"/>
			<point x="152" y="501"/>
			<point x="69" y="458"/>
			<point x="69" y="368" type="curve" smooth="yes"/>
			<point x="69" y="323"/>
			<point x="98" y="279"/>
			<point x="151" y="261" type="curve"/>
			<point x="151" y="257" type="line"/>
			<point x="93" y="243"/>
			<point x="44" y="203"/>
			<point x="44" y="131" type="curve" smooth="yes"/>
			<point x="44" y="41"/>
			<point x="134" y="-12"/>
		</contour>
	</outline>
	<anchor name="aboveLC" x="245" y="512"/>
	<anchor name="baseLC" x="240" y="0"/>
	<anchor name="belowLC" x="240" y="-22"/>
	<anchor name="ogonekLC" x="245" y="0"/>
</glyph>
<glyph name="eopenreversedclosed" format="2">
	<unicode hex="025E"/>
	<advance width="551"/>
	<outline>
		<contour>
			<point x="286" y="-12" type="curve" smooth="yes"/>
			<point x="414" y="-12"/>
			<point x="504" y="43"/>
			<point x="504" y="136" type="curve" smooth="yes"/>
			<point x="504" y="205"/>
			<point x="454" y="243"/>
			<point x="397" y="257" type="curve"/>
			<point x="397" y="261" type="line"/>
			<point x="450" y="279"/>
			<point x="478" y="323"/>
			<point x="478" y="368" type="curve" smooth="yes"/>
			<point x="478" y="458"/>
			<point x="395" y="501"/>
			<point x="294" y="501" type="curve" smooth="yes"/>
			<point x="160" y="501"/>
			<point x="43" y="405"/>
			<point x="43" y="223" type="curve" smooth="yes"/>
			<point x="43" y="66"/>
			<point x="148" y="-12"/>
		</contour>
		<contour>
			<point x="290" y="66" type="curve" smooth="yes"/>
			<point x="205" y="66"/>
			<point x="144" y="115"/>
			<point x="144" y="228" type="curve" smooth="yes"/>
			<point x="144" y="359"/>
			<point x="208" y="423"/>
			<point x="294" y="423" type="curve" smooth="yes"/>
			<point x="343" y="423"/>
			<point x="380" y="400"/>
			<point x="380" y="356" type="curve" smooth="yes"/>
			<point x="380" y="316"/>
			<point x="349" y="290"/>
			<point x="283" y="290" type="curve" smooth="yes"/>
			<point x="255" y="290" type="line"/>
			<point x="255" y="215" type="line"/>
			<point x="298" y="215" type="line" smooth="yes"/>
			<point x="368" y="215"/>
			<point x="405" y="191"/>
			<point x="405" y="143" type="curve" smooth="yes"/>
			<point x="405" y="98"/>
			<point x="366" y="66"/>
		</contour>
	</outline>
	<anchor name="aboveLC" x="300" y="512"/>
	<anchor name="belowLC" x="280" y="-22"/>
</glyph>
<glyph name="gsmall" format="2">
	<unicode hex="0262"/>
	<advance width="502"/>
	<outline>
		<contour>
			<point x="282" y="-12" type="curve" smooth="yes"/>
			<point x="357" y="-12"/>
			<point x="417" y="16"/>
			<point x="455" y="50" type="curve"/>
			<point x="455" y="274" type="line"/>
			<point x="266" y="274" type="line"/>
			<point x="266" y="198" type="line"/>
			<point x="368" y="198" type="line"/>
			<point x="368" y="94" type="line"/>
			<point x="351" y="79"/>
			<point x="323" y="69"/>
			<point x="289" y="69" type="curve" smooth="yes"/>
			<point x="204" y="69"/>
			<point x="144" y="134"/>
			<point x="144" y="245" type="curve" smooth="yes"/>
			<point x="144" y="358"/>
			<point x="211" y="420"/>
			<point x="291" y="420" type="curve" smooth="yes"/>
			<point x="342" y="420"/>
			<point x="372" y="404"/>
			<point x="399" y="380" type="curve"/>
			<point x="446" y="440" type="line"/>
			<point x="409" y="472"/>
			<point x="364" y="501"/>
			<point x="286" y="501" type="curve" smooth="yes"/>
			<point x="154" y="501"/>
			<point x="43" y="405"/>
			<point x="43" y="245" type="curve" smooth="yes"/>
			<point x="43" y="76"/>
			<point x="150" y="-12"/>
		</contour>
	</outline>
	<anchor name="aboveLC" x="280" y="512"/>
	<anchor name="belowLC" x="275" y="-22"/>
</glyph>
<glyph name="lezh" format="2">
	<unicode hex="026E"/>
	<advance width="583"/>
	<outline>
		<contour>
			<point x="78" y="0" type="line"/>
			<point x="177" y="0" type="line"/>
			<point x="177" y="709" type="line"/>
			<point x="78" y="709" type="line"/>
		</contour>
		<contour>
			<point x="357" y="-212" type="curve" smooth="yes"/>
			<point x="466" y="-212"/>
			<point x="564" y="-132"/>
			<point x="564" y="10" type="curve" smooth="yes"/>
			<point x="564" y="125"/>
			<point x="499" y="219"/>
			<point x="329" y="201" type="curve"/>
			<point x="364" y="183" type="line"/>
			<point x="542" y="436" type="line"/>
			<point x="542" y="489" type="line"/>
			<point x="161" y="489" type="line"/>
			<point x="161" y="409" type="line"/>
			<point x="423" y="409" type="line"/>
			<point x="251" y="166" type="line"/>
			<point x="288" y="114" type="line"/>
			<point x="311" y="124"/>
			<point x="322" y="129"/>
			<point x="350" y="129" type="curve" smooth="yes"/>
			<point x="423" y="129"/>
			<point x="464" y="83"/>
			<point x="464" y="7" type="curve" smooth="yes"/>
			<point x="464" y="-77"/>
			<point x="412" y="-130"/>
			<point x="347" y="-130" type="curve" smooth="yes"/>
			<point x="289" y="-130"/>
			<point x="250" y="-101"/>
			<point x="220" y="-70" type="curve"/>
			<point x="173" y="-133" type="line"/>
			<point x="212" y="-172"/>
			<point x="268" y="-212"/>
		</contour>
	</outline>
	<anchor name="aboveUC" x="227" y="727"/>
	<anchor name="belowLC" x="359" y="-203"/>
</glyph>
<glyph name="nretroflex" format="2">
	<unicode hex="0273"/>
	<advance width="553"/>
	<outline>
		<contour>
			<point x="517" y="-212" type="curve" smooth="yes"/>
			<point x="546" y="-212"/>
			<point x="568" y="-206"/>
			<point x="583" y="-199" type="curve"/>
			<point x="564" y="-124" type="line"/>
			<point x="554" y="-128"/>
			<point x="543" y="-132"/>
			<point x="530" y="-132" type="curve" smooth="yes"/>
			<point x="493" y="-132"/>
			<point x="482" y="-102"/>
			<point x="482" y="-49" type="curve"/>
			<point x="482" y="308" type="line" smooth="yes"/>
			<point x="482" y="432"/>
			<point x="436" y="501"/>
			<point x="332" y="501" type="curve" smooth="yes"/>
			<point x="265" y="501"/>
			<point x="215" y="465"/>
			<point x="170" y="420" type="curve"/>
			<point x="167" y="420" type="line"/>
			<point x="159" y="489" type="line"/>
			<point x="78" y="489" type="line"/>
			<point x="78" y="0" type="line"/>
			<point x="177" y="0" type="line"/>
			<point x="177" y="348" type="line"/>
			<point x="221" y="392"/>
			<point x="252" y="415"/>
			<point x="299" y="415" type="curve" smooth="yes"/>
			<point x="357" y="415"/>
			<point x="383" y="381"/>
			<point x="383" y="295" type="curve" smooth="yes"/>
			<point x="383" y="-48" type="line" smooth="yes"/>
			<point x="383" y="-146"/>
			<point x="418" y="-212"/>
		</contour>
	</outline>
	<anchor name="aboveLC" x="299" y="512"/>
	<anchor name="belowLC" x="280" y="-203"/>
</glyph>
<glyph name="nsmall" format="2">
	<unicode hex="0274"/>
	<advance width="547"/>
	<outline>
		<contour>
			<point x="77" y="0" type="line"/>
			<point x="171" y="0" type="line"/>
			<point x="171" y="186" type="line" smooth="yes"/>
			<point x="171" y="237"/>
			<point x="166" y="303"/>
			<point x="161" y="366" type="curve"/>
			<point x="165" y="366" type="line"/>
			<point x="183" y="319"/>
			<point x="201" y="280"/>
			<point x="218" y="252" type="curve" smooth="yes"/>
			<point x="366" y="0" type="line"/>
			<point x="470" y="0" type="line"/>
			<point x="470" y="489" type="line"/>
			<point x="377" y="489" type="line"/>
			<point x="377" y="303" type="line" smooth="yes"/>
			<point x="377" y="251"/>
			<point x="381" y="185"/>
			<point x="387" y="122" type="curve"/>
			<point x="383" y="122" type="line"/>
			<point x="364" y="170"/>
			<point x="347" y="208"/>
			<point x="328" y="239" type="curve" smooth="yes"/>
			<point x="180" y="489" type="line"/>
			<point x="77" y="489" type="line"/>
		</contour>
	</outline>
	<anchor name="aboveLC" x="280" y="512"/>
	<anchor name="belowLC" x="276" y="-22"/>
</glyph>
<glyph name="rhookturned" format="2">
	<unicode hex="027B"/>
	<advance width="360"/>
	<outline>
		<contour>
			<point x="319" y="-212" type="curve" smooth="yes"/>
			<point x="347" y="-212"/>
			<point x="369" y="-206"/>
			<point x="384" y="-199" type="curve"/>
			<point x="365" y="-124" type="line"/>
			<point x="355" y="-128"/>
			<point x="344" y="-132"/>
			<point x="331" y="-132" type="curve" smooth="yes"/>
			<point x="294" y="-132"/>
			<point x="283" y="-102"/>
			<point x="283" y="-49" type="curve" smooth="yes"/>
			<point x="283" y="489" type="line"/>
			<point x="184" y="489" type="line"/>
			<point x="184" y="183" type="line"/>
			<point x="153" y="104"/>
			<point x="105" y="76"/>
			<point x="64" y="76" type="curve" smooth="yes"/>
			<point x="45" y="76"/>
			<point x="34" y="78"/>
			<point x="19" y="82" type="curve"/>
			<point x="-2" y="-2" type="line"/>
			<point x="13" y="-9"/>
			<point x="28" y="-12"/>
			<point x="52" y="-12" type="curve" smooth="yes"/>
			<point x="106" y="-12"/>
			<point x="157" y="25"/>
			<point x="191" y="88" type="curve"/>
			<point x="194" y="88" type="line"/>
			<point x="194" y="-60" type="line" smooth="yes"/>
			<point x="194" y="-151"/>
			<point x="226" y="-212"/>
		</contour>
	</outline>
	<anchor name="aboveLC" x="229" y="512"/>
	<anchor name="belowLC" x="159" y="-203"/>
</glyph>
<glyph name="rtail" format="2">
	<unicode hex="027D"/>
	<advance width="360"/>
	<outline>
		<contour>
			<point x="212" y="-212" type="curve" smooth="yes"/>
			<point x="240" y="-212"/>
			<point x="263" y="-206"/>
			<point x="278" y="-199" type="curve"/>
			<point x="259" y="-124" type="line"/>
			<point x="249" y="-128"/>
			<point x="237" y="-132"/>
			<point x="225" y="-132" type="curve" smooth="yes"/>
			<point x="188" y="-132"/>
			<point x="177" y="-102"/>
			<point x="177" y="-49" type="curve" smooth="yes"/>
			<point x="177" y="306" type="line"/>
			<point x="208" y="384"/>
			<point x="256" y="412"/>
			<point x="296" y="412" type="curve" smooth="yes"/>
			<point x="316" y="412"/>
			<point x="328" y="409"/>
			<point x="345" y="404" type="curve"/>
			<point x="362" y="491" type="line"/>
			<point x="347" y="498"/>
			<point x="332" y="501"/>
			<point x="309" y="501" type="curve" smooth="yes"/>
			<point x="254" y="501"/>
			<point x="203" y="463"/>
			<point x="170" y="401" type="curve"/>
			<point x="167" y="401" type="line"/>
			<point x="159" y="489" type="line"/>
			<point x="78" y="489" type="line"/>
			<point x="78" y="-48" type="line" smooth="yes"/>
			<point x="78" y="-146"/>
			<point x="112" y="-212"/>
		</contour>
	</outline>
	<anchor name="aboveLC" x="229" y="512"/>
	<anchor name="belowLC" x="180" y="-203"/>
</glyph>
<glyph name="rsmall" format="2">
	<unicode hex="0280"/>
	<advance width="505"/>
	<outline>
		<contour>
			<point x="77" y="0" type="line"/>
			<point x="176" y="0" type="line"/>
			<point x="176" y="184" type="line"/>
			<point x="260" y="184" type="line" smooth="yes"/>
			<point x="353" y="184"/>
			<point x="447" y="227"/>
			<point x="447" y="340" type="curve" smooth="yes"/>
			<point x="447" y="450"/>
			<point x="365" y="489"/>
			<point x="258" y="489" type="curve" smooth="yes"/>
			<point x="77" y="489" type="line"/>
		</contour>
		<contour>
			<point x="176" y="257" type="line"/>
			<point x="176" y="413" type="line"/>
			<point x="243" y="413" type="line" smooth="yes"/>
			<point x="310" y="413"/>
			<point x="349" y="389"/>
			<point x="349" y="337" type="curve" smooth="yes"/>
			<point x="349" y="286"/>
			<point x="310" y="257"/>
			<point x="243" y="257" type="curve" smooth="yes"/>
		</contour>
		<contour>
			<point x="368" y="0" type="line"/>
			<point x="478" y="0" type="line"/>
			<point x="325" y="235" type="line"/>
			<point x="244" y="207" type="line"/>
		</contour>
	</outline>
	<anchor name="aboveLC" x="260" y="512"/>
	<anchor name="belowLC" x="280" y="-22"/>
</glyph>
<glyph name="rsmallinverted" format="2">
	<unicode hex="0281"/>
	<advance width="506"/>
	<outline>
		<contour>
			<point x="77" y="0" type="line"/>
			<point x="258" y="0" type="line" smooth="yes"/>
			<point x="365" y="0"/>
			<point x="447" y="39"/>
			<point x="447" y="151" type="curve" smooth="yes"/>
			<point x="447" y="266"/>
			<point x="353" y="311"/>
			<point x="263" y="311" type="curve" smooth="yes"/>
			<point x="176" y="311" type="line"/>
			<point x="176" y="489" type="line"/>
			<point x="77" y="489" type="line"/>
		</contour>
		<contour>
			<point x="176" y="76" type="line"/>
			<point x="176" y="236" type="line"/>
			<point x="243" y="236" type="line" smooth="yes"/>
			<point x="310" y="236"/>
			<point x="349" y="204"/>
			<point x="349" y="154" type="curve" smooth="yes"/>
			<point x="349" y="100"/>
			<point x="310" y="76"/>
			<point x="243" y="76" type="curve" smooth="yes"/>
		</contour>
		<contour>
			<point x="325" y="255" type="line"/>
			<point x="478" y="489" type="line"/>
			<point x="368" y="489" type="line"/>
			<point x="244" y="283" type="line"/>
		</contour>
	</outline>
	<anchor name="aboveLC" x="279" y="512"/>
	<anchor name="belowLC" x="260" y="-22"/>
</glyph>
<glyph name="esh" format="2">
	<unicode hex="0283"/>
	<advance width="255"/>
	<outline>
		<contour>
			<point x="33" y="-212" type="curve" smooth="yes"/>
			<point x="140" y="-212"/>
			<point x="178" y="-142"/>
			<point x="178" y="-40" type="curve" smooth="yes"/>
			<point x="178" y="550" type="line" smooth="yes"/>
			<point x="178" y="608"/>
			<point x="192" y="642"/>
			<point x="246" y="642" type="curve" smooth="yes"/>
			<point x="258" y="642"/>
			<point x="269" y="639"/>
			<point x="279" y="635" type="curve"/>
			<point x="299" y="708" type="line"/>
			<point x="283" y="715"/>
			<point x="262" y="721"/>
			<point x="233" y="721" type="curve" smooth="yes"/>
			<point x="119" y="721"/>
			<point x="79" y="651"/>
			<point x="79" y="550" type="curve" smooth="yes"/>
			<point x="79" y="-41" type="line" smooth="yes"/>
			<point x="79" y="-99"/>
			<point x="67" y="-132"/>
			<point x="20" y="-132" type="curve" smooth="yes"/>
			<point x="4" y="-132"/>
			<point x="-10" y="-128"/>
			<point x="-23" y="-124" type="curve"/>
			<point x="-43" y="-199" type="line"/>
			<point x="-25" y="-206"/>
			<point x="0" y="-212"/>
		</contour>
	</outline>
	<anchor name="aboveUC" x="194" y="727"/>
	<anchor name="belowLC" x="69" y="-203"/>
</glyph>
<glyph name="dotlessjstrokehook" format="2">
	<unicode hex="0284"/>
	<advance width="303"/>
	<outline>
		<contour>
			<point x="22" y="215" type="line"/>
			<point x="281" y="215" type="line"/>
			<point x="281" y="292" type="line"/>
			<point x="103" y="292" type="line"/>
			<point x="22" y="287" type="line"/>
		</contour>
		<component base="esh" xOffset="25"/>
	</outline>
	<anchor name="aboveUC" x="219" y="727"/>
	<anchor name="belowLC" x="94" y="-203"/>
</glyph>
<glyph name="tretroflex" format="2">
	<unicode hex="0288"/>
	<advance width="350"/>
	<outline>
		<contour>
			<point x="240" y="-212" type="curve" smooth="yes"/>
			<point x="275" y="-212"/>
			<point x="309" y="-203"/>
			<point x="336" y="-194" type="curve"/>
			<point x="318" y="-120" type="line"/>
			<point x="303" y="-126"/>
			<point x="282" y="-132"/>
			<point x="265" y="-132" type="curve" smooth="yes"/>
			<point x="213" y="-132"/>
			<point x="192" y="-101"/>
			<point x="192" y="-42" type="curve" smooth="yes"/>
			<point x="192" y="409" type="line"/>
			<point x="321" y="409" type="line"/>
			<point x="321" y="489" type="line"/>
			<point x="192" y="489" type="line"/>
			<point x="192" y="644" type="line"/>
			<point x="110" y="644" type="line"/>
			<point x="98" y="489" type="line"/>
			<point x="22" y="484" type="line"/>
			<point x="22" y="409" type="line"/>
			<point x="93" y="409" type="line"/>
			<point x="93" y="-42" type="line" smooth="yes"/>
			<point x="93" y="-143"/>
			<point x="132" y="-212"/>
		</contour>
	</outline>
	<anchor name="aboveLC" x="151" y="647"/>
	<anchor name="belowLC" x="219" y="-203"/>
</glyph>
<glyph name="glottalstop" format="2">
	<unicode hex="0294"/>
	<advance width="425"/>
	<outline>
		<contour>
			<point x="142" y="0" type="line"/>
			<point x="241" y="0" type="line"/>
			<point x="241" y="288" type="line"/>
			<point x="336" y="351"/>
			<point x="406" y="417"/>
			<point x="406" y="529" type="curve" smooth="yes"/>
			<point x="406" y="655"/>
			<point x="312" y="721"/>
			<point x="198" y="721" type="curve" smooth="yes"/>
			<point x="105" y="721"/>
			<point x="47" y="679"/>
			<point x="2" y="633" type="curve"/>
			<point x="50" y="574" type="line"/>
			<point x="85" y="609"/>
			<point x="127" y="640"/>
			<point x="189" y="640" type="curve" smooth="yes"/>
			<point x="263" y="640"/>
			<point x="306" y="595"/>
			<point x="306" y="523" type="curve" smooth="yes"/>
			<point x="306" y="444"/>
			<point x="257" y="392"/>
			<point x="142" y="327" type="curve"/>
		</contour>
	</outline>
	<anchor name="aboveUC" x="205" y="727"/>
	<anchor name="belowLC" x="185" y="-22"/>
</glyph>
<glyph name="gsmallhook" format="2">
	<unicode hex="029B"/>
	<advance width="502"/>
	<outline>
		<contour>
			<point x="282" y="-12" type="curve" smooth="yes"/>
			<point x="356" y="-12"/>
			<point x="418" y="15"/>
			<point x="455" y="50" type="curve"/>
			<point x="455" y="271" type="line"/>
			<point x="267" y="271" type="line"/>
			<point x="267" y="202" type="line"/>
			<point x="369" y="202" type="line"/>
			<point x="369" y="92" type="line"/>
			<point x="351" y="76"/>
			<point x="322" y="66"/>
			<point x="290" y="66" type="curve" smooth="yes"/>
			<point x="202" y="66"/>
			<point x="143" y="132"/>
			<point x="143" y="245" type="curve" smooth="yes"/>
			<point x="143" y="360"/>
			<point x="211" y="423"/>
			<point x="292" y="423" type="curve" smooth="yes"/>
			<point x="340" y="423"/>
			<point x="370" y="407"/>
			<point x="400" y="382" type="curve"/>
			<point x="446" y="441" type="line"/>
			<point x="399" y="499"/>
			<point x="379" y="541"/>
			<point x="379" y="585" type="curve" smooth="yes"/>
			<point x="379" y="622"/>
			<point x="397" y="644"/>
			<point x="429" y="644" type="curve" smooth="yes"/>
			<point x="444" y="644"/>
			<point x="453" y="641"/>
			<point x="464" y="636" type="curve"/>
			<point x="484" y="705" type="line"/>
			<point x="466" y="714"/>
			<point x="444" y="721"/>
			<point x="412" y="721" type="curve" smooth="yes"/>
			<point x="344" y="721"/>
			<point x="298" y="681"/>
			<point x="298" y="618" type="curve" smooth="yes"/>
			<point x="298" y="567"/>
			<point x="319" y="518"/>
			<point x="352" y="466" type="curve"/>
			<point x="375" y="479" type="line"/>
			<point x="349" y="494"/>
			<point x="317" y="501"/>
			<point x="286" y="501" type="curve" smooth="yes"/>
			<point x="154" y="501"/>
			<point x="43" y="405"/>
			<point x="43" y="245" type="curve" smooth="yes"/>
			<point x="43" y="76"/>
			<point x="151" y="-12"/>
		</contour>
	</outline>
	<anchor name="aboveLC" x="285" y="727"/>
	<anchor name="belowLC" x="275" y="-22"/>
</glyph>
<glyph name="glottalstopstrokereversed" format="2">
	<unicode hex="02A2"/>
	<advance width="435"/>
	<outline>
		<contour>
			<point x="68" y="128" type="line"/>
			<point x="396" y="128" type="line"/>
			<point x="396" y="204" type="line"/>
			<point x="158" y="204" type="line"/>
			<point x="68" y="199" type="line"/>
		</contour>
		<component base="glottalstopreversed"/>
	</outline>
	<anchor name="aboveUC" x="209" y="727"/>
	<anchor name="belowLC" x="229" y="-22"/>
</glyph>
<glyph name="dzcurl" format="2">
	<unicode hex="02A5"/>
	<advance width="915"/>
	<outline>
		<contour>
			<point x="236" y="-12" type="curve" smooth="yes"/>
			<point x="288" y="-12"/>
			<point x="334" y="19"/>
			<point x="369" y="55" type="curve"/>
			<point x="373" y="55" type="line"/>
			<point x="380" y="0" type="line"/>
			<point x="462" y="0" type="line"/>
			<point x="462" y="709" type="line"/>
			<point x="363" y="709" type="line"/>
			<point x="363" y="526" type="line"/>
			<point x="367" y="445" type="line"/>
			<point x="328" y="478"/>
			<point x="296" y="501"/>
			<point x="244" y="501" type="curve" smooth="yes"/>
			<point x="140" y="501"/>
			<point x="45" y="403"/>
			<point x="45" y="244" type="curve" smooth="yes"/>
			<point x="45" y="82"/>
			<point x="120" y="-12"/>
		</contour>
		<contour>
			<point x="259" y="70" type="curve" smooth="yes"/>
			<point x="188" y="70"/>
			<point x="148" y="134"/>
			<point x="148" y="244" type="curve" smooth="yes"/>
			<point x="148" y="351"/>
			<point x="199" y="418"/>
			<point x="264" y="418" type="curve" smooth="yes"/>
			<point x="297" y="418"/>
			<point x="327" y="405"/>
			<point x="363" y="373" type="curve"/>
			<point x="363" y="131" type="line"/>
			<point x="328" y="91"/>
			<point x="298" y="70"/>
		</contour>
		<contour>
			<point x="705" y="-82" type="line"/>
			<point x="737" y="88"/>
			<point x="782" y="160"/>
			<point x="824" y="160" type="curve" smooth="yes"/>
			<point x="845" y="160"/>
			<point x="855" y="147"/>
			<point x="855" y="129" type="curve" smooth="yes"/>
			<point x="855" y="103"/>
			<point x="828" y="77"/>
			<point x="780" y="77" type="curve" smooth="yes"/>
			<point x="727" y="77"/>
			<point x="676" y="77"/>
			<point x="623" y="80" type="curve"/>
			<point x="819" y="436" type="line"/>
			<point x="819" y="489" type="line"/>
			<point x="453" y="489" type="line"/>
			<point x="453" y="410" type="line"/>
			<point x="706" y="410" type="line"/>
			<point x="510" y="53" type="line"/>
			<point x="510" y="0" type="line"/>
			<point x="579" y="-2"/>
			<point x="678" y="-3"/>
			<point x="749" y="-3" type="curve" smooth="yes"/>
			<point x="868" y="-3"/>
			<point x="922" y="57"/>
			<point x="922" y="129" type="curve" smooth="yes"/>
			<point x="922" y="188"/>
			<point x="886" y="225"/>
			<point x="828" y="225" type="curve" smooth="yes"/>
			<point x="729" y="225"/>
			<point x="673" y="111"/>
			<point x="635" y="-71" type="curve"/>
		</contour>
	</outline>
	<anchor name="aboveUC" x="415" y="727"/>
	<anchor name="belowLC" x="468" y="-73"/>
</glyph>
<glyph name="hhook.sups" format="2">
	<unicode hex="02B1"/>
	<advance width="371"/>
	<outline>
		<contour>
			<point x="49" y="390" type="line"/>
			<point x="122" y="390" type="line"/>
			<point x="122" y="616" type="line"/>
			<point x="151" y="645"/>
			<point x="175" y="659"/>
			<point x="199" y="659" type="curve" smooth="yes"/>
			<point x="245" y="659"/>
			<point x="255" y="631"/>
			<point x="255" y="583" type="curve" smooth="yes"/>
			<point x="255" y="390" type="line"/>
			<point x="327" y="390" type="line"/>
			<point x="327" y="593" type="line" smooth="yes"/>
			<point x="327" y="669"/>
			<point x="300" y="721"/>
			<point x="225" y="721" type="curve" smooth="yes"/>
			<point x="181" y="721"/>
			<point x="144" y="696"/>
			<point x="118" y="669" type="curve"/>
			<point x="121" y="745" type="line" smooth="yes"/>
			<point x="123" y="786"/>
			<point x="141" y="811"/>
			<point x="178" y="811" type="curve" smooth="yes"/>
			<point x="193" y="811"/>
			<point x="206" y="809"/>
			<point x="215" y="806" type="curve"/>
			<point x="230" y="858" type="line"/>
			<point x="213" y="865"/>
			<point x="194" y="869"/>
			<point x="170" y="869" type="curve" smooth="yes"/>
			<point x="85" y="869"/>
			<point x="49" y="811"/>
			<point x="49" y="737" type="curve" smooth="yes"/>
		</contour>
	</outline>
</glyph>
<glyph name="commareversedmod" format="2">
	<unicode hex="02BD"/>
	<advance width="269"/>
	<outline>
		<contour>
			<point x="177" y="418" type="curve"/>
			<point x="204" y="468" type="line"/>
			<point x="138" y="498"/>
			<point x="112" y="545"/>
			<point x="112" y="585" type="curve" smooth="yes"/>
			<point x="112" y="600"/>
			<point x="115" y="612"/>
			<point x="122" y="621" type="curve"/>
			<point x="108" y="621" type="line"/>
			<point x="118" y="606"/>
			<point x="137" y="597"/>
			<point x="157" y="597" type="curve" smooth="yes"/>
			<point x="187" y="597"/>
			<point x="218" y="617"/>
			<point x="218" y="655" type="curve" smooth="yes"/>
			<point x="218" y="695"/>
			<point x="186" y="721"/>
			<point x="146" y="721" type="curve" smooth="yes"/>
			<point x="89" y="721"/>
			<point x="42" y="678"/>
			<point x="42" y="598" type="curve" smooth="yes"/>
			<point x="42" y="523"/>
			<point x="77" y="456"/>
		</contour>
	</outline>
</glyph>
<glyph name="colontriangularhalfmod" format="2">
	<unicode hex="02D1"/>
	<advance width="262"/>
	<outline>
		<contour>
			<point x="125" y="335" type="line"/>
			<point x="137" y="335" type="line"/>
			<point x="214" y="489" type="line"/>
			<point x="48" y="489" type="line"/>
		</contour>
	</outline>
</glyph>
<glyph name="ringcmb" format="2">
	<unicode hex="030A"/>
	<outline>
		<contour>
			<point x="0" y="557" type="curve" smooth="yes"/>
			<point x="72" y="557"/>
			<point x="115" y="600"/>
			<point x="115" y="657" type="curve" smooth="yes"/>
			<point x="115" y="713"/>
			<point x="72" y="756"/>
			<point x="0" y="756" type="curve" smooth="yes"/>
			<point x="-72" y="756"/>
			<point x="-115" y="713"/>
			<point x="-115" y="657" type="curve" smooth="yes"/>
			<point x="-115" y="600"/>
			<point x="-72" y="557"/>
		</contour>
		<contour>
			<point x="0" y="598" type="curve" smooth="yes"/>
			<point x="-30" y="598"/>
			<point x="-53" y="621"/>
			<point x="-53" y="657" type="curve" smooth="yes"/>
			<point x="-53" y="692"/>
			<point x="-30" y="715"/>
			<point x="0" y="715" type="curve" smooth="yes"/>
			<point x="30" y="715"/>
			<point x="53" y="692"/>
			<point x="53" y="657" type="curve" smooth="yes"/>
			<point x="53" y="621"/>
			<point x="30" y="598"/>
		</contour>
	</outline>
	<anchor name="_aboveLC" x="0" y="512"/>
	<anchor name="aboveLC" x="0" y="752"/>
</glyph>
<glyph name="dblgravecmb" format="2">
	<unicode hex="030F"/>
	<outline>
		<contour>
			<point x="-103" y="571" type="line"/>
			<point x="-45" y="571" type="line"/>
			<point x="-129" y="742" type="line"/>
			<point x="-208" y="742" type="line"/>
			<point x="-214" y="732" type="line"/>
		</contour>
		<contour>
			<point x="62" y="571" type="line"/>
			<point x="119" y="571" type="line"/>
			<point x="36" y="742" type="line"/>
			<point x="-44" y="742" type="line"/>
			<point x="-50" y="732" type="line"/>
		</contour>
	</outline>
	<anchor name="_aboveLC" x="0" y="512"/>
</glyph>
<glyph name="commaabovecmb" format="2">
	<unicode hex="0313"/>
	<outline>
		<contour>
			<point x="-33" y="560" type="line"/>
			<point x="38" y="587"/>
			<point x="69" y="632"/>
			<point x="69" y="693" type="curve" smooth="yes"/>
			<point x="69" y="743"/>
			<point x="39" y="774"/>
			<point x="-5" y="774" type="curve" smooth="yes"/>
			<point x="-40" y="774"/>
			<point x="-67" y="754"/>
			<point x="-67" y="721" type="curve" smooth="yes"/>
			<point x="-67" y="690"/>
			<point x="-42" y="673"/>
			<point x="-18" y="673" type="curve" smooth="yes"/>
			<point x="-2" y="673"/>
			<point x="8" y="677"/>
			<point x="16" y="684" type="curve"/>
			<point x="16" y="645"/>
			<point x="-4" y="620"/>
			<point x="-53" y="600" type="curve"/>
		</contour>
	</outline>
	<anchor name="_aboveLC" x="0" y="512"/>
</glyph>
<glyph name="ringhalfleftbelowcmb" format="2">
	<unicode hex="031C"/>
	<outline>
		<contour>
			<point x="69" y="-255" type="curve"/>
			<point x="69" y="-214" type="line"/>
			<point x="16" y="-215"/>
			<point x="-6" y="-191"/>
			<point x="-6" y="-155" type="curve" smooth="yes"/>
			<point x="-6" y="-120"/>
			<point x="16" y="-96"/>
			<point x="69" y="-97" type="curve"/>
			<point x="69" y="-55" type="line"/>
			<point x="-29" y="-51"/>
			<point x="-75" y="-89"/>
			<point x="-75" y="-155" type="curve" smooth="yes"/>
			<point x="-75" y="-221"/>
			<point x="-29" y="-259"/>
		</contour>
	</outline>
	<anchor name="_belowLC" x="0" y="-22"/>
</glyph>
<glyph name="commabelowcmb" format="2">
	<unicode hex="0326"/>
	<outline>
		<contour>
			<point x="-91" y="-230" type="line"/>
			<point x="20" y="-225"/>
			<point x="82" y="-196"/>
			<point x="82" y="-135" type="curve" smooth="yes"/>
			<point x="82" y="-89"/>
			<point x="52" y="-66"/>
			<point x="-41" y="-56" type="curve"/>
			<point x="-61" y="-99" type="line"/>
			<point x="-15" y="-103"/>
			<point x="8" y="-115"/>
			<point x="8" y="-139" type="curve" smooth="yes"/>
			<point x="8" y="-165"/>
			<point x="-17" y="-179"/>
			<point x="-99" y="-184" type="curve"/>
		</contour>
	</outline>
	<anchor name="_belowLC" x="0" y="-22"/>
</glyph>
<glyph name="breveinverteddoublecmb" format="2">
	<unicode hex="0361"/>
	<outline>
		<contour>
			<point x="-427" y="546" type="line"/>
			<point x="-299" y="623"/>
			<point x="-140" y="654"/>
			<point x="0" y="654" type="curve" smooth="yes"/>
			<point x="140" y="654"/>
			<point x="299" y="623"/>
			<point x="427" y="546" type="curve"/>
			<point x="455" y="595" type="line"/>
			<point x="320" y="678"/>
			<point x="166" y="721"/>
			<point x="0" y="721" type="curve" smooth="yes"/>
			<point x="-166" y="721"/>
			<point x="-320" y="678"/>
			<point x="-455" y="595" type="curve"/>
		</contour>
	</outline>
</glyph>
<glyph name="numeralsign" format="2">
	<unicode hex="0374"/>
	<advance width="262"/>
	<outline>
		<contour>
			<point x="82" y="433" type="line"/>
			<point x="147" y="433" type="line"/>
			<point x="184" y="588" type="line"/>
			<point x="201" y="689" type="line"/>
			<point x="103" y="689" type="line"/>
		</contour>
	</outline>
</glyph>
<glyph name="Sigma" format="2">
	<unicode hex="03A3"/>
	<advance width="541"/>
	<outline>
		<contour>
			<point x="42" y="0" type="line"/>
			<point x="505" y="0" type="line"/>
			<point x="505" y="84" type="line"/>
			<point x="169" y="84" type="line"/>
			<point x="363" y="334" type="line"/>
			<point x="172" y="571" type="line"/>
			<point x="475" y="571" type="line"/>
			<point x="475" y="655" type="line"/>
			<point x="46" y="655" type="line"/>
			<point x="46" y="595" type="line"/>
			<point x="262" y="332" type="line"/>
			<point x="42" y="60" type="line"/>
		</contour>
	</outline>
</glyph>
<glyph name="delta" format="2">
	<unicode hex="03B4"/>
	<advance width="535"/>
	<outline>
		<contour>
			<point x="270" y="-12" type="curve" smooth="yes"/>
			<point x="406" y="-12"/>
			<point x="490" y="84"/>
			<point x="490" y="225" type="curve" smooth="yes"/>
			<point x="490" y="353"/>
			<point x="434" y="419"/>
			<point x="328" y="473" type="curve" smooth="yes"/>
			<point x="244" y="516"/>
			<point x="189" y="559"/>
			<point x="189" y="599" type="curve" smooth="yes"/>
			<point x="189" y="627"/>
			<point x="210" y="646"/>
			<point x="260" y="646" type="curve" smooth="yes"/>
			<point x="308" y="646"/>
			<point x="369" y="633"/>
			<point x="449" y="605" type="curve"/>
			<point x="472" y="679" type="line"/>
			<point x="397" y="706"/>
			<point x="324" y="721"/>
			<point x="261" y="721" type="curve" smooth="yes"/>
			<point x="147" y="721"/>
			<point x="95" y="671"/>
			<point x="95" y="607" type="curve" smooth="yes"/>
			<point x="95" y="526"/>
			<point x="165" y="464"/>
			<point x="249" y="425" type="curve" smooth="yes"/>
			<point x="338" y="384"/>
			<point x="393" y="330"/>
			<point x="393" y="225" type="curve" smooth="yes"/>
			<point x="393" y="128"/>
			<point x="349" y="69"/>
			<point x="272" y="69" type="curve" smooth="yes"/>
			<point x="199" y="69"/>
			<point x="145" y="127"/>
			<point x="145" y="226" type="curve" smooth="yes"/>
			<point x="145" y="317"/>
			<point x="205" y="397"/>
			<point x="289" y="403" type="curve"/>
			<point x="242" y="459" type="line"/>
			<point x="146" y="453"/>
			<point x="49" y="350"/>
			<point x="49" y="224" type="curve" smooth="yes"/>
			<point x="49" y="73"/>
			<point x="149" y="-12"/>
		</contour>
	</outline>
	<anchor name="aboveUC" x="290" y="727"/>
	<anchor name="belowLC" x="265" y="-22"/>
</glyph>
<glyph name="epsilon" format="2">
	<unicode hex="03B5"/>
	<advance width="454"/>
	<outline>
		<contour>
			<point x="256" y="-12" type="curve" smooth="yes"/>
			<point x="323" y="-12"/>
			<point x="374" y="3"/>
			<point x="434" y="49" type="curve"/>
			<point x="394" y="113" type="line"/>
			<point x="349" y="79"/>
			<point x="308" y="66"/>
			<point x="265" y="66" type="curve" smooth="yes"/>
			<point x="186" y="66"/>
			<point x="141" y="96"/>
			<point x="141" y="144" type="curve" smooth="yes"/>
			<point x="141" y="191"/>
			<point x="180" y="215"/>
			<point x="258" y="215" type="curve" smooth="yes"/>
			<point x="280" y="215"/>
			<point x="304" y="215"/>
			<point x="329" y="212" type="curve"/>
			<point x="329" y="294" type="line"/>
			<point x="305" y="292"/>
			<point x="285" y="290"/>
			<point x="266" y="290" type="curve" smooth="yes"/>
			<point x="198" y="290"/>
			<point x="165" y="316"/>
			<point x="165" y="356" type="curve" smooth="yes"/>
			<point x="165" y="400"/>
			<point x="206" y="423"/>
			<point x="263" y="423" type="curve" smooth="yes"/>
			<point x="307" y="423"/>
			<point x="345" y="410"/>
			<point x="382" y="383" type="curve"/>
			<point x="421" y="447" type="line"/>
			<point x="376" y="481"/>
			<point x="318" y="501"/>
			<point x="259" y="501" type="curve" smooth="yes"/>
			<point x="157" y="501"/>
			<point x="69" y="458"/>
			<point x="69" y="368" type="curve" smooth="yes"/>
			<point x="69" y="323"/>
			<point x="93" y="279"/>
			<point x="147" y="261" type="curve"/>
			<point x="147" y="257" type="line"/>
			<point x="90" y="243"/>
			<point x="44" y="203"/>
			<point x="44" y="131" type="curve" smooth="yes"/>
			<point x="44" y="43"/>
			<point x="134" y="-12"/>
		</contour>
	</outline>
	<anchor name="aboveLC" x="251" y="512"/>
</glyph>
<glyph name="iota" format="2">
	<unicode hex="03B9"/>
	<advance width="272"/>
	<outline>
		<contour>
			<point x="183" y="-10" type="curve" smooth="yes"/>
			<point x="214" y="-10"/>
			<point x="233" y="-4"/>
			<point x="249" y="3" type="curve"/>
			<point x="236" y="78" type="line"/>
			<point x="225" y="74"/>
			<point x="215" y="72"/>
			<point x="206" y="72" type="curve" smooth="yes"/>
			<point x="184" y="72"/>
			<point x="171" y="83"/>
			<point x="171" y="111" type="curve" smooth="yes"/>
			<point x="171" y="218"/>
			<point x="175" y="361"/>
			<point x="178" y="489" type="curve"/>
			<point x="78" y="489" type="line"/>
			<point x="78" y="117" type="line" smooth="yes"/>
			<point x="78" y="37"/>
			<point x="104" y="-10"/>
		</contour>
	</outline>
	<anchor name="aboveLC" x="127" y="512"/>
	<anchor name="belowLC" x="159" y="-22"/>
</glyph>
<glyph name="kappa" format="2">
	<unicode hex="03BA"/>
	<advance width="507"/>
	<outline>
		<contour>
			<point x="78" y="0" type="line"/>
			<point x="171" y="0" type="line"/>
			<point x="171" y="26" type="line" smooth="yes"/>
			<point x="171" y="93"/>
			<point x="182" y="143"/>
			<point x="213" y="182" type="curve" smooth="yes"/>
			<point x="315" y="313"/>
			<point x="394" y="383"/>
			<point x="474" y="408" type="curve"/>
			<point x="465" y="501" type="line"/>
			<point x="358" y="477"/>
			<point x="255" y="365"/>
			<point x="179" y="236" type="curve"/>
			<point x="175" y="236" type="line"/>
			<point x="175" y="373" type="line" smooth="yes"/>
			<point x="175" y="417"/>
			<point x="173" y="461"/>
			<point x="166" y="489" type="curve"/>
			<point x="68" y="489" type="line"/>
			<point x="77" y="443"/>
			<point x="78" y="389"/>
			<point x="78" y="350" type="curve" smooth="yes"/>
		</contour>
		<contour>
			<point x="401" y="-9" type="curve"/>
			<point x="511" y="0" type="line"/>
			<point x="438" y="80"/>
			<point x="356" y="205"/>
			<point x="307" y="303" type="curve"/>
			<point x="243" y="239" type="line"/>
			<point x="289" y="146"/>
			<point x="350" y="50"/>
		</contour>
	</outline>
	<anchor name="aboveLC" x="275" y="512"/>
	<anchor name="belowLC" x="285" y="-22"/>
</glyph>
<glyph name="omicron" format="2">
	<unicode hex="03BF"/>
	<advance width="539"/>
	<outline>
		<contour>
			<point x="270" y="-12" type="curve" smooth="yes"/>
			<point x="393" y="-12"/>
			<point x="496" y="81"/>
			<point x="496" y="244" type="curve" smooth="yes"/>
			<point x="496" y="408"/>
			<point x="393" y="501"/>
			<point x="270" y="501" type="curve" smooth="yes"/>
			<point x="147" y="501"/>
			<point x="43" y="408"/>
			<point x="43" y="244" type="curve" smooth="yes"/>
			<point x="43" y="81"/>
			<point x="147" y="-12"/>
		</contour>
		<contour>
			<point x="270" y="69" type="curve" smooth="yes"/>
			<point x="190" y="69"/>
			<point x="145" y="138"/>
			<point x="145" y="244" type="curve" smooth="yes"/>
			<point x="145" y="350"/>
			<point x="190" y="419"/>
			<point x="270" y="419" type="curve" smooth="yes"/>
			<point x="349" y="419"/>
			<point x="394" y="350"/>
			<point x="394" y="244" type="curve" smooth="yes"/>
			<point x="394" y="138"/>
			<point x="349" y="69"/>
		</contour>
	</outline>
	<anchor name="aboveLC" x="270" y="512"/>
	<anchor name="belowLC" x="270" y="-22"/>
</glyph>
<glyph name="tau" format="2">
	<unicode hex="03C4"/>
	<advance width="466"/>
	<outline>
		<contour>
			<point x="293" y="-10" type="curve" smooth="yes"/>
			<point x="327" y="-10"/>
			<point x="358" y="-3"/>
			<point x="380" y="4" type="curve"/>
			<point x="366" y="80" type="line"/>
			<point x="349" y="75"/>
			<point x="333" y="72"/>
			<point x="317" y="72" type="curve" smooth="yes"/>
			<point x="291" y="72"/>
			<point x="277" y="85"/>
			<point x="277" y="119" type="curve" smooth="yes"/>
			<point x="277" y="206"/>
			<point x="278" y="306"/>
			<point x="281" y="409" type="curve"/>
			<point x="442" y="409" type="line"/>
			<point x="442" y="489" type="line"/>
			<point x="95" y="489" type="line"/>
			<point x="24" y="484" type="line"/>
			<point x="24" y="409" type="line"/>
			<point x="184" y="409" type="line"/>
			<point x="184" y="125" type="line" smooth="yes"/>
			<point x="184" y="39"/>
			<point x="211" y="-10"/>
		</contour>
	</outline>
	<anchor name="aboveLC" x="244" y="512"/>
	<anchor name="belowLC" x="275" y="-22"/>
</glyph>
<glyph name="chi" format="2">
	<unicode hex="03C7"/>
	<advance width="493"/>
	<outline>
		<contour>
			<point x="110" y="-190" type="line"/>
			<point x="248" y="83" type="line"/>
			<point x="252" y="83" type="line"/>
			<point x="404" y="-190" type="line"/>
			<point x="501" y="-166" type="line"/>
			<point x="299" y="166" type="line"/>
			<point x="471" y="489" type="line"/>
			<point x="367" y="489" type="line"/>
			<point x="252" y="252" type="line"/>
			<point x="248" y="252" type="line"/>
			<point x="109" y="501" type="line"/>
			<point x="11" y="477" type="line"/>
			<point x="201" y="164" type="line"/>
			<point x="9" y="-178" type="line"/>
		</contour>
	</outline>
	<anchor name="aboveLC" x="249" y="512"/>
	<anchor name="belowLC" x="254" y="-182"/>
</glyph>
<glyph name="omega" format="2">
	<unicode hex="03C9"/>
	<advance width="713"/>
	<outline>
		<contour>
			<point x="207" y="-12" type="curve" smooth="yes"/>
			<point x="279" y="-12"/>
			<point x="336" y="32"/>
			<point x="353" y="123" type="curve"/>
			<point x="357" y="123" type="line"/>
			<point x="373" y="32"/>
			<point x="436" y="-12"/>
			<point x="502" y="-12" type="curve" smooth="yes"/>
			<point x="607" y="-12"/>
			<point x="664" y="79"/>
			<point x="664" y="233" type="curve" smooth="yes"/>
			<point x="664" y="335"/>
			<point x="633" y="424"/>
			<point x="582" y="501" type="curve"/>
			<point x="492" y="465" type="line"/>
			<point x="545" y="384"/>
			<point x="564" y="316"/>
			<point x="564" y="232" type="curve" smooth="yes"/>
			<point x="564" y="126"/>
			<point x="533" y="69"/>
			<point x="483" y="69" type="curve" smooth="yes"/>
			<point x="439" y="69"/>
			<point x="399" y="106"/>
			<point x="399" y="224" type="curve" smooth="yes"/>
			<point x="399" y="262"/>
			<point x="403" y="294"/>
			<point x="408" y="344" type="curve"/>
			<point x="301" y="344" type="line"/>
			<point x="307" y="294"/>
			<point x="310" y="262"/>
			<point x="310" y="224" type="curve" smooth="yes"/>
			<point x="310" y="111"/>
			<point x="269" y="69"/>
			<point x="224" y="69" type="curve" smooth="yes"/>
			<point x="173" y="69"/>
			<point x="142" y="127"/>
			<point x="142" y="220" type="curve" smooth="yes"/>
			<point x="142" y="303"/>
			<point x="171" y="383"/>
			<point x="224" y="462" type="curve"/>
			<point x="133" y="501" type="line"/>
			<point x="83" y="426"/>
			<point x="48" y="320"/>
			<point x="48" y="228" type="curve" smooth="yes"/>
			<point x="48" y="78"/>
			<point x="113" y="-12"/>
		</contour>
	</outline>
	<anchor name="aboveLC" x="354" y="512"/>
	<anchor name="belowLC" x="354" y="-22"/>
</glyph>
<glyph name="beta.a" format="2">
	<unicode hex="03D0"/>
	<advance width="565"/>
	<outline>
		<contour>
			<point x="303" y="-12" type="curve" smooth="yes"/>
			<point x="426" y="-12"/>
			<point x="526" y="64"/>
			<point x="526" y="195" type="curve" smooth="yes"/>
			<point x="526" y="294"/>
			<point x="462" y="370"/>
			<point x="359" y="380" type="curve"/>
			<point x="359" y="384" type="line"/>
			<point x="432" y="418"/>
			<point x="468" y="476"/>
			<point x="468" y="547" type="curve" smooth="yes"/>
			<point x="468" y="660"/>
			<point x="384" y="721"/>
			<point x="286" y="721" type="curve" smooth="yes"/>
			<point x="143" y="721"/>
			<point x="73" y="616"/>
			<point x="73" y="470" type="curve" smooth="yes"/>
			<point x="73" y="221" type="line" smooth="yes"/>
			<point x="73" y="48"/>
			<point x="191" y="-12"/>
		</contour>
		<contour>
			<point x="305" y="71" type="curve" smooth="yes"/>
			<point x="247" y="71"/>
			<point x="167" y="107"/>
			<point x="167" y="239" type="curve" smooth="yes"/>
			<point x="167" y="312"/>
			<point x="167" y="369"/>
			<point x="170" y="469" type="curve" smooth="yes"/>
			<point x="172" y="583"/>
			<point x="212" y="639"/>
			<point x="282" y="639" type="curve" smooth="yes"/>
			<point x="330" y="639"/>
			<point x="369" y="608"/>
			<point x="369" y="539" type="curve" smooth="yes"/>
			<point x="369" y="459"/>
			<point x="315" y="401"/>
			<point x="127" y="371" type="curve"/>
			<point x="141" y="288" type="line"/>
			<point x="231" y="315"/>
			<point x="271" y="324"/>
			<point x="297" y="324" type="curve" smooth="yes"/>
			<point x="388" y="324"/>
			<point x="427" y="265"/>
			<point x="427" y="197" type="curve" smooth="yes"/>
			<point x="427" y="118"/>
			<point x="375" y="71"/>
		</contour>
	</outline>
</glyph>
<glyph name="theta.a" format="2">
	<unicode hex="03D1"/>
	<advance width="529"/>
	<outline>
		<contour>
			<point x="258" y="-12" type="curve" smooth="yes"/>
			<point x="391" y="-12"/>
			<point x="472" y="89"/>
			<point x="472" y="360" type="curve" smooth="yes"/>
			<point x="472" y="595"/>
			<point x="399" y="721"/>
			<point x="259" y="721" type="curve" smooth="yes"/>
			<point x="149" y="721"/>
			<point x="63" y="613"/>
			<point x="63" y="497" type="curve" smooth="yes"/>
			<point x="63" y="361"/>
			<point x="122" y="310"/>
			<point x="380" y="310" type="curve"/>
			<point x="381" y="386" type="line"/>
			<point x="194" y="386"/>
			<point x="156" y="412"/>
			<point x="156" y="500" type="curve" smooth="yes"/>
			<point x="156" y="571"/>
			<point x="200" y="640"/>
			<point x="262" y="640" type="curve" smooth="yes"/>
			<point x="331" y="640"/>
			<point x="376" y="569"/>
			<point x="376" y="360" type="curve" smooth="yes"/>
			<point x="376" y="123"/>
			<point x="328" y="69"/>
			<point x="265" y="69" type="curve" smooth="yes"/>
			<point x="217" y="69"/>
			<point x="182" y="98"/>
			<point x="163" y="183" type="curve" smooth="yes"/>
			<point x="155" y="225"/>
			<point x="146" y="257"/>
			<point x="134" y="274" type="curve"/>
			<point x="44" y="254" type="line"/>
			<point x="59" y="227"/>
			<point x="65" y="200"/>
			<point x="76" y="151" type="curve" smooth="yes"/>
			<point x="101" y="40"/>
			<point x="159" y="-12"/>
		</contour>
	</outline>
	<anchor name="aboveUC" x="265" y="727"/>
</glyph>
<glyph name="digamma" format="2">
	<unicode hex="03DD"/>
	<advance width="418"/>
	<outline>
		<contour>
			<point x="78" y="-178" type="line"/>
			<point x="178" y="-178" type="line"/>
			<point x="175" y="-66"/>
			<point x="173" y="28"/>
			<point x="173" y="135" type="curve"/>
			<point x="372" y="135" type="line"/>
			<point x="372" y="211" type="line"/>
			<point x="172" y="211" type="line"/>
			<point x="170" y="409" type="line"/>
			<point x="392" y="409" type="line"/>
			<point x="392" y="489" type="line"/>
			<point x="78" y="489" type="line"/>
		</contour>
	</outline>
	<anchor name="aboveLC" x="250" y="512"/>
	<anchor name="belowLC" x="182" y="-182"/>
</glyph>
<glyph name="Lje" format="2">
	<unicode hex="0409"/>
	<advance width="900"/>
	<outline>
		<contour>
			<point x="59" y="-10" type="curve" smooth="yes"/>
			<point x="145" y="-10"/>
			<point x="187" y="39"/>
			<point x="231" y="243" type="curve" smooth="yes"/>
			<point x="256" y="352"/>
			<point x="275" y="458"/>
			<point x="291" y="571" type="curve"/>
			<point x="431" y="571" type="line"/>
			<point x="431" y="0" type="line"/>
			<point x="612" y="0" type="line" smooth="yes"/>
			<point x="758" y="0"/>
			<point x="857" y="60"/>
			<point x="857" y="205" type="curve" smooth="yes"/>
			<point x="857" y="339"/>
			<point x="757" y="394"/>
			<point x="612" y="394" type="curve" smooth="yes"/>
			<point x="531" y="394" type="line"/>
			<point x="531" y="655" type="line"/>
			<point x="213" y="655" type="line"/>
			<point x="193" y="516"/>
			<point x="169" y="387"/>
			<point x="138" y="254" type="curve" smooth="yes"/>
			<point x="103" y="104"/>
			<point x="80" y="85"/>
			<point x="45" y="85" type="curve" smooth="yes"/>
			<point x="34" y="85"/>
			<point x="26" y="87"/>
			<point x="17" y="90" type="curve"/>
			<point x="-3" y="-1" type="line"/>
			<point x="16" y="-7"/>
			<point x="34" y="-10"/>
		</contour>
		<contour>
			<point x="531" y="80" type="line"/>
			<point x="531" y="314" type="line"/>
			<point x="600" y="314" type="line" smooth="yes"/>
			<point x="706" y="314"/>
			<point x="759" y="279"/>
			<point x="759" y="203" type="curve" smooth="yes"/>
			<point x="759" y="117"/>
			<point x="704" y="80"/>
			<point x="602" y="80" type="curve" smooth="yes"/>
		</contour>
	</outline>
</glyph>
<glyph name="Nje" format="2">
	<unicode hex="040A"/>
	<advance width="930"/>
	<outline>
		<contour>
			<point x="86" y="0" type="line"/>
			<point x="186" y="0" type="line"/>
			<point x="186" y="299" type="line"/>
			<point x="461" y="299" type="line"/>
			<point x="461" y="0" type="line"/>
			<point x="642" y="0" type="line" smooth="yes"/>
			<point x="788" y="0"/>
			<point x="888" y="60"/>
			<point x="888" y="205" type="curve" smooth="yes"/>
			<point x="888" y="339"/>
			<point x="787" y="394"/>
			<point x="642" y="394" type="curve" smooth="yes"/>
			<point x="561" y="394" type="line"/>
			<point x="561" y="655" type="line"/>
			<point x="461" y="655" type="line"/>
			<point x="461" y="386" type="line"/>
			<point x="186" y="386" type="line"/>
			<point x="186" y="655" type="line"/>
			<point x="86" y="655" type="line"/>
		</contour>
		<contour>
			<point x="561" y="80" type="line"/>
			<point x="561" y="314" type="line"/>
			<point x="630" y="314" type="line" smooth="yes"/>
			<point x="736" y="314"/>
			<point x="790" y="279"/>
			<point x="790" y="203" type="curve" smooth="yes"/>
			<point x="790" y="117"/>
			<point x="734" y="80"/>
			<point x="632" y="80" type="curve" smooth="yes"/>
		</contour>
	</outline>
</glyph>
<glyph name="Tshe" format="2">
	<unicode hex="040B"/>
	<advance width="701"/>
	<outline>
		<contour>
			<point x="201" y="0" type="line"/>
			<point x="301" y="0" type="line"/>
			<point x="301" y="312" type="line"/>
			<point x="328" y="317"/>
			<point x="367" y="321"/>
			<point x="401" y="321" type="curve" smooth="yes"/>
			<point x="494" y="321"/>
			<point x="538" y="284"/>
			<point x="538" y="192" type="curve" smooth="yes"/>
			<point x="538" y="0" type="line"/>
			<point x="636" y="0" type="line"/>
			<point x="636" y="192" type="line" smooth="yes"/>
			<point x="636" y="342"/>
			<point x="555" y="403"/>
			<point x="411" y="403" type="curve" smooth="yes"/>
			<point x="373" y="403"/>
			<point x="334" y="399"/>
			<point x="301" y="394" type="curve"/>
			<point x="301" y="571" type="line"/>
			<point x="524" y="571" type="line"/>
			<point x="524" y="655" type="line"/>
			<point x="27" y="655" type="line"/>
			<point x="27" y="571" type="line"/>
			<point x="201" y="571" type="line"/>
		</contour>
	</outline>
</glyph>
<glyph name="Be" format="2">
	<unicode hex="0411"/>
	<advance width="585"/>
	<outline>
		<contour>
			<point x="86" y="0" type="line"/>
			<point x="307" y="0" type="line" smooth="yes"/>
			<point x="449" y="0"/>
			<point x="545" y="61"/>
			<point x="545" y="201" type="curve" smooth="yes"/>
			<point x="545" y="335"/>
			<point x="442" y="384"/>
			<point x="303" y="384" type="curve" smooth="yes"/>
			<point x="186" y="384" type="line"/>
			<point x="186" y="571" type="line"/>
			<point x="502" y="571" type="line"/>
			<point x="502" y="655" type="line"/>
			<point x="86" y="655" type="line"/>
		</contour>
		<contour>
			<point x="186" y="79" type="line"/>
			<point x="186" y="309" type="line"/>
			<point x="291" y="309" type="line" smooth="yes"/>
			<point x="394" y="309"/>
			<point x="447" y="277"/>
			<point x="447" y="199" type="curve" smooth="yes"/>
			<point x="447" y="116"/>
			<point x="396" y="79"/>
			<point x="293" y="79" type="curve" smooth="yes"/>
		</contour>
	</outline>
</glyph>
<glyph name="Ef" format="2">
	<unicode hex="0424"/>
	<advance width="740"/>
	<outline>
		<contour>
			<point x="348" y="80" type="curve" smooth="yes"/>
			<point x="392" y="80" type="line" smooth="yes"/>
			<point x="580" y="80"/>
			<point x="694" y="168"/>
			<point x="694" y="330" type="curve" smooth="yes"/>
			<point x="694" y="492"/>
			<point x="580" y="576"/>
			<point x="392" y="576" type="curve" smooth="yes"/>
			<point x="348" y="576" type="line" smooth="yes"/>
			<point x="160" y="576"/>
			<point x="46" y="492"/>
			<point x="46" y="330" type="curve" smooth="yes"/>
			<point x="46" y="168"/>
			<point x="160" y="80"/>
		</contour>
		<contour>
			<point x="341" y="156" type="line" smooth="yes"/>
			<point x="214" y="156"/>
			<point x="141" y="219"/>
			<point x="141" y="330" type="curve" smooth="yes"/>
			<point x="141" y="442"/>
			<point x="214" y="500"/>
			<point x="341" y="500" type="curve" smooth="yes"/>
			<point x="399" y="500" type="line" smooth="yes"/>
			<point x="526" y="500"/>
			<point x="599" y="442"/>
			<point x="599" y="330" type="curve" smooth="yes"/>
			<point x="599" y="219"/>
			<point x="526" y="156"/>
			<point x="399" y="156" type="curve" smooth="yes"/>
		</contour>
		<contour>
			<point x="326" y="-12" type="line"/>
			<point x="414" y="-12" type="line"/>
			<point x="414" y="667" type="line"/>
			<point x="326" y="667" type="line"/>
		</contour>
	</outline>
</glyph>
<glyph name="Soft" format="2">
	<unicode hex="042C"/>
	<advance width="585"/>
	<outline>
		<contour>
			<point x="86" y="0" type="line"/>
			<point x="298" y="0" type="line" smooth="yes"/>
			<point x="444" y="0"/>
			<point x="543" y="60"/>
			<point x="543" y="205" type="curve" smooth="yes"/>
			<point x="543" y="339"/>
			<point x="442" y="394"/>
			<point x="298" y="394" type="curve" smooth="yes"/>
			<point x="186" y="394" type="line"/>
			<point x="186" y="655" type="line"/>
			<point x="86" y="655" type="line"/>
		</contour>
		<contour>
			<point x="186" y="80" type="line"/>
			<point x="186" y="314" type="line"/>
			<point x="286" y="314" type="line" smooth="yes"/>
			<point x="392" y="314"/>
			<point x="445" y="279"/>
			<point x="445" y="203" type="curve" smooth="yes"/>
			<point x="445" y="117"/>
			<point x="390" y="80"/>
			<point x="288" y="80" type="curve" smooth="yes"/>
		</contour>
	</outline>
</glyph>
<glyph name="Yu" format="2">
	<unicode hex="042E"/>
	<advance width="919"/>
	<outline>
		<contour>
			<point x="86" y="0" type="line"/>
			<point x="186" y="0" type="line"/>
			<point x="186" y="299" type="line"/>
			<point x="378" y="299" type="line"/>
			<point x="378" y="386" type="line"/>
			<point x="186" y="386" type="line"/>
			<point x="186" y="655" type="line"/>
			<point x="86" y="655" type="line"/>
		</contour>
		<contour>
			<point x="594" y="-12" type="curve" smooth="yes"/>
			<point x="759" y="-12"/>
			<point x="869" y="119"/>
			<point x="869" y="330" type="curve" smooth="yes"/>
			<point x="869" y="540"/>
			<point x="759" y="667"/>
			<point x="594" y="667" type="curve" smooth="yes"/>
			<point x="429" y="667"/>
			<point x="323" y="541"/>
			<point x="323" y="330" type="curve" smooth="yes"/>
			<point x="323" y="119"/>
			<point x="429" y="-12"/>
		</contour>
		<contour>
			<point x="594" y="75" type="curve" smooth="yes"/>
			<point x="487" y="75"/>
			<point x="423" y="175"/>
			<point x="423" y="330" type="curve" smooth="yes"/>
			<point x="423" y="485"/>
			<point x="487" y="580"/>
			<point x="594" y="580" type="curve" smooth="yes"/>
			<point x="701" y="580"/>
			<point x="766" y="485"/>
			<point x="766" y="330" type="curve" smooth="yes"/>
			<point x="766" y="175"/>
			<point x="701" y="75"/>
		</contour>
	</outline>
	<anchor name="aboveUC" x="454" y="677"/>
</glyph>
<glyph name="ve" format="2">
	<unicode hex="0432"/>
	<advance width="513"/>
	<outline>
		<contour>
			<point x="77" y="0" type="line"/>
			<point x="279" y="0" type="line" smooth="yes"/>
			<point x="392" y="0"/>
			<point x="476" y="42"/>
			<point x="476" y="141" type="curve" smooth="yes"/>
			<point x="476" y="210"/>
			<point x="430" y="244"/>
			<point x="374" y="256" type="curve"/>
			<point x="374" y="260" type="line"/>
			<point x="426" y="275"/>
			<point x="455" y="313"/>
			<point x="455" y="363" type="curve" smooth="yes"/>
			<point x="455" y="455"/>
			<point x="378" y="489"/>
			<point x="270" y="489" type="curve" smooth="yes"/>
			<point x="77" y="489" type="line"/>
		</contour>
		<contour>
			<point x="175" y="290" type="line"/>
			<point x="175" y="420" type="line"/>
			<point x="262" y="420" type="line" smooth="yes"/>
			<point x="330" y="420"/>
			<point x="358" y="395"/>
			<point x="358" y="353" type="curve" smooth="yes"/>
			<point x="358" y="315"/>
			<point x="330" y="290"/>
			<point x="258" y="290" type="curve" smooth="yes"/>
		</contour>
		<contour>
			<point x="175" y="68" type="line"/>
			<point x="175" y="215" type="line"/>
			<point x="266" y="215" type="line" smooth="yes"/>
			<point x="340" y="215"/>
			<point x="377" y="189"/>
			<point x="377" y="146" type="curve" smooth="yes"/>
			<point x="377" y="97"/>
			<point x="344" y="68"/>
			<point x="271" y="68" type="curve" smooth="yes"/>
		</contour>
	</outline>
</glyph>
<glyph name="el" format="2">
	<unicode hex="043B"/>
	<advance width="542"/>
	<outline>
		<contour>
			<point x="57" y="-10" type="curve" smooth="yes"/>
			<point x="135" y="-10"/>
			<point x="181" y="45"/>
			<point x="196" y="153" type="curve" smooth="yes"/>
			<point x="207" y="238"/>
			<point x="217" y="324"/>
			<point x="227" y="409" type="curve"/>
			<point x="365" y="409" type="line"/>
			<point x="365" y="0" type="line"/>
			<point x="464" y="0" type="line"/>
			<point x="464" y="489" type="line"/>
			<point x="148" y="489" type="line"/>
			<point x="136" y="385"/>
			<point x="125" y="282"/>
			<point x="112" y="179" type="curve" smooth="yes"/>
			<point x="104" y="113"/>
			<point x="82" y="85"/>
			<point x="50" y="85" type="curve" smooth="yes"/>
			<point x="41" y="85"/>
			<point x="34" y="87"/>
			<point x="27" y="89" type="curve"/>
			<point x="9" y="-1" type="line"/>
			<point x="24" y="-7"/>
			<point x="38" y="-10"/>
		</contour>
	</outline>
</glyph>
<glyph name="en" format="2">
	<unicode hex="043D"/>
	<advance width="567"/>
	<outline>
		<contour>
			<point x="78" y="0" type="line"/>
			<point x="177" y="0" type="line"/>
			<point x="177" y="209" type="line"/>
			<point x="391" y="209" type="line"/>
			<point x="391" y="0" type="line"/>
			<point x="490" y="0" type="line"/>
			<point x="490" y="489" type="line"/>
			<point x="391" y="489" type="line"/>
			<point x="391" y="296" type="line"/>
			<point x="177" y="296" type="line"/>
			<point x="177" y="489" type="line"/>
			<point x="78" y="489" type="line"/>
		</contour>
	</outline>
</glyph>
<glyph name="Yat" format="2">
	<unicode hex="0462"/>
	<advance width="617"/>
	<outline>
		<contour>
			<point x="161" y="0" type="line"/>
			<point x="335" y="0" type="line" smooth="yes"/>
			<point x="480" y="0"/>
			<point x="574" y="56"/>
			<point x="574" y="201" type="curve" smooth="yes"/>
			<point x="574" y="327"/>
			<point x="472" y="375"/>
			<point x="329" y="375" type="curve" smooth="yes"/>
			<point x="261" y="375" type="line"/>
			<point x="261" y="700" type="line"/>
			<point x="161" y="700" type="line"/>
		</contour>
		<contour>
			<point x="261" y="79" type="line"/>
			<point x="261" y="303" type="line"/>
			<point x="319" y="303" type="line" smooth="yes"/>
			<point x="427" y="303"/>
			<point x="476" y="272"/>
			<point x="476" y="197" type="curve" smooth="yes"/>
			<point x="476" y="111"/>
			<point x="426" y="79"/>
			<point x="325" y="79" type="curve" smooth="yes"/>
		</contour>
		<contour>
			<point x="27" y="501" type="line"/>
			<point x="490" y="501" type="line"/>
			<point x="490" y="581" type="line"/>
			<point x="27" y="581" type="line"/>
		</contour>
	</outline>
	<anchor name="aboveUC" x="220" y="722"/>
</glyph>
<glyph name="Kabashkir" format="2">
	<unicode hex="04A0"/>
	<advance width="722"/>
	<outline>
		<contour>
			<point x="321" y="655" type="line"/>
			<point x="27" y="655" type="line"/>
			<point x="27" y="571" type="line"/>
			<point x="221" y="571" type="line"/>
		</contour>
		<component base="Ka" xOffset="134"/>
	</outline>
</glyph>
<glyph name="kabashkir" format="2">
	<unicode hex="04A1"/>
	<advance width="623"/>
	<outline>
		<contour>
			<point x="290" y="489" type="line"/>
			<point x="26" y="489" type="line"/>
			<point x="26" y="409" type="line"/>
			<point x="192" y="409" type="line"/>
		</contour>
		<component base="ka" xOffset="114"/>
	</outline>
</glyph>
<glyph name="ustraightstroke" format="2">
	<unicode hex="04B1"/>
	<advance width="481"/>
	<outline>
		<contour>
			<point x="48" y="0" type="line"/>
			<point x="433" y="0" type="line"/>
			<point x="433" y="77" type="line"/>
			<point x="126" y="77" type="line"/>
			<point x="48" y="71" type="line"/>
		</contour>
		<component base="ustraight"/>
	</outline>
	<anchor name="aboveLC" x="242" y="512"/>
</glyph>
<glyph name="Kahook" format="2">
	<unicode hex="04C3"/>
	<advance width="600"/>
	<outline>
		<contour>
			<point x="334" y="-169" type="curve" smooth="yes"/>
			<point x="455" y="-169"/>
			<point x="561" y="-87"/>
			<point x="561" y="106" type="curve" smooth="yes"/>
			<point x="561" y="302"/>
			<point x="424" y="381"/>
			<point x="276" y="381" type="curve"/>
			<point x="369" y="348" type="line"/>
			<point x="446" y="495" type="line" smooth="yes"/>
			<point x="479" y="559"/>
			<point x="497" y="570"/>
			<point x="523" y="570" type="curve" smooth="yes"/>
			<point x="533" y="570"/>
			<point x="541" y="569"/>
			<point x="548" y="567" type="curve"/>
			<point x="565" y="658" type="line"/>
			<point x="554" y="663"/>
			<point x="538" y="665"/>
			<point x="521" y="665" type="curve" smooth="yes"/>
			<point x="461" y="665"/>
			<point x="419" y="644"/>
			<point x="371" y="546" type="curve" smooth="yes"/>
			<point x="291" y="383" type="line"/>
			<point x="186" y="383" type="line"/>
			<point x="186" y="655" type="line"/>
			<point x="86" y="655" type="line"/>
			<point x="86" y="0" type="line"/>
			<point x="186" y="0" type="line"/>
			<point x="186" y="302" type="line"/>
			<point x="254" y="302" type="line" smooth="yes"/>
			<point x="377" y="302"/>
			<point x="462" y="241"/>
			<point x="462" y="105" type="curve" smooth="yes"/>
			<point x="462" y="-37"/>
			<point x="383" y="-89"/>
			<point x="319" y="-89" type="curve" smooth="yes"/>
			<point x="305" y="-89"/>
			<point x="287" y="-86"/>
			<point x="276" y="-82" type="curve"/>
			<point x="257" y="-158" type="line"/>
			<point x="274" y="-165"/>
			<point x="301" y="-169"/>
		</contour>
	</outline>
</glyph>
<glyph name="ghedescender" format="2">
	<unicode hex="04F7"/>
	<advance width="416"/>
	<outline>
		<contour>
			<point x="153" y="-172" type="line"/>
			<point x="238" y="-172" type="line"/>
			<point x="248" y="16" type="line"/>
			<point x="248" y="80" type="line"/>
			<point x="117" y="80" type="line"/>
			<point x="117" y="0" type="line"/>
			<point x="153" y="0" type="line"/>
		</contour>
		<component base="ghe"/>
	</outline>
</glyph>
<glyph name="ain" format="2">
	<unicode hex="1D25"/>
	<advance width="526"/>
	<outline>
		<contour>
			<point x="97" y="-12" type="curve" smooth="yes"/>
			<point x="149" y="-12"/>
			<point x="204" y="17"/>
			<point x="263" y="73" type="curve"/>
			<point x="321" y="17"/>
			<point x="378" y="-12"/>
			<point x="430" y="-12" type="curve" smooth="yes"/>
			<point x="460" y="-12"/>
			<point x="491" y="-4"/>
			<point x="510" y="11" type="curve"/>
			<point x="481" y="81" type="line"/>
			<point x="467" y="72"/>
			<point x="451" y="69"/>
			<point x="433" y="69" type="curve" smooth="yes"/>
			<point x="395" y="69"/>
			<point x="361" y="92"/>
			<point x="326" y="129" type="curve"/>
			<point x="396" y="193"/>
			<point x="442" y="269"/>
			<point x="442" y="335" type="curve" smooth="yes"/>
			<point x="442" y="435"/>
			<point x="377" y="501"/>
			<point x="263" y="501" type="curve" smooth="yes"/>
			<point x="149" y="501"/>
			<point x="84" y="435"/>
			<point x="84" y="335" type="curve" smooth="yes"/>
			<point x="84" y="269"/>
			<point x="129" y="193"/>
			<point x="200" y="129" type="curve"/>
			<point x="165" y="92"/>
			<point x="130" y="69"/>
			<point x="93" y="69" type="curve" smooth="yes"/>
			<point x="75" y="69"/>
			<point x="60" y="72"/>
			<point x="45" y="81" type="curve"/>
			<point x="16" y="11" type="line"/>
			<point x="35" y="-4"/>
			<point x="67" y="-12"/>
		</contour>
	</outline>
	<anchor name="aboveLC" x="264" y="512"/>
	<anchor name="belowLC" x="264" y="-22"/>
</glyph>
<glyph name="K.sups" format="2">
	<unicode hex="1D37"/>
	<advance width="394"/>
	<outline>
		<contour>
			<point x="55" y="390" type="line"/>
			<point x="128" y="390" type="line"/>
			<point x="128" y="520" type="line"/>
			<point x="195" y="599" type="line"/>
			<point x="315" y="390" type="line"/>
			<point x="396" y="390" type="line"/>
			<point x="238" y="655" type="line"/>
			<point x="374" y="822" type="line"/>
			<point x="292" y="822" type="line"/>
			<point x="131" y="622" type="line"/>
			<point x="128" y="622" type="line"/>
			<point x="128" y="822" type="line"/>
			<point x="55" y="822" type="line"/>
		</contour>
	</outline>
</glyph>
<glyph name="U.sups" format="2">
	<unicode hex="1D41"/>
	<advance width="435"/>
	<outline>
		<contour>
			<point x="219" y="382" type="curve" smooth="yes"/>
			<point x="318" y="382"/>
			<point x="382" y="436"/>
			<point x="382" y="577" type="curve" smooth="yes"/>
			<point x="382" y="822" type="line"/>
			<point x="312" y="822" type="line"/>
			<point x="312" y="572" type="line" smooth="yes"/>
			<point x="312" y="476"/>
			<point x="273" y="445"/>
			<point x="219" y="445" type="curve" smooth="yes"/>
			<point x="164" y="445"/>
			<point x="127" y="476"/>
			<point x="127" y="572" type="curve" smooth="yes"/>
			<point x="127" y="822" type="line"/>
			<point x="54" y="822" type="line"/>
			<point x="54" y="577" type="line" smooth="yes"/>
			<point x="54" y="436"/>
			<point x="117" y="382"/>
		</contour>
	</outline>
</glyph>
<glyph name="eopen.sups" format="2">
	<unicode hex="1D4B"/>
	<advance width="319"/>
	<outline>
		<contour>
			<point x="176" y="382" type="curve" smooth="yes"/>
			<point x="226" y="382"/>
			<point x="263" y="394"/>
			<point x="298" y="421" type="curve"/>
			<point x="272" y="464" type="line"/>
			<point x="246" y="446"/>
			<point x="218" y="439"/>
			<point x="190" y="439" type="curve" smooth="yes"/>
			<point x="145" y="439"/>
			<point x="114" y="457"/>
			<point x="114" y="486" type="curve" smooth="yes"/>
			<point x="114" y="515"/>
			<point x="140" y="532"/>
			<point x="188" y="532" type="curve" smooth="yes"/>
			<point x="235" y="532" type="line"/>
			<point x="235" y="584" type="line"/>
			<point x="196" y="584" type="line" smooth="yes"/>
			<point x="153" y="584"/>
			<point x="133" y="600"/>
			<point x="133" y="625" type="curve" smooth="yes"/>
			<point x="133" y="650"/>
			<point x="156" y="663"/>
			<point x="188" y="663" type="curve" smooth="yes"/>
			<point x="216" y="663"/>
			<point x="238" y="660"/>
			<point x="262" y="644" type="curve"/>
			<point x="288" y="687" type="line"/>
			<point x="259" y="710"/>
			<point x="222" y="721"/>
			<point x="183" y="721" type="curve" smooth="yes"/>
			<point x="115" y="721"/>
			<point x="58" y="693"/>
			<point x="58" y="635" type="curve" smooth="yes"/>
			<point x="58" y="603"/>
			<point x="77" y="575"/>
			<point x="115" y="564" type="curve"/>
			<point x="115" y="560" type="line"/>
			<point x="72" y="550"/>
			<point x="40" y="526"/>
			<point x="40" y="476" type="curve" smooth="yes"/>
			<point x="40" y="417"/>
			<point x="102" y="382"/>
		</contour>
	</outline>
</glyph>
<glyph name="g.sups" format="2">
	<unicode hex="1D4D"/>
	<advance width="347"/>
	<outline>
		<contour>
			<point x="163" y="245" type="curve" smooth="yes"/>
			<point x="271" y="245"/>
			<point x="336" y="296"/>
			<point x="336" y="359" type="curve" smooth="yes"/>
			<point x="336" y="416"/>
			<point x="298" y="439"/>
			<point x="218" y="439" type="curve" smooth="yes"/>
			<point x="159" y="439" type="line" smooth="yes"/>
			<point x="118" y="439"/>
			<point x="104" y="449"/>
			<point x="104" y="468" type="curve" smooth="yes"/>
			<point x="104" y="482"/>
			<point x="111" y="492"/>
			<point x="122" y="500" type="curve"/>
			<point x="138" y="493"/>
			<point x="153" y="491"/>
			<point x="167" y="491" type="curve" smooth="yes"/>
			<point x="235" y="491"/>
			<point x="292" y="531"/>
			<point x="292" y="603" type="curve" smooth="yes"/>
			<point x="292" y="624"/>
			<point x="283" y="646"/>
			<point x="272" y="657" type="curve"/>
			<point x="331" y="657" type="line"/>
			<point x="331" y="712" type="line"/>
			<point x="218" y="712" type="line"/>
			<point x="203" y="718"/>
			<point x="186" y="721"/>
			<point x="167" y="721" type="curve" smooth="yes"/>
			<point x="98" y="721"/>
			<point x="38" y="679"/>
			<point x="38" y="605" type="curve" smooth="yes"/>
			<point x="38" y="567"/>
			<point x="58" y="536"/>
			<point x="81" y="519" type="curve"/>
			<point x="81" y="515" type="line"/>
			<point x="62" y="503"/>
			<point x="45" y="481"/>
			<point x="45" y="457" type="curve" smooth="yes"/>
			<point x="45" y="431"/>
			<point x="57" y="414"/>
			<point x="74" y="403" type="curve"/>
			<point x="74" y="399" type="line"/>
			<point x="44" y="382"/>
			<point x="28" y="358"/>
			<point x="28" y="330" type="curve" smooth="yes"/>
			<point x="28" y="274"/>
			<point x="84" y="245"/>
		</contour>
		<contour>
			<point x="167" y="538" type="curve" smooth="yes"/>
			<point x="131" y="538"/>
			<point x="106" y="563"/>
			<point x="106" y="605" type="curve" smooth="yes"/>
			<point x="106" y="647"/>
			<point x="131" y="670"/>
			<point x="167" y="670" type="curve" smooth="yes"/>
			<point x="200" y="670"/>
			<point x="227" y="646"/>
			<point x="227" y="605" type="curve" smooth="yes"/>
			<point x="227" y="563"/>
			<point x="200" y="538"/>
		</contour>
		<contour>
			<point x="175" y="294" type="curve" smooth="yes"/>
			<point x="121" y="294"/>
			<point x="89" y="311"/>
			<point x="89" y="342" type="curve" smooth="yes"/>
			<point x="89" y="357"/>
			<point x="99" y="372"/>
			<point x="117" y="385" type="curve"/>
			<point x="131" y="381"/>
			<point x="148" y="381"/>
			<point x="160" y="381" type="curve" smooth="yes"/>
			<point x="207" y="381" type="line" smooth="yes"/>
			<point x="245" y="381"/>
			<point x="267" y="373"/>
			<point x="267" y="348" type="curve" smooth="yes"/>
			<point x="267" y="319"/>
			<point x="229" y="294"/>
		</contour>
	</outline>
</glyph>
<glyph name="m.sups" format="2">
	<unicode hex="1D50"/>
	<advance width="563"/>
	<outline>
		<contour>
			<point x="49" y="390" type="line"/>
			<point x="122" y="390" type="line"/>
			<point x="122" y="617" type="line"/>
			<point x="150" y="646"/>
			<point x="172" y="659"/>
			<point x="193" y="659" type="curve" smooth="yes"/>
			<point x="235" y="659"/>
			<point x="247" y="631"/>
			<point x="247" y="583" type="curve" smooth="yes"/>
			<point x="247" y="390" type="line"/>
			<point x="320" y="390" type="line"/>
			<point x="320" y="617" type="line"/>
			<point x="348" y="646"/>
			<point x="370" y="659"/>
			<point x="391" y="659" type="curve" smooth="yes"/>
			<point x="433" y="659"/>
			<point x="445" y="631"/>
			<point x="445" y="583" type="curve" smooth="yes"/>
			<point x="445" y="390" type="line"/>
			<point x="518" y="390" type="line"/>
			<point x="518" y="593" type="line" smooth="yes"/>
			<point x="518" y="669"/>
			<point x="488" y="721"/>
			<point x="416" y="721" type="curve" smooth="yes"/>
			<point x="372" y="721"/>
			<point x="338" y="693"/>
			<point x="309" y="662" type="curve"/>
			<point x="293" y="701"/>
			<point x="263" y="721"/>
			<point x="218" y="721" type="curve" smooth="yes"/>
			<point x="174" y="721"/>
			<point x="144" y="697"/>
			<point x="117" y="668" type="curve"/>
			<point x="114" y="668" type="line"/>
			<point x="108" y="713" type="line"/>
			<point x="49" y="713" type="line"/>
		</contour>
	</outline>
</glyph>
<glyph name="p.sups" format="2">
	<unicode hex="1D56"/>
	<advance width="377"/>
	<outline>
		<contour>
			<point x="49" y="253" type="line"/>
			<point x="122" y="253" type="line"/>
			<point x="122" y="355" type="line"/>
			<point x="118" y="418" type="line"/>
			<point x="144" y="395"/>
			<point x="177" y="382"/>
			<point x="206" y="382" type="curve" smooth="yes"/>
			<point x="279" y="382"/>
			<point x="345" y="446"/>
			<point x="345" y="557" type="curve" smooth="yes"/>
			<point x="345" y="656"/>
			<point x="299" y="721"/>
			<point x="215" y="721" type="curve" smooth="yes"/>
			<point x="178" y="721"/>
			<point x="142" y="700"/>
			<point x="117" y="677" type="curve"/>
			<point x="114" y="677" type="line"/>
			<point x="107" y="713" type="line"/>
			<point x="49" y="713" type="line"/>
		</contour>
		<contour>
			<point x="193" y="441" type="curve" smooth="yes"/>
			<point x="172" y="441"/>
			<point x="146" y="449"/>
			<point x="122" y="469" type="curve"/>
			<point x="122" y="623" type="line"/>
			<point x="147" y="648"/>
			<point x="173" y="661"/>
			<point x="197" y="661" type="curve" smooth="yes"/>
			<point x="248" y="661"/>
			<point x="271" y="623"/>
			<point x="271" y="557" type="curve" smooth="yes"/>
			<point x="271" y="481"/>
			<point x="236" y="441"/>
		</contour>
	</outline>
</glyph>
<glyph name="c.sups" format="2">
	<unicode hex="1D9C"/>
	<advance width="308"/>
	<outline>
		<contour>
			<point x="185" y="382" type="curve" smooth="yes"/>
			<point x="236" y="382"/>
			<point x="270" y="401"/>
			<point x="293" y="420" type="curve"/>
			<point x="262" y="467" type="line"/>
			<point x="245" y="453"/>
			<point x="225" y="441"/>
			<point x="193" y="441" type="curve" smooth="yes"/>
			<point x="139" y="441"/>
			<point x="103" y="486"/>
			<point x="103" y="551" type="curve" smooth="yes"/>
			<point x="103" y="617"/>
			<point x="141" y="662"/>
			<point x="193" y="662" type="curve" smooth="yes"/>
			<point x="219" y="662"/>
			<point x="235" y="654"/>
			<point x="253" y="639" type="curve"/>
			<point x="288" y="686" type="line"/>
			<point x="269" y="703"/>
			<point x="236" y="721"/>
			<point x="188" y="721" type="curve" smooth="yes"/>
			<point x="103" y="721"/>
			<point x="28" y="658"/>
			<point x="28" y="551" type="curve" smooth="yes"/>
			<point x="28" y="444"/>
			<point x="94" y="382"/>
		</contour>
	</outline>
</glyph>
<glyph name="theta.sups" format="2">
	<unicode hex="1DBF"/>
	<advance width="367"/>
	<outline>
		<contour>
			<point x="183" y="382" type="curve" smooth="yes"/>
			<point x="263" y="382"/>
			<point x="332" y="442"/>
			<point x="332" y="627" type="curve" smooth="yes"/>
			<point x="332" y="811"/>
			<point x="263" y="869"/>
			<point x="183" y="869" type="curve" smooth="yes"/>
			<point x="103" y="869"/>
			<point x="33" y="811"/>
			<point x="33" y="627" type="curve" smooth="yes"/>
			<point x="33" y="442"/>
			<point x="103" y="382"/>
		</contour>
		<contour>
			<point x="183" y="441" type="curve" smooth="yes"/>
			<point x="135" y="441"/>
			<point x="108" y="490"/>
			<point x="108" y="627" type="curve" smooth="yes"/>
			<point x="108" y="762"/>
			<point x="135" y="810"/>
			<point x="183" y="810" type="curve" smooth="yes"/>
			<point x="231" y="810"/>
			<point x="258" y="762"/>
			<point x="258" y="627" type="curve" smooth="yes"/>
			<point x="258" y="490"/>
			<point x="231" y="441"/>
		</contour>
		<contour>
			<point x="64" y="599" type="line"/>
			<point x="298" y="599" type="line"/>
			<point x="298" y="656" type="line"/>
			<point x="64" y="656" type="line"/>
		</contour>
	</outline>
</glyph>
<glyph name="prime" format="2">
	<unicode hex="2032"/>
	<advance width="262"/>
	<outline>
		<contour>
			<point x="141" y="433" type="line"/>
			<point x="185" y="586" type="line"/>
			<point x="206" y="684" type="line"/>
			<point x="109" y="692" type="line"/>
			<point x="76" y="438" type="line"/>
		</contour>
	</outline>
</glyph>
<glyph name="primereversed" format="2">
	<unicode hex="2035"/>
	<advance width="262"/>
	<outline>
		<contour>
			<point x="116" y="433" type="line"/>
			<point x="180" y="434" type="line"/>
			<point x="159" y="689" type="line"/>
			<point x="61" y="688" type="line"/>
			<point x="78" y="588" type="line"/>
		</contour>
	</outline>
</glyph>
<glyph name="minus.subs" format="2">
	<unicode hex="208B"/>
	<advance width="370"/>
	<outline>
		<contour>
			<point x="29" y="-17" type="line"/>
			<point x="341" y="-17" type="line"/>
			<point x="341" y="44" type="line"/>
			<point x="29" y="44" type="line"/>
		</contour>
	</outline>
</glyph>
<glyph name="colonmonetary" format="2">
	<unicode hex="20A1"/>
	<advance width="505"/>
	<outline>
		<contour>
			<point x="318" y="-12" type="curve" smooth="yes"/>
			<point x="392" y="-12"/>
			<point x="449" y="26"/>
			<point x="483" y="90" type="curve"/>
			<point x="429" y="129" type="line"/>
			<point x="401" y="87"/>
			<point x="368" y="66"/>
			<point x="322" y="66" type="curve" smooth="yes"/>
			<point x="217" y="66"/>
			<point x="160" y="158"/>
			<point x="160" y="320" type="curve" smooth="yes"/>
			<point x="160" y="475"/>
			<point x="218" y="571"/>
			<point x="323" y="571" type="curve" smooth="yes"/>
			<point x="367" y="571"/>
			<point x="401" y="555"/>
			<point x="428" y="520" type="curve"/>
			<point x="481" y="565" type="line"/>
			<point x="449" y="615"/>
			<point x="393" y="649"/>
			<point x="319" y="649" type="curve" smooth="yes"/>
			<point x="170" y="649"/>
			<point x="60" y="524"/>
			<point x="60" y="317" type="curve" smooth="yes"/>
			<point x="60" y="105"/>
			<point x="165" y="-12"/>
		</contour>
		<contour>
			<point x="173" y="-107" type="line"/>
			<point x="219" y="-113" type="line"/>
			<point x="321" y="744" type="line"/>
			<point x="275" y="750" type="line"/>
		</contour>
		<contour>
			<point x="271" y="-107" type="line"/>
			<point x="317" y="-113" type="line"/>
			<point x="419" y="744" type="line"/>
			<point x="373" y="750" type="line"/>
		</contour>
	</outline>
</glyph>
<glyph name="won" format="2">
	<unicode hex="20A9"/>
	<advance width="505"/>
	<outline>
		<contour>
			<point x="93" y="0" type="line"/>
			<point x="201" y="0" type="line"/>
			<point x="237" y="353" type="line"/>
			<point x="250" y="524" type="line"/>
			<point x="254" y="524" type="line"/>
			<point x="268" y="353" type="line"/>
			<point x="307" y="0" type="line"/>
			<point x="418" y="0" type="line"/>
			<point x="496" y="637" type="line"/>
			<point x="412" y="637" type="line"/>
			<point x="376" y="211" type="line"/>
			<point x="365" y="73" type="line"/>
			<point x="361" y="73" type="line"/>
			<point x="349" y="211" type="line"/>
			<point x="305" y="597" type="line"/>
			<point x="206" y="597" type="line"/>
			<point x="163" y="211" type="line"/>
			<point x="151" y="73" type="line"/>
			<point x="147" y="73" type="line"/>
			<point x="138" y="211" type="line"/>
			<point x="101" y="637" type="line"/>
			<point x="10" y="637" type="line"/>
		</contour>
		<contour>
			<point x="-16" y="293" type="line"/>
			<point x="519" y="293" type="line"/>
			<point x="519" y="358" type="line"/>
			<point x="57" y="358" type="line"/>
			<point x="-16" y="353" type="line"/>
		</contour>
	</outline>
</glyph>
<glyph name="tugrik" format="2">
	<unicode hex="20AE"/>
	<advance width="505"/>
	<outline>
		<contour>
			<point x="202" y="0" type="line"/>
			<point x="302" y="0" type="line"/>
			<point x="302" y="563" type="line"/>
			<point x="470" y="563" type="line"/>
			<point x="470" y="637" type="line"/>
			<point x="34" y="637" type="line"/>
			<point x="34" y="563" type="line"/>
			<point x="202" y="563" type="line"/>
		</contour>
		<contour>
			<point x="92" y="115" type="line"/>
			<point x="206" y="177" type="line"/>
			<point x="298" y="219" type="line"/>
			<point x="439" y="294" type="line"/>
			<point x="414" y="344" type="line"/>
			<point x="298" y="282" type="line"/>
			<point x="206" y="240" type="line"/>
			<point x="66" y="165" type="line"/>
		</contour>
		<contour>
			<point x="92" y="246" type="line"/>
			<point x="206" y="307" type="line"/>
			<point x="298" y="349" type="line"/>
			<point x="439" y="424" type="line"/>
			<point x="414" y="474" type="line"/>
			<point x="298" y="412" type="line"/>
			<point x="206" y="370" type="line"/>
			<point x="66" y="296" type="line"/>
		</contour>
	</outline>
</glyph>
<glyph name="peso" format="2">
	<unicode hex="20B1"/>
	<advance width="505"/>
	<outline>
		<contour>
			<point x="79" y="0" type="line"/>
			<point x="173" y="0" type="line"/>
			<point x="173" y="228" type="line"/>
			<point x="213" y="228" type="line" smooth="yes"/>
			<point x="336" y="228"/>
			<point x="434" y="295"/>
			<point x="434" y="434" type="curve" smooth="yes"/>
			<point x="434" y="583"/>
			<point x="339" y="637"/>
			<point x="213" y="637" type="curve" smooth="yes"/>
			<point x="79" y="637" type="line"/>
		</contour>
		<contour>
			<point x="173" y="294" type="line"/>
			<point x="173" y="572" type="line"/>
			<point x="203" y="572" type="line" smooth="yes"/>
			<point x="292" y="572"/>
			<point x="340" y="533"/>
			<point x="340" y="434" type="curve" smooth="yes"/>
			<point x="340" y="344"/>
			<point x="292" y="294"/>
			<point x="203" y="294" type="curve" smooth="yes"/>
		</contour>
		<contour>
			<point x="8" y="344" type="line"/>
			<point x="493" y="344" type="line"/>
			<point x="493" y="405" type="line"/>
			<point x="87" y="405" type="line"/>
			<point x="8" y="400" type="line"/>
		</contour>
		<contour>
			<point x="8" y="459" type="line"/>
			<point x="493" y="459" type="line"/>
			<point x="493" y="519" type="line"/>
			<point x="87" y="519" type="line"/>
			<point x="8" y="514" type="line"/>
		</contour>
	</outline>
</glyph>
<glyph name="guarani" format="2">
	<unicode hex="20B2"/>
	<advance width="505"/>
	<outline>
		<contour>
			<point x="293" y="-12" type="curve" smooth="yes"/>
			<point x="361" y="-12"/>
			<point x="422" y="14"/>
			<point x="469" y="61" type="curve"/>
			<point x="469" y="339" type="line"/>
			<point x="287" y="339" type="line"/>
			<point x="287" y="257" type="line"/>
			<point x="380" y="257" type="line"/>
			<point x="380" y="100" type="line"/>
			<point x="363" y="83"/>
			<point x="332" y="69"/>
			<point x="299" y="69" type="curve" smooth="yes"/>
			<point x="202" y="69"/>
			<point x="145" y="163"/>
			<point x="145" y="320" type="curve" smooth="yes"/>
			<point x="145" y="475"/>
			<point x="201" y="571"/>
			<point x="304" y="571" type="curve" smooth="yes"/>
			<point x="348" y="571"/>
			<point x="380" y="548"/>
			<point x="410" y="514" type="curve"/>
			<point x="467" y="569" type="line"/>
			<point x="427" y="615"/>
			<point x="370" y="649"/>
			<point x="306" y="649" type="curve" smooth="yes"/>
			<point x="150" y="649"/>
			<point x="44" y="524"/>
			<point x="44" y="317" type="curve" smooth="yes"/>
			<point x="44" y="109"/>
			<point x="148" y="-12"/>
		</contour>
		<contour>
			<point x="259" y="-110" type="line"/>
			<point x="329" y="-110" type="line"/>
			<point x="329" y="25" type="line"/>
			<point x="259" y="25" type="line"/>
		</contour>
		<contour>
			<point x="259" y="615" type="line"/>
			<point x="329" y="615" type="line"/>
			<point x="329" y="747" type="line"/>
			<point x="259" y="747" type="line"/>
		</contour>
	</outline>
</glyph>
<glyph name="cedi" format="2">
	<unicode hex="20B5"/>
	<advance width="505"/>
	<outline>
		<contour>
			<point x="311" y="-12" type="curve" smooth="yes"/>
			<point x="384" y="-12"/>
			<point x="442" y="21"/>
			<point x="486" y="81" type="curve"/>
			<point x="430" y="130" type="line"/>
			<point x="400" y="88"/>
			<point x="365" y="67"/>
			<point x="317" y="67" type="curve" smooth="yes"/>
			<point x="217" y="67"/>
			<point x="160" y="163"/>
			<point x="160" y="320" type="curve" smooth="yes"/>
			<point x="160" y="475"/>
			<point x="218" y="571"/>
			<point x="323" y="571" type="curve" smooth="yes"/>
			<point x="367" y="571"/>
			<point x="397" y="553"/>
			<point x="423" y="519" type="curve"/>
			<point x="479" y="571" type="line"/>
			<point x="443" y="620"/>
			<point x="387" y="649"/>
			<point x="326" y="649" type="curve" smooth="yes"/>
			<point x="167" y="649"/>
			<point x="59" y="524"/>
			<point x="59" y="317" type="curve" smooth="yes"/>
			<point x="59" y="109"/>
			<point x="163" y="-12"/>
		</contour>
		<contour>
			<point x="281" y="-110" type="line"/>
			<point x="341" y="-110" type="line"/>
			<point x="341" y="742" type="line"/>
			<point x="281" y="742" type="line"/>
		</contour>
	</outline>
</glyph>
<glyph name="rupeeindian" format="2">
	<unicode hex="20B9"/>
	<advance width="505"/>
	<outline>
		<contour>
			<point x="71" y="237" type="line"/>
			<point x="155" y="237" type="line" smooth="yes"/>
			<point x="287" y="237"/>
			<point x="389" y="302"/>
			<point x="389" y="446" type="curve" smooth="yes"/>
			<point x="389" y="506"/>
			<point x="361" y="551"/>
			<point x="321" y="576" type="curve"/>
			<point x="455" y="576" type="line"/>
			<point x="455" y="637" type="line"/>
			<point x="71" y="637" type="line"/>
			<point x="71" y="555" type="line"/>
			<point x="140" y="555" type="line" smooth="yes"/>
			<point x="236" y="555"/>
			<point x="291" y="525"/>
			<point x="291" y="445" type="curve" smooth="yes"/>
			<point x="291" y="359"/>
			<point x="236" y="318"/>
			<point x="140" y="318" type="curve" smooth="yes"/>
			<point x="71" y="318" type="line"/>
		</contour>
		<contour>
			<point x="71" y="421" type="line"/>
			<point x="455" y="421" type="line"/>
			<point x="455" y="481" type="line"/>
			<point x="142" y="481" type="line"/>
			<point x="71" y="476" type="line"/>
		</contour>
		<contour>
			<point x="315" y="0" type="line"/>
			<point x="429" y="0" type="line"/>
			<point x="203" y="305" type="line"/>
			<point x="133" y="257" type="line"/>
		</contour>
	</outline>
</glyph>
<glyph name="arrowup" format="2">
	<unicode hex="2191"/>
	<advance width="618"/>
	<outline>
		<contour>
			<point x="269" y="-25" type="line"/>
			<point x="349" y="-25" type="line"/>
			<point x="349" y="393" type="line"/>
			<point x="522" y="205" type="line"/>
			<point x="577" y="254" type="line"/>
			<point x="311" y="528" type="line"/>
			<point x="307" y="528" type="line"/>
			<point x="41" y="254" type="line"/>
			<point x="96" y="205" type="line"/>
			<point x="269" y="393" type="line"/>
		</contour>
	</outline>
</glyph>
<glyph name="arrowupleft" format="2">
	<unicode hex="2196"/>
	<advance width="618"/>
	<outline>
		<contour>
			<point x="469" y="28" type="line"/>
			<point x="526" y="85" type="line"/>
			<point x="230" y="380" type="line"/>
			<point x="485" y="370" type="line"/>
			<point x="489" y="444" type="line"/>
			<point x="108" y="449" type="line"/>
			<point x="105" y="446" type="line"/>
			<point x="110" y="65" type="line"/>
			<point x="184" y="69" type="line"/>
			<point x="173" y="323" type="line"/>
		</contour>
	</outline>
</glyph>
<glyph name="arrowdblup" format="2">
	<unicode hex="21D1"/>
	<advance width="618"/>
	<outline>
		<contour>
			<point x="96" y="205" type="line"/>
			<point x="307" y="437" type="line"/>
			<point x="311" y="437" type="line"/>
			<point x="522" y="205" type="line"/>
			<point x="577" y="254" type="line"/>
			<point x="311" y="528" type="line"/>
			<point x="307" y="528" type="line"/>
			<point x="41" y="254" type="line"/>
		</contour>
		<contour>
			<point x="366" y="-25" type="line"/>
			<point x="428" y="-25" type="line"/>
			<point x="428" y="395" type="line"/>
			<point x="366" y="395" type="line"/>
		</contour>
		<contour>
			<point x="190" y="-25" type="line"/>
			<point x="252" y="-25" type="line"/>
			<point x="252" y="395" type="line"/>
			<point x="190" y="395" type="line"/>
		</contour>
	</outline>
</glyph>
<glyph name="partialdiff" format="2">
	<unicode hex="2202"/>
	<advance width="540"/>
	<outline>
		<contour>
			<point x="228" y="-12" type="curve" smooth="yes"/>
			<point x="388" y="-12"/>
			<point x="498" y="141"/>
			<point x="498" y="371" type="curve" smooth="yes"/>
			<point x="498" y="569"/>
			<point x="417" y="667"/>
			<point x="281" y="667" type="curve" smooth="yes"/>
			<point x="217" y="667"/>
			<point x="162" y="641"/>
			<point x="116" y="598" type="curve"/>
			<point x="161" y="537" type="line"/>
			<point x="192" y="568"/>
			<point x="229" y="586"/>
			<point x="271" y="586" type="curve" smooth="yes"/>
			<point x="355" y="586"/>
			<point x="403" y="522"/>
			<point x="403" y="368" type="curve" smooth="yes"/>
			<point x="403" y="173"/>
			<point x="334" y="69"/>
			<point x="238" y="69" type="curve" smooth="yes"/>
			<point x="183" y="69"/>
			<point x="135" y="114"/>
			<point x="135" y="187" type="curve" smooth="yes"/>
			<point x="135" y="272"/>
			<point x="181" y="329"/>
			<point x="268" y="329" type="curve" smooth="yes"/>
			<point x="311" y="329"/>
			<point x="357" y="309"/>
			<point x="397" y="254" type="curve"/>
			<point x="409" y="330" type="line"/>
			<point x="370" y="378"/>
			<point x="314" y="407"/>
			<point x="258" y="407" type="curve" smooth="yes"/>
			<point x="126" y="407"/>
			<point x="42" y="315"/>
			<point x="42" y="181" type="curve" smooth="yes"/>
			<point x="42" y="61"/>
			<point x="129" y="-12"/>
		</contour>
	</outline>
</glyph>
<glyph name="minus" format="2">
	<unicode hex="2212"/>
	<advance width="505"/>
	<outline>
		<contour>
			<point x="34" y="294" type="line"/>
			<point x="471" y="294" type="line"/>
			<point x="471" y="366" type="line"/>
			<point x="34" y="366" type="line"/>
		</contour>
	</outline>
</glyph>
<glyph name="notequal" format="2">
	<unicode hex="2260"/>
	<advance width="505"/>
	<outline>
		<contour>
			<point x="58" y="59" type="line"/>
			<point x="127" y="59" type="line"/>
			<point x="202" y="184" type="line"/>
			<point x="471" y="184" type="line"/>
			<point x="471" y="257" type="line"/>
			<point x="244" y="257" type="line"/>
			<point x="330" y="403" type="line"/>
			<point x="471" y="403" type="line"/>
			<point x="471" y="476" type="line"/>
			<point x="372" y="476" type="line"/>
			<point x="447" y="601" type="line"/>
			<point x="378" y="601" type="line"/>
			<point x="303" y="476" type="line"/>
			<point x="34" y="476" type="line"/>
			<point x="34" y="403" type="line"/>
			<point x="261" y="403" type="line"/>
			<point x="175" y="257" type="line"/>
			<point x="34" y="257" type="line"/>
			<point x="34" y="184" type="line"/>
			<point x="133" y="184" type="line"/>
		</contour>
	</outline>
</glyph>
<glyph name="revlogicalnot" format="2">
	<unicode hex="2310"/>
	<advance width="505"/>
	<outline>
		<contour>
			<point x="34" y="101" type="line"/>
			<point x="111" y="101" type="line"/>
			<point x="111" y="294" type="line"/>
			<point x="471" y="294" type="line"/>
			<point x="471" y="366" type="line"/>
			<point x="34" y="366" type="line"/>
		</contour>
	</outline>
</glyph>
<glyph name="floorleft" format="2">
	<unicode hex="231E"/>
	<advance width="314"/>
	<outline>
		<contour>
			<point x="92" y="-53" type="line"/>
			<point x="279" y="-53" type="line"/>
			<point x="279" y="2" type="line"/>
			<point x="167" y="2" type="line"/>
			<point x="167" y="637" type="line"/>
			<point x="92" y="637" type="line"/>
		</contour>
	</outline>
</glyph>
<glyph name="circledotted" format="2">
	<unicode hex="25CC"/>
	<advance width="583"/>
	<outline>
		<contour>
			<point x="107" y="97" type="curve" smooth="yes"/>
			<point x="130" y="97"/>
			<point x="145" y="111"/>
			<point x="145" y="135" type="curve" smooth="yes"/>
			<point x="145" y="160"/>
			<point x="129" y="174"/>
			<point x="107" y="174" type="curve" smooth="yes"/>
			<point x="88" y="174"/>
			<point x="71" y="160"/>
			<point x="71" y="135" type="curve" smooth="yes"/>
			<point x="71" y="111"/>
			<point x="88" y="97"/>
		</contour>
		<contour>
			<point x="79" y="206" type="curve" smooth="yes"/>
			<point x="102" y="206"/>
			<point x="118" y="220"/>
			<point x="118" y="245" type="curve" smooth="yes"/>
			<point x="118" y="269"/>
			<point x="101" y="282"/>
			<point x="79" y="282" type="curve" smooth="yes"/>
			<point x="60" y="282"/>
			<point x="43" y="269"/>
			<point x="43" y="245" type="curve" smooth="yes"/>
			<point x="43" y="220"/>
			<point x="60" y="206"/>
		</contour>
		<contour>
			<point x="107" y="316" type="curve" smooth="yes"/>
			<point x="130" y="316"/>
			<point x="145" y="330"/>
			<point x="145" y="355" type="curve" smooth="yes"/>
			<point x="145" y="380"/>
			<point x="129" y="393"/>
			<point x="107" y="393" type="curve" smooth="yes"/>
			<point x="88" y="393"/>
			<point x="71" y="380"/>
			<point x="71" y="355" type="curve" smooth="yes"/>
			<point x="71" y="330"/>
			<point x="88" y="316"/>
		</contour>
		<contour>
			<point x="186" y="15" type="curve" smooth="yes"/>
			<point x="207" y="15"/>
			<point x="223" y="29"/>
			<point x="223" y="55" type="curve" smooth="yes"/>
			<point x="223" y="78"/>
			<point x="206" y="91"/>
			<point x="186" y="91" type="curve" smooth="yes"/>
			<point x="166" y="91"/>
			<point x="149" y="78"/>
			<point x="149" y="55" type="curve" smooth="yes"/>
			<point x="149" y="29"/>
			<point x="166" y="15"/>
		</contour>
		<contour>
			<point x="186" y="398" type="curve" smooth="yes"/>
			<point x="207" y="398"/>
			<point x="223" y="412"/>
			<point x="223" y="435" type="curve" smooth="yes"/>
			<point x="223" y="461"/>
			<point x="206" y="474"/>
			<point x="186" y="474" type="curve" smooth="yes"/>
			<point x="166" y="474"/>
			<point x="149" y="461"/>
			<point x="149" y="435" type="curve" smooth="yes"/>
			<point x="149" y="412"/>
			<point x="166" y="398"/>
		</contour>
		<contour>
			<point x="291" y="-12" type="curve" smooth="yes"/>
			<point x="313" y="-12"/>
			<point x="329" y="1"/>
			<point x="329" y="27" type="curve" smooth="yes"/>
			<point x="329" y="51"/>
			<point x="313" y="64"/>
			<point x="291" y="64" type="curve" smooth="yes"/>
			<point x="272" y="64"/>
			<point x="255" y="51"/>
			<point x="255" y="27" type="curve" smooth="yes"/>
			<point x="255" y="1"/>
			<point x="272" y="-12"/>
		</contour>
		<contour>
			<point x="291" y="424" type="curve" smooth="yes"/>
			<point x="313" y="424"/>
			<point x="329" y="438"/>
			<point x="329" y="463" type="curve" smooth="yes"/>
			<point x="329" y="487"/>
			<point x="313" y="501"/>
			<point x="291" y="501" type="curve" smooth="yes"/>
			<point x="272" y="501"/>
			<point x="255" y="487"/>
			<point x="255" y="463" type="curve" smooth="yes"/>
			<point x="255" y="438"/>
			<point x="272" y="424"/>
		</contour>
		<contour>
			<point x="397" y="15" type="curve" smooth="yes"/>
			<point x="420" y="15"/>
			<point x="434" y="29"/>
			<point x="434" y="55" type="curve" smooth="yes"/>
			<point x="434" y="78"/>
			<point x="418" y="91"/>
			<point x="397" y="91" type="curve" smooth="yes"/>
			<point x="378" y="91"/>
			<point x="361" y="78"/>
			<point x="361" y="55" type="curve" smooth="yes"/>
			<point x="361" y="29"/>
			<point x="378" y="15"/>
		</contour>
		<contour>
			<point x="397" y="397" type="curve" smooth="yes"/>
			<point x="420" y="397"/>
			<point x="434" y="412"/>
			<point x="434" y="435" type="curve" smooth="yes"/>
			<point x="434" y="460"/>
			<point x="418" y="474"/>
			<point x="397" y="474" type="curve" smooth="yes"/>
			<point x="378" y="474"/>
			<point x="361" y="460"/>
			<point x="361" y="435" type="curve" smooth="yes"/>
			<point x="361" y="412"/>
			<point x="378" y="397"/>
		</contour>
		<contour>
			<point x="476" y="97" type="curve" smooth="yes"/>
			<point x="499" y="97"/>
			<point x="513" y="111"/>
			<point x="513" y="135" type="curve" smooth="yes"/>
			<point x="513" y="160"/>
			<point x="497" y="174"/>
			<point x="476" y="174" type="curve" smooth="yes"/>
			<point x="456" y="174"/>
			<point x="439" y="160"/>
			<point x="439" y="135" type="curve" smooth="yes"/>
			<point x="439" y="111"/>
			<point x="456" y="97"/>
		</contour>
		<contour>
			<point x="503" y="206" type="curve" smooth="yes"/>
			<point x="525" y="206"/>
			<point x="540" y="220"/>
			<point x="540" y="245" type="curve" smooth="yes"/>
			<point x="540" y="269"/>
			<point x="523" y="282"/>
			<point x="503" y="282" type="curve" smooth="yes"/>
			<point x="482" y="282"/>
			<point x="466" y="269"/>
			<point x="466" y="245" type="curve" smooth="yes"/>
			<point x="466" y="220"/>
			<point x="482" y="206"/>
		</contour>
		<contour>
			<point x="476" y="315" type="curve" smooth="yes"/>
			<point x="499" y="315"/>
			<point x="513" y="329"/>
			<point x="513" y="354" type="curve" smooth="yes"/>
			<point x="513" y="378"/>
			<point x="497" y="392"/>
			<point x="476" y="392" type="curve" smooth="yes"/>
			<point x="456" y="392"/>
			<point x="439" y="378"/>
			<point x="439" y="354" type="curve" smooth="yes"/>
			<point x="439" y="329"/>
			<point x="456" y="315"/>
		</contour>
	</outline>
	<anchor name="aboveLC" x="292" y="512"/>
	<anchor name="aboverightLC" x="472" y="512"/>
	<anchor name="baseLC" x="292" y="0"/>
	<anchor name="belowLC" x="292" y="-22"/>
	<anchor name="center" x="292" y="246"/>
	<anchor name="hornLC" x="408" y="491"/>
	<anchor name="ogonekLC" x="292" y="0"/>
</glyph>
<glyph name="mercury" format="2">
	<unicode hex="263F"/>
	<advance width="600"/>
	<outline>
		<contour>
			<point x="300" y="181" type="curve" smooth="yes"/>
			<point x="439" y="181"/>
			<point x="541" y="281"/>
			<point x="541" y="411" type="curve" smooth="yes"/>
			<point x="541" y="544"/>
			<point x="434" y="641"/>
			<point x="300" y="641" type="curve" smooth="yes"/>
			<point x="166" y="641"/>
			<point x="59" y="544"/>
			<point x="59" y="411" type="curve" smooth="yes"/>
			<point x="59" y="281"/>
			<point x="161" y="181"/>
		</contour>
		<contour>
			<point x="300" y="247" type="curve" smooth="yes"/>
			<point x="207" y="247"/>
			<point x="137" y="316"/>
			<point x="137" y="411" type="curve" smooth="yes"/>
			<point x="137" y="512"/>
			<point x="207" y="580"/>
			<point x="300" y="580" type="curve" smooth="yes"/>
			<point x="393" y="580"/>
			<point x="462" y="512"/>
			<point x="462" y="411" type="curve" smooth="yes"/>
			<point x="462" y="316"/>
			<point x="393" y="247"/>
		</contour>
		<contour>
			<point x="262" y="-49" type="line"/>
			<point x="338" y="-49" type="line"/>
			<point x="338" y="42" type="line"/>
			<point x="443" y="42" type="line"/>
			<point x="443" y="115" type="line"/>
			<point x="338" y="115" type="line"/>
			<point x="338" y="232" type="line"/>
			<point x="262" y="232" type="line"/>
			<point x="262" y="115" type="line"/>
			<point x="157" y="115" type="line"/>
			<point x="157" y="42" type="line"/>
			<point x="262" y="42" type="line"/>
		</contour>
		<contour>
			<point x="300" y="591" type="curve" smooth="yes"/>
			<point x="431" y="591"/>
			<point x="484" y="663"/>
			<point x="489" y="738" type="curve"/>
			<point x="424" y="748" type="line"/>
			<point x="416" y="695"/>
			<point x="377" y="646"/>
			<point x="300" y="646" type="curve" smooth="yes"/>
			<point x="223" y="646"/>
			<point x="184" y="695"/>
			<point x="176" y="748" type="curve"/>
			<point x="111" y="738" type="line"/>
			<point x="116" y="663"/>
			<point x="170" y="591"/>
		</contour>
	</outline>
</glyph>
<glyph name="bracketrightwhite" format="2">
	<unicode hex="27E7"/>
	<advance width="393"/>
	<outline>
		<contour>
			<point x="35" y="-152" type="line"/>
			<point x="301" y="-152" type="line"/>
			<point x="301" y="708" type="line"/>
			<point x="35" y="708" type="line"/>
			<point x="35" y="653" type="line"/>
			<point x="140" y="653" type="line"/>
			<point x="140" y="-97" type="line"/>
			<point x="35" y="-97" type="line"/>
		</contour>
		<contour>
			<point x="195" y="-97" type="line"/>
			<point x="195" y="653" type="line"/>
			<point x="241" y="653" type="line"/>
			<point x="241" y="-97" type="line"/>
		</contour>
	</outline>
</glyph>
<glyph name="bracketangleright" format="2">
	<unicode hex="27E9"/>
	<advance width="314"/>
	<outline>
		<contour>
			<point x="98" y="-177" type="line"/>
			<point x="268" y="246" type="line"/>
			<point x="268" y="310" type="line"/>
			<point x="98" y="733" type="line"/>
			<point x="40" y="707" type="line"/>
			<point x="198" y="278" type="line"/>
			<point x="40" y="-151" type="line"/>
		</contour>
	</outline>
</glyph>
<glyph name="lbardbl" format="2">
	<unicode hex="2C61"/>
	<advance width="303"/>
	<outline>
		<contour>
			<point x="22" y="417" type="line"/>
			<point x="286" y="417" type="line"/>
			<point x="286" y="478" type="line"/>
			<point x="103" y="478" type="line"/>
			<point x="22" y="472" type="line"/>
		</contour>
		<contour>
			<point x="22" y="293" type="line"/>
			<point x="286" y="293" type="line"/>
			<point x="286" y="354" type="line"/>
			<point x="103" y="354" type="line"/>
			<point x="22" y="348" type="line"/>
		</contour>
		<component base="l" xOffset="25"/>
	</outline>
	<anchor name="aboveUC" x="154" y="727"/>
	<anchor name="belowLC" x="174" y="-22"/>
</glyph>
<glyph name="tstroke" format="2">
	<unicode hex="2C66"/>
	<advance width="350"/>
	<outline>
		<contour>
			<point x="62" y="-33" type="line"/>
			<point x="370" y="522" type="line"/>
			<point x="333" y="542" type="line"/>
			<point x="25" y="-13" type="line"/>
		</contour>
		<component base="t"/>
	</outline>
	<anchor name="aboveLC" x="154" y="647"/>
	<anchor name="belowLC" x="219" y="-22"/>
</glyph>
<glyph name="brackhalftopright" format="2">
	<unicode hex="2E23"/>
	<advance width="314"/>
	<outline>
		<contour>
			<point x="147" y="278" type="line"/>
			<point x="222" y="278" type="line"/>
			<point x="222" y="708" type="line"/>
			<point x="35" y="708" type="line"/>
			<point x="35" y="653" type="line"/>
			<point x="147" y="653" type="line"/>
		</contour>
	</outline>
</glyph>
<glyph name="brackhalfbotleft" format="2">
	<unicode hex="2E24"/>
	<advance width="314"/>
	<outline>
		<contour>
			<point x="92" y="-152" type="line"/>
			<point x="279" y="-152" type="line"/>
			<point x="279" y="-97" type="line"/>
			<point x="167" y="-97" type="line"/>
			<point x="167" y="278" type="line"/>
			<point x="92" y="278" type="line"/>
		</contour>
	</outline>
</glyph>
<glyph name="AlefEgypt" format="2">
	<unicode hex="A722"/>
	<advance width="302"/>
	<outline>
		<contour>
			<point x="82" y="-12" type="line"/>
			<point x="195" y="-5"/>
			<point x="258" y="53"/>
			<point x="258" y="146" type="curve" smooth="yes"/>
			<point x="258" y="224"/>
			<point x="208" y="272"/>
			<point x="138" y="272" type="curve" smooth="yes"/>
			<point x="84" y="272"/>
			<point x="52" y="243"/>
			<point x="52" y="198" type="curve" smooth="yes"/>
			<point x="52" y="159"/>
			<point x="82" y="133"/>
			<point x="121" y="133" type="curve" smooth="yes"/>
			<point x="145" y="133"/>
			<point x="168" y="148"/>
			<point x="177" y="167" type="curve"/>
			<point x="154" y="167" type="line"/>
			<point x="166" y="162"/>
			<point x="177" y="148"/>
			<point x="177" y="124" type="curve" smooth="yes"/>
			<point x="177" y="81"/>
			<point x="134" y="53"/>
			<point x="69" y="43" type="curve"/>
		</contour>
		<contour>
			<point x="82" y="382" type="line"/>
			<point x="195" y="389"/>
			<point x="258" y="447"/>
			<point x="258" y="541" type="curve" smooth="yes"/>
			<point x="258" y="618"/>
			<point x="208" y="666"/>
			<point x="138" y="666" type="curve" smooth="yes"/>
			<point x="84" y="666"/>
			<point x="52" y="637"/>
			<point x="52" y="593" type="curve" smooth="yes"/>
			<point x="52" y="553"/>
			<point x="82" y="527"/>
			<point x="121" y="527" type="curve" smooth="yes"/>
			<point x="145" y="527"/>
			<point x="168" y="542"/>
			<point x="177" y="562" type="curve"/>
			<point x="154" y="562" type="line"/>
			<point x="166" y="557"/>
			<point x="177" y="542"/>
			<point x="177" y="518" type="curve" smooth="yes"/>
			<point x="177" y="476"/>
			<point x="134" y="447"/>
			<point x="69" y="437" type="curve"/>
		</contour>
	</outline>
</glyph>
<glyph name="AinEgypt" format="2">
	<unicode hex="A724"/>
	<advance width="302"/>
	<outline>
		<contour>
			<point x="221" y="373" type="curve"/>
			<point x="234" y="428" type="line"/>
			<point x="169" y="437"/>
			<point x="126" y="472"/>
			<point x="126" y="520" type="curve" smooth="yes"/>
			<point x="126" y="542"/>
			<point x="136" y="557"/>
			<point x="148" y="562" type="curve"/>
			<point x="126" y="562" type="line"/>
			<point x="135" y="542"/>
			<point x="157" y="527"/>
			<point x="181" y="527" type="curve" smooth="yes"/>
			<point x="221" y="527"/>
			<point x="251" y="553"/>
			<point x="251" y="593" type="curve" smooth="yes"/>
			<point x="251" y="637"/>
			<point x="219" y="666"/>
			<point x="161" y="666" type="curve" smooth="yes"/>
			<point x="94" y="666"/>
			<point x="44" y="618"/>
			<point x="44" y="535" type="curve" smooth="yes"/>
			<point x="44" y="442"/>
			<point x="108" y="380"/>
		</contour>
	</outline>
</glyph>
<glyph name="that" format="2">
	<unicode hex="A765"/>
	<advance width="569"/>
	<outline>
		<contour>
			<point x="88" y="-200" type="line"/>
			<point x="187" y="-200" type="line"/>
			<point x="187" y="-40" type="line"/>
			<point x="184" y="43" type="line"/>
			<point x="226" y="8"/>
			<point x="270" y="-12"/>
			<point x="314" y="-12" type="curve" smooth="yes"/>
			<point x="425" y="-12"/>
			<point x="524" y="80"/>
			<point x="524" y="232" type="curve" smooth="yes"/>
			<point x="524" y="369"/>
			<point x="455" y="460"/>
			<point x="331" y="460" type="curve" smooth="yes"/>
			<point x="279" y="460"/>
			<point x="227" y="433"/>
			<point x="184" y="396" type="curve"/>
			<point x="187" y="480" type="line"/>
			<point x="187" y="709" type="line"/>
			<point x="88" y="709" type="line"/>
		</contour>
		<contour>
			<point x="7" y="552" type="line"/>
			<point x="365" y="552" type="line"/>
			<point x="365" y="621" type="line"/>
			<point x="93" y="621" type="line"/>
			<point x="7" y="616" type="line"/>
		</contour>
		<contour>
			<point x="422" y="231" type="curve" smooth="yes"/>
			<point x="422" y="132"/>
			<point x="368" y="70"/>
			<point x="295" y="70" type="curve" smooth="yes"/>
			<point x="265" y="70"/>
			<point x="226" y="83"/>
			<point x="187" y="116" type="curve"/>
			<point x="187" y="317" type="line"/>
			<point x="228" y="357"/>
			<point x="267" y="378"/>
			<point x="305" y="378" type="curve" smooth="yes"/>
			<point x="388" y="378"/>
			<point x="422" y="318"/>
		</contour>
	</outline>
</glyph>
<glyph name="Finsular" format="2">
	<unicode hex="A77B"/>
	<advance width="574"/>
	<outline>
		<contour>
			<point x="86" y="-157" type="line"/>
			<point x="186" y="-157" type="line"/>
			<point x="186" y="0" type="line"/>
			<point x="456" y="0" type="line"/>
			<point x="456" y="84" type="line"/>
			<point x="186" y="84" type="line"/>
			<point x="186" y="488" type="line"/>
			<point x="223" y="541"/>
			<point x="281" y="580"/>
			<point x="328" y="580" type="curve" smooth="yes"/>
			<point x="396" y="580"/>
			<point x="436" y="540"/>
			<point x="436" y="420" type="curve" smooth="yes"/>
			<point x="436" y="360" type="line"/>
			<point x="536" y="372" type="line"/>
			<point x="536" y="432" type="line" smooth="yes"/>
			<point x="536" y="600"/>
			<point x="467" y="667"/>
			<point x="356" y="667" type="curve" smooth="yes"/>
			<point x="290" y="667"/>
			<point x="229" y="630"/>
			<point x="184" y="578" type="curve"/>
			<point x="184" y="655" type="line"/>
			<point x="86" y="655" type="line"/>
		</contour>
	</outline>
	<anchor name="aboveUC" x="334" y="677"/>
	<anchor name="belowLC" x="139" y="-161"/>
</glyph>
<glyph name="ginsularturned" format="2">
	<unicode hex="A77F"/>
	<advance width="492"/>
	<outline>
		<contour>
			<point x="31" y="-200" type="line"/>
			<point x="464" y="-200" type="line"/>
			<point x="464" y="-120" type="line"/>
			<point x="338" y="-120" type="line"/>
			<point x="338" y="-116" type="line"/>
			<point x="393" y="-87"/>
			<point x="430" y="-38"/>
			<point x="430" y="27" type="curve" smooth="yes"/>
			<point x="430" y="108"/>
			<point x="386" y="154"/>
			<point x="329" y="193" type="curve"/>
			<point x="329" y="197" type="line"/>
			<point x="403" y="232"/>
			<point x="450" y="284"/>
			<point x="450" y="354" type="curve" smooth="yes"/>
			<point x="450" y="452"/>
			<point x="360" y="501"/>
			<point x="245" y="501" type="curve" smooth="yes"/>
			<point x="98" y="501"/>
			<point x="15" y="429"/>
			<point x="15" y="330" type="curve" smooth="yes"/>
			<point x="15" y="242"/>
			<point x="61" y="209"/>
			<point x="183" y="164" type="curve" smooth="yes"/>
			<point x="285" y="125"/>
			<point x="334" y="81"/>
			<point x="334" y="10" type="curve" smooth="yes"/>
			<point x="334" y="-58"/>
			<point x="283" y="-119"/>
			<point x="168" y="-120" type="curve" smooth="yes"/>
			<point x="101" y="-120" type="line"/>
			<point x="31" y="-126" type="line"/>
		</contour>
		<contour>
			<point x="279" y="222" type="curve"/>
			<point x="190" y="264"/>
			<point x="109" y="269"/>
			<point x="109" y="342" type="curve" smooth="yes"/>
			<point x="109" y="389"/>
			<point x="150" y="430"/>
			<point x="236" y="430" type="curve" smooth="yes"/>
			<point x="313" y="430"/>
			<point x="365" y="397"/>
			<point x="365" y="339" type="curve" smooth="yes"/>
			<point x="365" y="289"/>
			<point x="337" y="256"/>
		</contour>
	</outline>
	<anchor name="aboveLC" x="244" y="512"/>
	<anchor name="belowLC" x="239" y="-203"/>
</glyph>
<glyph name="lturned" format="2">
	<unicode hex="A781"/>
	<advance width="263"/>
	<outline>
		<contour>
			<point x="86" y="-200" type="line"/>
			<point x="185" y="-200" type="line"/>
			<point x="185" y="374" type="line" smooth="yes"/>
			<point x="185" y="452"/>
			<point x="157" y="499"/>
			<point x="85" y="499" type="curve" smooth="yes"/>
			<point x="61" y="499"/>
			<point x="44" y="495"/>
			<point x="31" y="489" type="curve"/>
			<point x="44" y="415" type="line"/>
			<point x="52" y="417"/>
			<point x="56" y="417"/>
			<point x="61" y="417" type="curve" smooth="yes"/>
			<point x="74" y="417"/>
			<point x="86" y="408"/>
			<point x="86" y="380" type="curve" smooth="yes"/>
		</contour>
	</outline>
	<anchor name="aboveLC" x="115" y="512"/>
	<anchor name="belowLC" x="135" y="-203"/>
</glyph>
<glyph name="rinsular" format="2">
	<unicode hex="A783"/>
	<advance width="521"/>
	<outline>
		<contour>
			<point x="78" y="-200" type="line"/>
			<point x="177" y="-200" type="line"/>
			<point x="177" y="329" type="line"/>
			<point x="224" y="394"/>
			<point x="262" y="419"/>
			<point x="308" y="419" type="curve" smooth="yes"/>
			<point x="355" y="419"/>
			<point x="386" y="388"/>
			<point x="386" y="332" type="curve" smooth="yes"/>
			<point x="386" y="250"/>
			<point x="352" y="179"/>
			<point x="248" y="108" type="curve"/>
			<point x="275" y="16"/>
			<point x="351" y="-12"/>
			<point x="432" y="-12" type="curve" smooth="yes"/>
			<point x="460" y="-12"/>
			<point x="482" y="-5"/>
			<point x="497" y="2" type="curve"/>
			<point x="480" y="76" type="line"/>
			<point x="468" y="72"/>
			<point x="457" y="69"/>
			<point x="441" y="69" type="curve" smooth="yes"/>
			<point x="404" y="69"/>
			<point x="361" y="83"/>
			<point x="348" y="112" type="curve"/>
			<point x="443" y="179"/>
			<point x="488" y="255"/>
			<point x="488" y="351" type="curve" smooth="yes"/>
			<point x="488" y="449"/>
			<point x="425" y="501"/>
			<point x="331" y="501" type="curve" smooth="yes"/>
			<point x="265" y="501"/>
			<point x="215" y="466"/>
			<point x="170" y="413" type="curve"/>
			<point x="167" y="413" type="line"/>
			<point x="159" y="489" type="line"/>
			<point x="78" y="489" type="line"/>
		</contour>
	</outline>
	<anchor name="aboveLC" x="299" y="512"/>
	<anchor name="belowLC" x="129" y="-203"/>
</glyph>
<glyph name="sinsular" format="2">
	<unicode hex="A785"/>
	<advance width="380"/>
	<outline>
		<contour>
			<point x="78" y="-200" type="line"/>
			<point x="177" y="-200" type="line"/>
			<point x="177" y="306" type="line"/>
			<point x="208" y="384"/>
			<point x="262" y="412"/>
			<point x="306" y="412" type="curve" smooth="yes"/>
			<point x="329" y="412"/>
			<point x="343" y="408"/>
			<point x="360" y="401" type="curve"/>
			<point x="382" y="487" type="line"/>
			<point x="364" y="495"/>
			<point x="345" y="501"/>
			<point x="319" y="501" type="curve" smooth="yes"/>
			<point x="261" y="501"/>
			<point x="204" y="463"/>
			<point x="170" y="401" type="curve"/>
			<point x="167" y="401" type="line"/>
			<point x="159" y="489" type="line"/>
			<point x="78" y="489" type="line"/>
		</contour>
	</outline>
	<anchor name="aboveLC" x="239" y="512"/>
	<anchor name="belowLC" x="129" y="-203"/>
</glyph>
<glyph name="tinsular" format="2">
	<unicode hex="A787"/>
	<advance width="436"/>
	<outline>
		<contour>
			<point x="266" y="-12" type="curve" smooth="yes"/>
			<point x="326" y="-12"/>
			<point x="376" y="14"/>
			<point x="412" y="48" type="curve"/>
			<point x="372" y="108" type="line"/>
			<point x="345" y="86"/>
			<point x="318" y="69"/>
			<point x="278" y="69" type="curve" smooth="yes"/>
			<point x="211" y="69"/>
			<point x="160" y="122"/>
			<point x="160" y="202" type="curve" smooth="yes"/>
			<point x="160" y="306"/>
			<point x="227" y="409"/>
			<point x="350" y="409" type="curve" smooth="yes"/>
			<point x="407" y="409" type="line"/>
			<point x="407" y="489" type="line"/>
			<point x="93" y="489" type="line"/>
			<point x="22" y="483" type="line"/>
			<point x="22" y="409" type="line"/>
			<point x="177" y="409" type="line"/>
			<point x="177" y="405" type="line"/>
			<point x="114" y="367"/>
			<point x="58" y="289"/>
			<point x="58" y="187" type="curve" smooth="yes"/>
			<point x="58" y="62"/>
			<point x="150" y="-12"/>
		</contour>
	</outline>
	<anchor name="aboveLC" x="240" y="512"/>
	<anchor name="belowLC" x="249" y="-22"/>
</glyph>
<glyph name="I.a" format="2">
	<unicode hex="A7AE"/>
	<advance width="356"/>
	<outline>
		<contour>
			<point x="48" y="0" type="line"/>
			<point x="309" y="0" type="line"/>
			<point x="309" y="84" type="line"/>
			<point x="228" y="84" type="line"/>
			<point x="228" y="571" type="line"/>
			<point x="309" y="571" type="line"/>
			<point x="309" y="655" type="line"/>
			<point x="48" y="655" type="line"/>
			<point x="48" y="571" type="line"/>
			<point x="128" y="571" type="line"/>
			<point x="128" y="84" type="line"/>
			<point x="48" y="84" type="line"/>
		</contour>
	</outline>
	<anchor name="aboveUC" x="179" y="677"/>
	<anchor name="belowLC" x="179" y="-22"/>
	<anchor name="ogonekUC" x="176" y="0"/>
</glyph>
<glyph name="tshook" format="2">
	<unicode hex="AB67"/>
	<advance width="669"/>
	<outline>
		<contour>
			<point x="451" y="-212" type="curve" smooth="yes"/>
			<point x="481" y="-212"/>
			<point x="505" y="-205"/>
			<point x="522" y="-199" type="curve"/>
			<point x="503" y="-126" type="line"/>
			<point x="490" y="-130"/>
			<point x="475" y="-134"/>
			<point x="459" y="-134" type="curve" smooth="yes"/>
			<point x="415" y="-134"/>
			<point x="399" y="-104"/>
			<point x="399" y="-39" type="curve" smooth="yes"/>
			<point x="399" y="13" type="line"/>
			<point x="316" y="36" type="line"/>
			<point x="316" y="-40" type="line" smooth="yes"/>
			<point x="316" y="-142"/>
			<point x="352" y="-212"/>
		</contour>
		<component base="ts"/>
	</outline>
	<anchor name="aboveLC" x="374" y="647"/>
	<anchor name="belowLC" x="365" y="-203"/>
</glyph>
<glyph name="marcaregistrada" format="2">
	<unicode hex="1F16C"/>
	<advance width="670"/>
	<outline>
		<contour>
			<point x="27" y="365" type="line"/>
			<point x="91" y="365" type="line"/>
			<point x="91" y="491" type="line"/>
			<point x="83" y="599" type="line"/>
			<point x="87" y="599" type="line"/>
			<point x="156" y="412" type="line"/>
			<point x="208" y="412" type="line"/>
			<point x="277" y="599" type="line"/>
			<point x="281" y="599" type="line"/>
			<point x="273" y="491" type="line"/>
			<point x="273" y="365" type="line"/>
			<point x="337" y="365" type="line"/>
			<point x="337" y="676" type="line"/>
			<point x="255" y="676" type="line"/>
			<point x="211" y="564" type="line"/>
			<point x="184" y="489" type="line"/>
			<point x="180" y="489" type="line"/>
			<point x="154" y="564" type="line"/>
			<point x="109" y="676" type="line"/>
			<point x="27" y="676" type="line"/>
		</contour>
		<contour>
			<point x="411" y="365" type="line"/>
			<point x="479" y="365" type="line"/>
			<point x="479" y="477" type="line"/>
			<point x="529" y="477" type="line" smooth="yes"/>
			<point x="597" y="477"/>
			<point x="649" y="513"/>
			<point x="649" y="586" type="curve" smooth="yes"/>
			<point x="649" y="653"/>
			<point x="599" y="676"/>
			<point x="534" y="676" type="curve" smooth="yes"/>
			<point x="411" y="676" type="line"/>
		</contour>
		<contour>
			<point x="479" y="528" type="line"/>
			<point x="479" y="624" type="line"/>
			<point x="521" y="624" type="line" smooth="yes"/>
			<point x="561" y="624"/>
			<point x="582" y="611"/>
			<point x="582" y="579" type="curve" smooth="yes"/>
			<point x="582" y="545"/>
			<point x="561" y="528"/>
			<point x="521" y="528" type="curve" smooth="yes"/>
		</contour>
		<contour>
			<point x="585" y="365" type="line"/>
			<point x="662" y="365" type="line"/>
			<point x="564" y="534" type="line"/>
			<point x="509" y="503" type="line"/>
		</contour>
	</outline>
</glyph>
<glyph name="publicdomain" format="2">
	<unicode hex="1F16E"/>
	<advance width="746"/>
	<outline>
		<contour>
			<point x="625" y="135" type="line"/>
			<point x="652" y="172" type="line"/>
			<point x="120" y="507" type="line"/>
			<point x="92" y="469" type="line"/>
		</contour>
		<component base="copyright"/>
	</outline>
</glyph>
<glyph name="A.sc" format="2">
	<advance width="479"/>
	<outline>
		<contour>
			<point x="0" y="0" type="line"/>
			<point x="101" y="0" type="line"/>
			<point x="188" y="275" type="line" smooth="yes"/>
			<point x="204" y="330"/>
			<point x="219" y="386"/>
			<point x="235" y="443" type="curve"/>
			<point x="239" y="443" type="line"/>
			<point x="256" y="387"/>
			<point x="271" y="331"/>
			<point x="288" y="275" type="curve" smooth="yes"/>
			<point x="374" y="0" type="line"/>
			<point x="479" y="0" type="line"/>
			<point x="297" y="521" type="line"/>
			<point x="182" y="521" type="line"/>
		</contour>
		<contour>
			<point x="108" y="134" type="line"/>
			<point x="370" y="134" type="line"/>
			<point x="370" y="212" type="line"/>
			<point x="108" y="212" type="line"/>
		</contour>
	</outline>
	<anchor name="aboveUC" x="239" y="562"/>
	<anchor name="belowLC" x="239" y="-22"/>
	<anchor name="ogonekUC" x="411" y="0"/>
</glyph>
<glyph name="B.sc" format="2">
	<advance width="531"/>
	<outline>
		<contour>
			<point x="86" y="0" type="line"/>
			<point x="278" y="0" type="line" smooth="yes"/>
			<point x="401" y="0"/>
			<point x="493" y="47"/>
			<point x="493" y="153" type="curve" smooth="yes"/>
			<point x="493" y="222"/>
			<point x="447" y="262"/>
			<point x="372" y="275" type="curve"/>
			<point x="372" y="279" type="line"/>
			<point x="435" y="295"/>
			<point x="464" y="343"/>
			<point x="464" y="392" type="curve" smooth="yes"/>
			<point x="464" y="489"/>
			<point x="379" y="521"/>
			<point x="264" y="521" type="curve" smooth="yes"/>
			<point x="86" y="521" type="line"/>
		</contour>
		<contour>
			<point x="186" y="307" type="line"/>
			<point x="186" y="442" type="line"/>
			<point x="268" y="442" type="line" smooth="yes"/>
			<point x="338" y="442"/>
			<point x="372" y="423"/>
			<point x="372" y="380" type="curve" smooth="yes"/>
			<point x="372" y="333"/>
			<point x="340" y="307"/>
			<point x="267" y="307" type="curve" smooth="yes"/>
		</contour>
		<contour>
			<point x="186" y="79" type="line"/>
			<point x="186" y="235" type="line"/>
			<point x="275" y="235" type="line" smooth="yes"/>
			<point x="352" y="235"/>
			<point x="396" y="211"/>
			<point x="396" y="159" type="curve" smooth="yes"/>
			<point x="396" y="103"/>
			<point x="351" y="79"/>
			<point x="275" y="79" type="curve" smooth="yes"/>
		</contour>
	</outline>
	<anchor name="aboveUC" x="277" y="562"/>
	<anchor name="belowLC" x="287" y="-22"/>
</glyph>
<glyph name="Bstroke.sc" format="2">
	<advance width="553"/>
	<outline>
		<contour>
			<point x="28" y="124" type="line"/>
			<point x="328" y="124" type="line"/>
			<point x="328" y="197" type="line"/>
			<point x="111" y="197" type="line"/>
			<point x="28" y="193" type="line"/>
		</contour>
		<contour>
			<point x="108" y="0" type="line"/>
			<point x="300" y="0" type="line" smooth="yes"/>
			<point x="423" y="0"/>
			<point x="514" y="47"/>
			<point x="514" y="153" type="curve" smooth="yes"/>
			<point x="514" y="228"/>
			<point x="469" y="271"/>
			<point x="394" y="285" type="curve"/>
			<point x="394" y="289" type="line"/>
			<point x="456" y="305"/>
			<point x="485" y="350"/>
			<point x="485" y="397" type="curve" smooth="yes"/>
			<point x="485" y="489"/>
			<point x="401" y="521"/>
			<point x="285" y="521" type="curve" smooth="yes"/>
			<point x="108" y="521" type="line"/>
		</contour>
		<contour>
			<point x="208" y="320" type="line"/>
			<point x="208" y="452" type="line"/>
			<point x="290" y="452" type="line" smooth="yes"/>
			<point x="358" y="452"/>
			<point x="393" y="433"/>
			<point x="393" y="389" type="curve" smooth="yes"/>
			<point x="393" y="346"/>
			<point x="364" y="320"/>
			<point x="289" y="320" type="curve" smooth="yes"/>
		</contour>
		<contour>
			<point x="208" y="68" type="line"/>
			<point x="208" y="247" type="line"/>
			<point x="295" y="247" type="line" smooth="yes"/>
			<point x="377" y="247"/>
			<point x="422" y="219"/>
			<point x="422" y="160" type="curve" smooth="yes"/>
			<point x="422" y="96"/>
			<point x="375" y="68"/>
			<point x="295" y="68" type="curve" smooth="yes"/>
		</contour>
	</outline>
</glyph>
<glyph name="Che.sc" format="2">
	<advance width="550"/>
	<outline>
		<contour>
			<point x="363" y="0" type="line"/>
			<point x="464" y="0" type="line"/>
			<point x="464" y="521" type="line"/>
			<point x="363" y="521" type="line"/>
			<point x="363" y="297" type="line"/>
			<point x="343" y="293"/>
			<point x="319" y="290"/>
			<point x="283" y="290" type="curve" smooth="yes"/>
			<point x="203" y="290"/>
			<point x="163" y="317"/>
			<point x="163" y="394" type="curve" smooth="yes"/>
			<point x="163" y="521" type="line"/>
			<point x="65" y="521" type="line"/>
			<point x="65" y="394" type="line" smooth="yes"/>
			<point x="65" y="259"/>
			<point x="143" y="212"/>
			<point x="271" y="212" type="curve" smooth="yes"/>
			<point x="311" y="212"/>
			<point x="338" y="215"/>
			<point x="363" y="220" type="curve"/>
		</contour>
	</outline>
</glyph>
<glyph name="Chedescender.sc" format="2">
	<advance width="559"/>
	<outline>
		<contour>
			<point x="441" y="-172" type="line"/>
			<point x="526" y="-172" type="line"/>
			<point x="536" y="18" type="line"/>
			<point x="536" y="83" type="line"/>
			<point x="405" y="83" type="line"/>
			<point x="405" y="0" type="line"/>
			<point x="441" y="0" type="line"/>
		</contour>
		<component base="Che.sc"/>
	</outline>
</glyph>
<glyph name="De.as" format="2">
	<advance width="562"/>
	<outline>
		<contour>
			<point x="112" y="-172" type="line"/>
			<point x="112" y="0" type="line"/>
			<point x="455" y="0" type="line"/>
			<point x="455" y="-172" type="line"/>
			<point x="540" y="-172" type="line"/>
			<point x="550" y="18" type="line"/>
			<point x="550" y="83" type="line"/>
			<point x="17" y="83" type="line"/>
			<point x="17" y="18" type="line"/>
			<point x="27" y="-172" type="line"/>
		</contour>
		<component base="El.as" xOffset="57"/>
	</outline>
</glyph>
<glyph name="De.sc" format="2">
	<advance width="573"/>
	<outline>
		<contour>
			<point x="118" y="-172" type="line"/>
			<point x="118" y="0" type="line"/>
			<point x="460" y="0" type="line"/>
			<point x="460" y="-172" type="line"/>
			<point x="546" y="-172" type="line"/>
			<point x="555" y="18" type="line"/>
			<point x="555" y="83" type="line"/>
			<point x="22" y="83" type="line"/>
			<point x="22" y="18" type="line"/>
			<point x="32" y="-172" type="line"/>
		</contour>
		<contour>
			<point x="383" y="29" type="line"/>
			<point x="483" y="29" type="line"/>
			<point x="483" y="521" type="line"/>
			<point x="174" y="521" type="line"/>
			<point x="156" y="417"/>
			<point x="146" y="360"/>
			<point x="126" y="265" type="curve" smooth="yes"/>
			<point x="99" y="135"/>
			<point x="72" y="91"/>
			<point x="48" y="82" type="curve"/>
			<point x="68" y="23" type="line"/>
			<point x="139" y="27"/>
			<point x="185" y="100"/>
			<point x="215" y="251" type="curve" smooth="yes"/>
			<point x="230" y="324"/>
			<point x="237" y="366"/>
			<point x="251" y="439" type="curve"/>
			<point x="383" y="439" type="line"/>
		</contour>
	</outline>
</glyph>
<glyph name="Delta.sc" format="2">
	<advance width="529"/>
	<outline>
		<contour>
			<point x="31" y="0" type="line"/>
			<point x="498" y="0" type="line"/>
			<point x="498" y="59" type="line"/>
			<point x="322" y="521" type="line"/>
			<point x="207" y="521" type="line"/>
			<point x="31" y="59" type="line"/>
		</contour>
		<contour>
			<point x="137" y="82" type="line"/>
			<point x="209" y="281" type="line"/>
			<point x="261" y="443" type="line"/>
			<point x="265" y="443" type="line"/>
			<point x="318" y="281" type="line"/>
			<point x="391" y="82" type="line"/>
		</contour>
	</outline>
	<anchor name="aboveUC" x="262" y="562"/>
</glyph>
<glyph name="Dje.sc" format="2">
	<advance width="602"/>
	<outline>
		<contour>
			<point x="400" y="-10" type="curve" smooth="yes"/>
			<point x="485" y="-10"/>
			<point x="557" y="33"/>
			<point x="557" y="148" type="curve" smooth="yes"/>
			<point x="557" y="269"/>
			<point x="465" y="317"/>
			<point x="356" y="317" type="curve" smooth="yes"/>
			<point x="320" y="317"/>
			<point x="295" y="314"/>
			<point x="269" y="309" type="curve"/>
			<point x="269" y="438" type="line"/>
			<point x="454" y="438" type="line"/>
			<point x="454" y="521" type="line"/>
			<point x="27" y="521" type="line"/>
			<point x="27" y="438" type="line"/>
			<point x="169" y="438" type="line"/>
			<point x="169" y="0" type="line"/>
			<point x="269" y="0" type="line"/>
			<point x="269" y="232" type="line"/>
			<point x="290" y="236"/>
			<point x="312" y="239"/>
			<point x="345" y="239" type="curve" smooth="yes"/>
			<point x="418" y="239"/>
			<point x="460" y="211"/>
			<point x="460" y="150" type="curve" smooth="yes"/>
			<point x="460" y="91"/>
			<point x="422" y="69"/>
			<point x="388" y="69" type="curve" smooth="yes"/>
			<point x="379" y="69"/>
			<point x="368" y="71"/>
			<point x="361" y="73" type="curve"/>
			<point x="343" y="-1" type="line"/>
			<point x="360" y="-8"/>
			<point x="378" y="-10"/>
		</contour>
	</outline>
</glyph>
<glyph name="Enhook.sc" format="2">
	<advance width="601"/>
	<outline>
		<contour>
			<point x="387" y="-156" type="curve" smooth="yes"/>
			<point x="482" y="-156"/>
			<point x="515" y="-86"/>
			<point x="515" y="15" type="curve" smooth="yes"/>
			<point x="515" y="521" type="line"/>
			<point x="415" y="521" type="line"/>
			<point x="415" y="314" type="line"/>
			<point x="186" y="314" type="line"/>
			<point x="186" y="521" type="line"/>
			<point x="86" y="521" type="line"/>
			<point x="86" y="0" type="line"/>
			<point x="186" y="0" type="line"/>
			<point x="186" y="228" type="line"/>
			<point x="415" y="228" type="line"/>
			<point x="415" y="17" type="line" smooth="yes"/>
			<point x="415" y="-44"/>
			<point x="407" y="-78"/>
			<point x="371" y="-78" type="curve" smooth="yes"/>
			<point x="361" y="-78"/>
			<point x="347" y="-76"/>
			<point x="335" y="-72" type="curve"/>
			<point x="317" y="-145" type="line"/>
			<point x="333" y="-151"/>
			<point x="357" y="-156"/>
		</contour>
	</outline>
</glyph>
<glyph name="Eth.sc" format="2">
	<advance width="582"/>
	<outline>
		<contour>
			<point x="28" y="234" type="line"/>
			<point x="327" y="234" type="line"/>
			<point x="327" y="310" type="line"/>
			<point x="110" y="310" type="line"/>
			<point x="28" y="306" type="line"/>
		</contour>
		<component base="D.sc" xOffset="22"/>
	</outline>
</glyph>
<glyph name="Iogonek.a" format="2">
	<advance width="356"/>
	<outline>
		<contour>
			<point x="186" y="-221" type="curve" smooth="yes"/>
			<point x="221" y="-221"/>
			<point x="259" y="-206"/>
			<point x="281" y="-188" type="curve"/>
			<point x="256" y="-131" type="line"/>
			<point x="242" y="-141"/>
			<point x="226" y="-148"/>
			<point x="207" y="-148" type="curve" smooth="yes"/>
			<point x="179" y="-148"/>
			<point x="155" y="-134"/>
			<point x="155" y="-101" type="curve" smooth="yes"/>
			<point x="155" y="-54"/>
			<point x="202" y="0"/>
			<point x="249" y="0" type="curve" smooth="yes"/>
			<point x="309" y="0" type="line"/>
			<point x="309" y="84" type="line"/>
			<point x="228" y="84" type="line"/>
			<point x="228" y="571" type="line"/>
			<point x="309" y="571" type="line"/>
			<point x="309" y="655" type="line"/>
			<point x="48" y="655" type="line"/>
			<point x="48" y="571" type="line"/>
			<point x="128" y="571" type="line"/>
			<point x="128" y="84" type="line"/>
			<point x="48" y="84" type="line"/>
			<point x="48" y="0" type="line"/>
			<point x="151" y="0" type="line"/>
			<point x="115" y="-23"/>
			<point x="75" y="-69"/>
			<point x="75" y="-127" type="curve" smooth="yes"/>
			<point x="75" y="-189"/>
			<point x="125" y="-221"/>
		</contour>
	</outline>
	<anchor name="aboveUC" x="179" y="677"/>
</glyph>
<glyph name="Iotalatin.a" format="2">
	<advance width="356"/>
	<outline>
		<contour>
			<point x="48" y="571" type="line"/>
			<point x="309" y="571" type="line"/>
			<point x="309" y="655" type="line"/>
			<point x="48" y="655" type="line"/>
		</contour>
		<component base="Iotalatin" xOffset="42"/>
	</outline>
	<anchor name="aboveUC" x="179" y="677"/>
	<anchor name="belowLC" x="206" y="-22"/>
</glyph>
<glyph name="Iotalatin.as" format="2">
	<advance width="356"/>
	<outline>
		<contour>
			<point x="48" y="441" type="line"/>
			<point x="309" y="441" type="line"/>
			<point x="309" y="521" type="line"/>
			<point x="48" y="521" type="line"/>
		</contour>
		<component base="Iotalatin.sc" xOffset="42"/>
	</outline>
	<anchor name="aboveUC" x="179" y="562"/>
	<anchor name="belowLC" x="204" y="-22"/>
</glyph>
<glyph name="Kabashkir.sc" format="2">
	<advance width="634"/>
	<outline>
		<contour>
			<point x="297" y="521" type="line"/>
			<point x="27" y="521" type="line"/>
			<point x="27" y="437" type="line"/>
			<point x="197" y="437" type="line"/>
		</contour>
		<component base="Ka.sc" xOffset="110"/>
	</outline>
</glyph>
<glyph name="Kadescender.as" format="2">
	<advance width="579"/>
	<outline>
		<contour>
			<point x="461" y="-172" type="line"/>
			<point x="546" y="-172" type="line"/>
			<point x="556" y="18" type="line"/>
			<point x="556" y="83" type="line"/>
			<point x="438" y="83" type="line"/>
			<point x="438" y="0" type="line"/>
			<point x="461" y="0" type="line"/>
		</contour>
		<component base="Ka.as"/>
	</outline>
</glyph>
<glyph name="L.sc" format="2">
	<advance width="446"/>
	<outline>
		<contour>
			<point x="86" y="0" type="line"/>
			<point x="416" y="0" type="line"/>
			<point x="416" y="82" type="line"/>
			<point x="186" y="82" type="line"/>
			<point x="186" y="521" type="line"/>
			<point x="86" y="521" type="line"/>
		</contour>
	</outline>
	<anchor name="aboveUC" x="139" y="562"/>
	<anchor name="belowLC" x="265" y="-22"/>
	<anchor name="center" x="139" y="279"/>
</glyph>
<glyph name="Lje.as" format="2">
	<advance width="699"/>
	<outline>
		<contour>
			<point x="-2" y="0" type="line"/>
			<point x="98" y="0" type="line"/>
			<point x="176" y="258" type="line" smooth="yes"/>
			<point x="194" y="317"/>
			<point x="207" y="368"/>
			<point x="225" y="427" type="curve"/>
			<point x="229" y="427" type="line"/>
			<point x="246" y="368"/>
			<point x="258" y="317"/>
			<point x="276" y="258" type="curve" smooth="yes"/>
			<point x="354" y="0" type="line"/>
			<point x="445" y="0" type="line" smooth="yes"/>
			<point x="569" y="0"/>
			<point x="659" y="46"/>
			<point x="659" y="166" type="curve" smooth="yes"/>
			<point x="659" y="282"/>
			<point x="571" y="326"/>
			<point x="446" y="326" type="curve" smooth="yes"/>
			<point x="350" y="326" type="line"/>
			<point x="287" y="521" type="line"/>
			<point x="169" y="521" type="line"/>
		</contour>
		<contour>
			<point x="434" y="80" type="line"/>
			<point x="375" y="250" type="line"/>
			<point x="436" y="250" type="line" smooth="yes"/>
			<point x="522" y="250"/>
			<point x="564" y="226"/>
			<point x="564" y="169" type="curve" smooth="yes"/>
			<point x="564" y="106"/>
			<point x="518" y="80"/>
			<point x="438" y="80" type="curve" smooth="yes"/>
		</contour>
	</outline>
</glyph>
<glyph name="N.sc" format="2">
	<advance width="591"/>
	<outline>
		<contour>
			<point x="86" y="0" type="line"/>
			<point x="179" y="0" type="line"/>
			<point x="179" y="219" type="line" smooth="yes"/>
			<point x="179" y="277"/>
			<point x="172" y="350"/>
			<point x="166" y="405" type="curve"/>
			<point x="170" y="405" type="line"/>
			<point x="188" y="362"/>
			<point x="210" y="317"/>
			<point x="229" y="283" type="curve" smooth="yes"/>
			<point x="396" y="0" type="line"/>
			<point x="504" y="0" type="line"/>
			<point x="504" y="521" type="line"/>
			<point x="411" y="521" type="line"/>
			<point x="411" y="302" type="line" smooth="yes"/>
			<point x="411" y="243"/>
			<point x="419" y="171"/>
			<point x="424" y="117" type="curve"/>
			<point x="420" y="117" type="line"/>
			<point x="403" y="159"/>
			<point x="381" y="205"/>
			<point x="361" y="238" type="curve" smooth="yes"/>
			<point x="194" y="521" type="line"/>
			<point x="86" y="521" type="line"/>
		</contour>
	</outline>
	<anchor name="aboveUC" x="305" y="562"/>
	<anchor name="belowLC" x="300" y="-22"/>
</glyph>
<glyph name="Nje.sc" format="2">
	<advance width="812"/>
	<outline>
		<contour>
			<point x="86" y="0" type="line"/>
			<point x="186" y="0" type="line"/>
			<point x="186" y="227" type="line"/>
			<point x="400" y="227" type="line"/>
			<point x="400" y="0" type="line"/>
			<point x="559" y="0" type="line" smooth="yes"/>
			<point x="682" y="0"/>
			<point x="771" y="45"/>
			<point x="771" y="166" type="curve" smooth="yes"/>
			<point x="771" y="283"/>
			<point x="683" y="328"/>
			<point x="559" y="328" type="curve" smooth="yes"/>
			<point x="500" y="328" type="line"/>
			<point x="500" y="521" type="line"/>
			<point x="400" y="521" type="line"/>
			<point x="400" y="315" type="line"/>
			<point x="186" y="315" type="line"/>
			<point x="186" y="521" type="line"/>
			<point x="86" y="521" type="line"/>
		</contour>
		<contour>
			<point x="500" y="80" type="line"/>
			<point x="500" y="250" type="line"/>
			<point x="549" y="250" type="line" smooth="yes"/>
			<point x="631" y="250"/>
			<point x="674" y="226"/>
			<point x="674" y="167" type="curve" smooth="yes"/>
			<point x="674" y="106"/>
			<point x="631" y="80"/>
			<point x="549" y="80" type="curve" smooth="yes"/>
		</contour>
	</outline>
</glyph>
<glyph name="P.sc" format="2">
	<advance width="527"/>
	<outline>
		<contour>
			<point x="86" y="0" type="line"/>
			<point x="186" y="0" type="line"/>
			<point x="186" y="184" type="line"/>
			<point x="272" y="184" type="line" smooth="yes"/>
			<point x="395" y="184"/>
			<point x="486" y="241"/>
			<point x="486" y="358" type="curve" smooth="yes"/>
			<point x="486" y="480"/>
			<point x="395" y="521"/>
			<point x="272" y="521" type="curve" smooth="yes"/>
			<point x="86" y="521" type="line"/>
		</contour>
		<contour>
			<point x="186" y="262" type="line"/>
			<point x="186" y="438" type="line"/>
			<point x="265" y="438" type="line" smooth="yes"/>
			<point x="349" y="438"/>
			<point x="389" y="419"/>
			<point x="389" y="353" type="curve" smooth="yes"/>
			<point x="389" y="292"/>
			<point x="352" y="262"/>
			<point x="266" y="262" type="curve" smooth="yes"/>
		</contour>
	</outline>
	<anchor name="aboverightUC" x="449" y="562"/>
	<anchor name="aboveUC" x="288" y="562"/>
	<anchor name="belowLC" x="143" y="-22"/>
</glyph>
<glyph name="Psi.sc" format="2">
	<advance width="640"/>
	<outline>
		<contour>
			<point x="301" y="182" type="curve" smooth="yes"/>
			<point x="339" y="182" type="line" smooth="yes"/>
			<point x="489" y="182"/>
			<point x="579" y="242"/>
			<point x="579" y="391" type="curve" smooth="yes"/>
			<point x="579" y="521" type="line"/>
			<point x="484" y="521" type="line"/>
			<point x="484" y="397" type="line" smooth="yes"/>
			<point x="484" y="294"/>
			<point x="435" y="258"/>
			<point x="344" y="258" type="curve" smooth="yes"/>
			<point x="296" y="258" type="line" smooth="yes"/>
			<point x="205" y="258"/>
			<point x="156" y="294"/>
			<point x="156" y="397" type="curve" smooth="yes"/>
			<point x="156" y="521" type="line"/>
			<point x="60" y="521" type="line"/>
			<point x="60" y="391" type="line" smooth="yes"/>
			<point x="60" y="242"/>
			<point x="151" y="182"/>
		</contour>
		<contour>
			<point x="274" y="0" type="line"/>
			<point x="366" y="0" type="line"/>
			<point x="366" y="521" type="line"/>
			<point x="274" y="521" type="line"/>
		</contour>
	</outline>
</glyph>
<glyph name="R.sc" format="2">
	<advance width="534"/>
	<outline>
		<contour>
			<point x="86" y="0" type="line"/>
			<point x="186" y="0" type="line"/>
			<point x="186" y="197" type="line"/>
			<point x="276" y="197" type="line" smooth="yes"/>
			<point x="392" y="197"/>
			<point x="480" y="256"/>
			<point x="480" y="364" type="curve" smooth="yes"/>
			<point x="480" y="483"/>
			<point x="390" y="521"/>
			<point x="274" y="521" type="curve" smooth="yes"/>
			<point x="86" y="521" type="line"/>
		</contour>
		<contour>
			<point x="186" y="273" type="line"/>
			<point x="186" y="438" type="line"/>
			<point x="264" y="438" type="line" smooth="yes"/>
			<point x="341" y="438"/>
			<point x="384" y="418"/>
			<point x="384" y="360" type="curve" smooth="yes"/>
			<point x="384" y="301"/>
			<point x="345" y="273"/>
			<point x="264" y="273" type="curve" smooth="yes"/>
		</contour>
		<contour>
			<point x="393" y="0" type="line"/>
			<point x="501" y="0" type="line"/>
			<point x="345" y="250" type="line"/>
			<point x="258" y="225" type="line"/>
		</contour>
	</outline>
	<anchor name="aboveUC" x="287" y="562"/>
	<anchor name="belowLC" x="290" y="-22"/>
</glyph>
<glyph name="Rinsular.x" format="2">
	<advance width="581"/>
	<outline>
		<contour>
			<point x="86" y="0" type="line"/>
			<point x="186" y="0" type="line"/>
			<point x="186" y="486" type="line"/>
			<point x="230" y="553"/>
			<point x="287" y="580"/>
			<point x="334" y="580" type="curve" smooth="yes"/>
			<point x="390" y="580"/>
			<point x="424" y="546"/>
			<point x="424" y="482" type="curve" smooth="yes"/>
			<point x="424" y="419"/>
			<point x="385" y="349"/>
			<point x="254" y="275" type="curve"/>
			<point x="254" y="260" type="line"/>
			<point x="449" y="0" type="line"/>
			<point x="558" y="0" type="line"/>
			<point x="355" y="254" type="line"/>
			<point x="469" y="332"/>
			<point x="523" y="404"/>
			<point x="523" y="500" type="curve" smooth="yes"/>
			<point x="523" y="609"/>
			<point x="460" y="667"/>
			<point x="361" y="667" type="curve" smooth="yes"/>
			<point x="292" y="667"/>
			<point x="234" y="639"/>
			<point x="184" y="577" type="curve"/>
			<point x="184" y="655" type="line"/>
			<point x="86" y="655" type="line"/>
		</contour>
	</outline>
</glyph>
<glyph name="Rrotunda.sc" format="2">
	<advance width="401"/>
	<outline>
		<contour>
			<point x="283" y="-12" type="curve" smooth="yes"/>
			<point x="322" y="-12"/>
			<point x="356" y="-7"/>
			<point x="375" y="3" type="curve"/>
			<point x="358" y="76" type="line"/>
			<point x="343" y="71"/>
			<point x="323" y="68"/>
			<point x="297" y="68" type="curve" smooth="yes"/>
			<point x="240" y="68"/>
			<point x="171" y="85"/>
			<point x="146" y="130" type="curve"/>
			<point x="291" y="215"/>
			<point x="355" y="298"/>
			<point x="355" y="401" type="curve" smooth="yes"/>
			<point x="355" y="481"/>
			<point x="300" y="533"/>
			<point x="209" y="533" type="curve" smooth="yes"/>
			<point x="139" y="533"/>
			<point x="88" y="506"/>
			<point x="34" y="452" type="curve"/>
			<point x="87" y="396" type="line"/>
			<point x="120" y="431"/>
			<point x="151" y="449"/>
			<point x="190" y="449" type="curve" smooth="yes"/>
			<point x="234" y="449"/>
			<point x="260" y="424"/>
			<point x="260" y="376" type="curve" smooth="yes"/>
			<point x="260" y="310"/>
			<point x="203" y="237"/>
			<point x="46" y="152" type="curve"/>
			<point x="79" y="36"/>
			<point x="177" y="-12"/>
		</contour>
	</outline>
	<anchor name="aboveUC" x="225" y="562"/>
	<anchor name="belowLC" x="215" y="-22"/>
</glyph>
<glyph name="S.sc" format="2">
	<advance width="481"/>
	<outline>
		<contour>
			<point x="245" y="-12" type="curve" smooth="yes"/>
			<point x="368" y="-12"/>
			<point x="443" y="55"/>
			<point x="443" y="144" type="curve" smooth="yes"/>
			<point x="443" y="228"/>
			<point x="393" y="260"/>
			<point x="311" y="291" type="curve" smooth="yes"/>
			<point x="249" y="316" type="line" smooth="yes"/>
			<point x="200" y="336"/>
			<point x="170" y="352"/>
			<point x="170" y="390" type="curve" smooth="yes"/>
			<point x="170" y="430"/>
			<point x="203" y="454"/>
			<point x="254" y="454" type="curve" smooth="yes"/>
			<point x="303" y="454"/>
			<point x="348" y="434"/>
			<point x="384" y="405" type="curve"/>
			<point x="432" y="466" type="line"/>
			<point x="390" y="505"/>
			<point x="328" y="533"/>
			<point x="256" y="533" type="curve" smooth="yes"/>
			<point x="146" y="533"/>
			<point x="70" y="474"/>
			<point x="70" y="384" type="curve" smooth="yes"/>
			<point x="70" y="308"/>
			<point x="130" y="269"/>
			<point x="201" y="241" type="curve"/>
			<point x="263" y="216" type="line" smooth="yes"/>
			<point x="309" y="197"/>
			<point x="343" y="181"/>
			<point x="343" y="136" type="curve" smooth="yes"/>
			<point x="343" y="94"/>
			<point x="308" y="67"/>
			<point x="249" y="67" type="curve" smooth="yes"/>
			<point x="189" y="67"/>
			<point x="134" y="89"/>
			<point x="88" y="129" type="curve"/>
			<point x="41" y="65" type="line"/>
			<point x="92" y="17"/>
			<point x="162" y="-12"/>
		</contour>
	</outline>
	<anchor name="aboveUC" x="257" y="562"/>
	<anchor name="baseLC" x="246" y="0"/>
	<anchor name="belowLC" x="261" y="-22"/>
</glyph>
<glyph name="S.sups" format="2">
	<advance width="360"/>
	<outline>
		<contour>
			<point x="183" y="382" type="curve" smooth="yes"/>
			<point x="279" y="382"/>
			<point x="337" y="439"/>
			<point x="337" y="514" type="curve" smooth="yes"/>
			<point x="337" y="572"/>
			<point x="305" y="600"/>
			<point x="249" y="624" type="curve" smooth="yes"/>
			<point x="188" y="651" type="line" smooth="yes"/>
			<point x="154" y="665"/>
			<point x="119" y="679"/>
			<point x="119" y="715" type="curve" smooth="yes"/>
			<point x="119" y="748"/>
			<point x="145" y="769"/>
			<point x="188" y="769" type="curve" smooth="yes"/>
			<point x="228" y="769"/>
			<point x="258" y="753"/>
			<point x="286" y="729" type="curve"/>
			<point x="324" y="775" type="line"/>
			<point x="291" y="809"/>
			<point x="242" y="830"/>
			<point x="191" y="830" type="curve" smooth="yes"/>
			<point x="106" y="830"/>
			<point x="45" y="777"/>
			<point x="45" y="710" type="curve" smooth="yes"/>
			<point x="45" y="647"/>
			<point x="88" y="617"/>
			<point x="134" y="597" type="curve" smooth="yes"/>
			<point x="195" y="571" type="line" smooth="yes"/>
			<point x="235" y="553"/>
			<point x="263" y="541"/>
			<point x="263" y="503" type="curve" smooth="yes"/>
			<point x="263" y="468"/>
			<point x="236" y="444"/>
			<point x="186" y="444" type="curve" smooth="yes"/>
			<point x="143" y="444"/>
			<point x="98" y="461"/>
			<point x="66" y="493" type="curve"/>
			<point x="27" y="445" type="line"/>
			<point x="68" y="405"/>
			<point x="123" y="382"/>
		</contour>
	</outline>
</glyph>
<glyph name="Schwa.sc" format="2">
	<advance width="587"/>
	<outline>
		<contour>
			<point x="294" y="-12" type="curve" smooth="yes"/>
			<point x="436" y="-12"/>
			<point x="537" y="91"/>
			<point x="537" y="261" type="curve" smooth="yes"/>
			<point x="537" y="430"/>
			<point x="439" y="533"/>
			<point x="295" y="533" type="curve" smooth="yes"/>
			<point x="219" y="533"/>
			<point x="155" y="503"/>
			<point x="113" y="464" type="curve"/>
			<point x="158" y="402" type="line"/>
			<point x="193" y="431"/>
			<point x="234" y="452"/>
			<point x="289" y="452" type="curve" smooth="yes"/>
			<point x="384" y="452"/>
			<point x="437" y="382"/>
			<point x="437" y="264" type="curve" smooth="yes"/>
			<point x="437" y="133"/>
			<point x="380" y="68"/>
			<point x="293" y="68" type="curve" smooth="yes"/>
			<point x="215" y="68"/>
			<point x="159" y="119"/>
			<point x="153" y="214" type="curve"/>
			<point x="462" y="214" type="line"/>
			<point x="462" y="294" type="line"/>
			<point x="59" y="294" type="line"/>
			<point x="56" y="277"/>
			<point x="56" y="268"/>
			<point x="56" y="257" type="curve" smooth="yes"/>
			<point x="56" y="92"/>
			<point x="151" y="-12"/>
		</contour>
	</outline>
	<anchor name="aboveUC" x="310" y="562"/>
	<anchor name="belowLC" x="299" y="-22"/>
</glyph>
<glyph name="Shcha.sc" format="2">
	<advance width="794"/>
	<outline>
		<contour>
			<point x="677" y="-172" type="line"/>
			<point x="762" y="-172" type="line"/>
			<point x="772" y="18" type="line"/>
			<point x="772" y="83" type="line"/>
			<point x="640" y="83" type="line"/>
			<point x="640" y="0" type="line"/>
			<point x="677" y="0" type="line"/>
		</contour>
		<component base="Sha.sc"/>
	</outline>
</glyph>
<glyph name="Ucyr.sc" format="2">
	<advance width="456"/>
	<outline>
		<contour>
			<point x="126" y="-12" type="curve" smooth="yes"/>
			<point x="205" y="-12"/>
			<point x="249" y="33"/>
			<point x="281" y="107" type="curve" smooth="yes"/>
			<point x="457" y="521" type="line"/>
			<point x="358" y="521" type="line"/>
			<point x="282" y="336" type="line"/>
			<point x="241" y="221" type="line"/>
			<point x="237" y="221" type="line"/>
			<point x="191" y="336" type="line"/>
			<point x="109" y="521" type="line"/>
			<point x="4" y="521" type="line"/>
			<point x="193" y="129" type="line"/>
			<point x="182" y="108" type="line" smooth="yes"/>
			<point x="170" y="86"/>
			<point x="150" y="74"/>
			<point x="121" y="74" type="curve" smooth="yes"/>
			<point x="105" y="74"/>
			<point x="94" y="76"/>
			<point x="83" y="80" type="curve"/>
			<point x="63" y="-3" type="line"/>
			<point x="78" y="-9"/>
			<point x="99" y="-12"/>
		</contour>
	</outline>
	<anchor name="aboveUC" x="234" y="547"/>
</glyph>
<glyph name="X.sc" format="2">
	<advance width="467"/>
	<outline>
		<contour>
			<point x="14" y="0" type="line"/>
			<point x="120" y="0" type="line"/>
			<point x="186" y="119" type="line" smooth="yes"/>
			<point x="199" y="146"/>
			<point x="212" y="173"/>
			<point x="227" y="204" type="curve"/>
			<point x="231" y="204" type="line"/>
			<point x="247" y="173"/>
			<point x="261" y="146"/>
			<point x="275" y="119" type="curve" smooth="yes"/>
			<point x="343" y="0" type="line"/>
			<point x="453" y="0" type="line"/>
			<point x="294" y="264" type="line"/>
			<point x="443" y="521" type="line"/>
			<point x="337" y="521" type="line"/>
			<point x="279" y="409" type="line" smooth="yes"/>
			<point x="268" y="385"/>
			<point x="255" y="361"/>
			<point x="241" y="329" type="curve"/>
			<point x="237" y="329" type="line"/>
			<point x="221" y="361"/>
			<point x="209" y="385"/>
			<point x="196" y="409" type="curve" smooth="yes"/>
			<point x="133" y="521" type="line"/>
			<point x="24" y="521" type="line"/>
			<point x="172" y="268" type="line"/>
		</contour>
	</outline>
	<anchor name="aboveUC" x="236" y="562"/>
	<anchor name="belowLC" x="243" y="-22"/>
</glyph>
<glyph name="X.sups" format="2">
	<advance width="356"/>
	<outline>
		<contour>
			<point x="8" y="390" type="line"/>
			<point x="86" y="390" type="line"/>
			<point x="140" y="495" type="line" smooth="yes"/>
			<point x="150" y="517"/>
			<point x="162" y="538"/>
			<point x="174" y="565" type="curve"/>
			<point x="176" y="565" type="line"/>
			<point x="190" y="538"/>
			<point x="202" y="517"/>
			<point x="213" y="495" type="curve" smooth="yes"/>
			<point x="267" y="390" type="line"/>
			<point x="348" y="390" type="line"/>
			<point x="224" y="610" type="line"/>
			<point x="341" y="822" type="line"/>
			<point x="263" y="822" type="line"/>
			<point x="214" y="724" type="line" smooth="yes"/>
			<point x="205" y="704"/>
			<point x="196" y="684"/>
			<point x="184" y="658" type="curve"/>
			<point x="181" y="658" type="line"/>
			<point x="168" y="684"/>
			<point x="158" y="704"/>
			<point x="148" y="724" type="curve" smooth="yes"/>
			<point x="98" y="822" type="line"/>
			<point x="16" y="822" type="line"/>
			<point x="134" y="613" type="line"/>
		</contour>
	</outline>
</glyph>
<glyph name="Xi.sc" format="2">
	<advance width="483"/>
	<outline>
		<contour>
			<point x="49" y="0" type="line"/>
			<point x="432" y="0" type="line"/>
			<point x="432" y="83" type="line"/>
			<point x="49" y="83" type="line"/>
		</contour>
		<contour>
			<point x="111" y="230" type="line"/>
			<point x="373" y="230" type="line"/>
			<point x="373" y="312" type="line"/>
			<point x="111" y="312" type="line"/>
		</contour>
		<contour>
			<point x="59" y="438" type="line"/>
			<point x="424" y="438" type="line"/>
			<point x="424" y="521" type="line"/>
			<point x="59" y="521" type="line"/>
		</contour>
	</outline>
</glyph>
<glyph name="Y.sups" format="2">
	<advance width="329"/>
	<outline>
		<contour>
			<point x="129" y="390" type="line"/>
			<point x="202" y="390" type="line"/>
			<point x="202" y="552" type="line"/>
			<point x="333" y="822" type="line"/>
			<point x="257" y="822" type="line"/>
			<point x="208" y="710" type="line" smooth="yes"/>
			<point x="195" y="677"/>
			<point x="182" y="647"/>
			<point x="167" y="614" type="curve"/>
			<point x="165" y="614" type="line"/>
			<point x="150" y="647"/>
			<point x="138" y="677"/>
			<point x="124" y="710" type="curve" smooth="yes"/>
			<point x="74" y="822" type="line"/>
			<point x="-4" y="822" type="line"/>
			<point x="129" y="552" type="line"/>
		</contour>
	</outline>
</glyph>
<glyph name="Yi.a" format="2">
	<advance width="273"/>
	<outline>
		<contour>
			<point x="66" y="711" type="curve" smooth="yes"/>
			<point x="94" y="711"/>
			<point x="115" y="734"/>
			<point x="115" y="766" type="curve" smooth="yes"/>
			<point x="115" y="797"/>
			<point x="94" y="820"/>
			<point x="66" y="820" type="curve" smooth="yes"/>
			<point x="37" y="820"/>
			<point x="16" y="797"/>
			<point x="16" y="766" type="curve" smooth="yes"/>
			<point x="16" y="734"/>
			<point x="37" y="711"/>
		</contour>
		<contour>
			<point x="207" y="711" type="curve" smooth="yes"/>
			<point x="236" y="711"/>
			<point x="257" y="734"/>
			<point x="257" y="766" type="curve" smooth="yes"/>
			<point x="257" y="797"/>
			<point x="236" y="820"/>
			<point x="207" y="820" type="curve" smooth="yes"/>
			<point x="178" y="820"/>
			<point x="158" y="797"/>
			<point x="158" y="766" type="curve" smooth="yes"/>
			<point x="158" y="734"/>
			<point x="178" y="711"/>
		</contour>
		<component base="I"/>
	</outline>
</glyph>
<glyph name="aogonek.d" format="2">
	<advance width="510"/>
	<outline>
		<contour>
			<point x="253" y="-216" type="curve" smooth="yes"/>
			<point x="287" y="-216"/>
			<point x="323" y="-202"/>
			<point x="346" y="-184" type="curve"/>
			<point x="322" y="-130" type="line"/>
			<point x="307" y="-140"/>
			<point x="292" y="-146"/>
			<point x="272" y="-146" type="curve" smooth="yes"/>
			<point x="248" y="-146"/>
			<point x="224" y="-132"/>
			<point x="224" y="-99" type="curve" smooth="yes"/>
			<point x="224" y="-67"/>
			<point x="248" y="-26"/>
			<point x="276" y="-1" type="curve" smooth="yes"/>
			<point x="298" y="20"/>
			<point x="323" y="37"/>
			<point x="348" y="56" type="curve"/>
			<point x="351" y="56" type="line"/>
			<point x="360" y="0" type="line"/>
			<point x="442" y="0" type="line"/>
			<point x="442" y="294" type="line" smooth="yes"/>
			<point x="442" y="424"/>
			<point x="386" y="501"/>
			<point x="266" y="501" type="curve" smooth="yes"/>
			<point x="188" y="501"/>
			<point x="119" y="470"/>
			<point x="69" y="438" type="curve"/>
			<point x="106" y="370" type="line"/>
			<point x="148" y="396"/>
			<point x="196" y="418"/>
			<point x="248" y="418" type="curve" smooth="yes"/>
			<point x="320" y="418"/>
			<point x="342" y="368"/>
			<point x="343" y="313" type="curve"/>
			<point x="139" y="290"/>
			<point x="49" y="239"/>
			<point x="49" y="129" type="curve" smooth="yes"/>
			<point x="49" y="42"/>
			<point x="109" y="-12"/>
			<point x="193" y="-12" type="curve" smooth="yes"/>
			<point x="200" y="-12"/>
			<point x="208" y="-11"/>
			<point x="229" y="-8" type="curve"/>
			<point x="224" y="3" type="line"/>
			<point x="191" y="-22"/>
			<point x="147" y="-67"/>
			<point x="147" y="-122" type="curve" smooth="yes"/>
			<point x="147" y="-186"/>
			<point x="194" y="-216"/>
		</contour>
		<contour>
			<point x="223" y="69" type="curve" smooth="yes"/>
			<point x="179" y="69"/>
			<point x="145" y="88"/>
			<point x="145" y="136" type="curve" smooth="yes"/>
			<point x="145" y="192"/>
			<point x="195" y="225"/>
			<point x="343" y="243" type="curve"/>
			<point x="343" y="126" type="line"/>
			<point x="302" y="88"/>
			<point x="266" y="69"/>
		</contour>
	</outline>
	<anchor name="aboveLC" x="270" y="512"/>
</glyph>
<glyph name="braceleft.sc" format="2">
	<advance width="314"/>
	<outline>
		<contour>
			<point x="230" y="-102" type="curve" smooth="yes"/>
			<point x="279" y="-102" type="line"/>
			<point x="279" y="-47" type="line"/>
			<point x="255" y="-47" type="line" smooth="yes"/>
			<point x="204" y="-47"/>
			<point x="191" y="-28"/>
			<point x="191" y="24" type="curve" smooth="yes"/>
			<point x="191" y="66"/>
			<point x="196" y="101"/>
			<point x="196" y="145" type="curve" smooth="yes"/>
			<point x="196" y="208"/>
			<point x="177" y="239"/>
			<point x="132" y="251" type="curve"/>
			<point x="132" y="255" type="line"/>
			<point x="177" y="266"/>
			<point x="196" y="296"/>
			<point x="196" y="361" type="curve" smooth="yes"/>
			<point x="196" y="405"/>
			<point x="191" y="440"/>
			<point x="191" y="482" type="curve" smooth="yes"/>
			<point x="191" y="534"/>
			<point x="204" y="553"/>
			<point x="255" y="553" type="curve" smooth="yes"/>
			<point x="279" y="553" type="line"/>
			<point x="279" y="608" type="line"/>
			<point x="230" y="608" type="line" smooth="yes"/>
			<point x="148" y="608"/>
			<point x="110" y="579"/>
			<point x="110" y="487" type="curve" smooth="yes"/>
			<point x="110" y="435"/>
			<point x="119" y="402"/>
			<point x="119" y="355" type="curve" smooth="yes"/>
			<point x="119" y="320"/>
			<point x="100" y="284"/>
			<point x="33" y="283" type="curve"/>
			<point x="33" y="222" type="line"/>
			<point x="100" y="221"/>
			<point x="119" y="186"/>
			<point x="119" y="150" type="curve" smooth="yes"/>
			<point x="119" y="103"/>
			<point x="110" y="70"/>
			<point x="110" y="19" type="curve" smooth="yes"/>
			<point x="110" y="-75"/>
			<point x="148" y="-102"/>
		</contour>
	</outline>
</glyph>
